<?xml version="1.0" encoding="UTF-8"?>
<svg width="34px" height="33px" viewBox="0 0 34 33" version="1.1" xmlns="http://www.w3.org/2000/svg" xmlns:xlink="http://www.w3.org/1999/xlink">
    <!-- Generator: Sketch 60.1 (88133) - https://sketch.com -->
    <title>iconSilhouette</title>
    <desc>Created with Sketch.</desc>
    <defs>
        <polygon id="path-1" points="0 0.0636857976 11.0095146 0.0636857976 11.0095146 10.8815262 0 10.8815262"></polygon>
        <polygon id="path-3" points="0.0263832566 0.0636857976 11.0358496 0.0636857976 11.0358496 10.8815262 0.0263832566 10.8815262"></polygon>
        <polygon id="path-5" points="0.114463391 0.0798486141 5.69684326 0.0798486141 5.69684326 6.07449851 0.114463391 6.07449851"></polygon>
    </defs>
    <g id="Page-1" stroke="none" stroke-width="1" fill="none" fill-rule="evenodd">
        <g id="logo">
            <g id="Chucken">
                <g>
                    <path d="M20.8459455,29.8078401 C20.8471518,29.6757313 20.8399136,29.5501855 20.819526,29.4356994 C20.5782525,28.0836205 19.9128202,27.9662175 19.6131586,26.8378849 C19.5275065,26.5150874 20.974303,26.8378849 20.974303,26.8378849 C21.4478022,27.4910149 21.8457828,28.7051514 21.9787245,29.7958081 C24.5272965,29.9155203 24.5148709,31.0882132 23.9560815,31.4562217 C23.3282878,31.869806 22.7582792,31.1735309 22.0109345,30.8794158 C21.9518225,31.5561237 21.7116348,32.0335139 21.2115955,32.0335139 C20.6922543,32.0335139 20.6826033,31.513951 20.7462995,30.8927846 C19.8480383,31.2105991 18.9281831,31.940661 18.6141657,31.4076077 C18.2561158,30.7994456 18.6768968,29.9552623 20.8459455,29.8078401" id="Fill-1" fill="#FFCA05" fill-rule="nonzero"></path>
                    <path d="M20.8573698,31.7925704 C20.8573698,32.200807 21.1940669,32.4915192 21.2752555,32.4915192 C21.3563234,32.4915192 21.6931412,32.200807 21.6931412,31.7925704 C21.6931412,31.564935 21.5059129,31.4803465 21.2752555,31.4803465 C21.0443567,31.4803465 20.8573698,31.564935 20.8573698,31.7925704 M18.0993725,31.7792015 C18.1358048,31.8334062 18.5264265,31.8957537 18.8617967,31.6665384 C19.0487837,31.5386834 19.0339453,31.3659819 18.9298358,31.2115107 C18.825847,31.0569179 18.6721557,30.9792569 18.4850481,31.1069904 C18.1497986,31.3362058 18.0626989,31.7247537 18.0993725,31.7792015 M23.7619407,31.1085704 C23.6630186,31.279935 23.6478184,31.4695299 23.8229829,31.6055277 C24.1368797,31.8492058 24.5048218,31.7726386 24.5395652,31.7123571 C24.5744292,31.6520757 24.4951709,31.2282825 24.1812741,30.9846045 C24.0061095,30.8484851 23.8608629,30.9369627 23.7619407,31.1085704" id="Fill-3" fill="#FFF584" fill-rule="nonzero"></path>
                    <path d="M10.939485,29.8078401 C10.9382786,29.6757313 10.9455168,29.5501855 10.9659044,29.4356994 C11.2071779,28.0836205 11.8726102,27.9662175 12.1722719,26.8378849 C12.257924,26.5150874 10.8111275,26.8378849 10.8111275,26.8378849 C10.3376283,27.4910149 9.93964764,28.7051514 9.80670595,29.7958081 C7.25813402,29.9155203 7.27055961,31.0882132 7.82934902,31.4562217 C8.45714265,31.869806 9.02715129,31.1735309 9.77449593,30.8794158 C9.83360794,31.5561237 10.0737957,32.0335139 10.573835,32.0335139 C11.0931762,32.0335139 11.1028272,31.513951 11.039131,30.8927846 C11.9373922,31.2105991 12.8572474,31.940661 13.1712648,31.4076077 C13.5293147,30.7994456 13.1085337,29.9552623 10.939485,29.8078401" id="Fill-5" fill="#FFCA05" fill-rule="nonzero"></path>
                    <path d="M10.5101871,31.4803708 C10.279409,31.4803708 10.0923014,31.5649593 10.0923014,31.7925947 C10.0923014,32.2008313 10.4291192,32.4915435 10.5101871,32.4915435 C10.5913756,32.4915435 10.9280728,32.2008313 10.9280728,31.7925947 C10.9280728,31.5649593 10.7410858,31.4803708 10.5101871,31.4803708 M13.3003944,31.1070147 C13.1132868,30.9791597 12.9595956,31.0569422 12.8554861,31.211535 C12.7514972,31.3660062 12.7366589,31.5387077 12.9236458,31.6665627 C13.259016,31.8956565 13.6496378,31.8334305 13.6860701,31.7791043 C13.7227437,31.724778 13.6356439,31.3362301 13.3003944,31.1070147 M7.60416847,30.9845072 C7.29027165,31.2283068 7.21101331,31.6521 7.24575669,31.7123814 C7.28062071,31.7726629 7.64856279,31.8492301 7.96245961,31.605552 C8.13762417,31.4695542 8.12242394,31.2799593 8.0235018,31.1085947 C7.92445903,30.936987 7.77933303,30.8485094 7.60416847,30.9845072" id="Fill-7" fill="#FFF584" fill-rule="nonzero"></path>
                    <g id="Group-11" transform="translate(0.000000, 12.316740)">
                        <g id="Fill-9-Clipped">
                            <g>
                                <mask id="mask-2" fill="white">
                                    <use xlink:href="#path-1"></use>
                                </mask>
                                <g id="path-1"></g>
                                <path d="M11.0095146,5.70989296 C11.0095146,5.70989296 9.19996343,1.14964989 4.49513028,0.180042217 C2.42222906,-0.247153945 1.15216538,0.577583795 0.692177465,1.42577783 C0.231948274,2.27421493 0.74019089,3.57354755 1.87128103,3.57354755 C-0.420817165,4.06916802 -0.75256822,6.7733258 1.69032591,7.32023412 C-0.300180418,9.32556461 1.66016672,11.6043493 5.06815483,10.6624516 C8.47614294,9.72055394 11.0095146,5.70989296 11.0095146,5.70989296" id="Fill-9" fill="#FFDEA3" fill-rule="nonzero" mask="url(#mask-2)"></path>
                            </g>
                        </g>
                    </g>
                    <g id="Group-14" transform="translate(20.749521, 12.316740)">
                        <g id="Fill-12-Clipped">
                            <g>
                                <mask id="mask-4" fill="white">
                                    <use xlink:href="#path-3"></use>
                                </mask>
                                <g id="path-3"></g>
                                <path d="M0.0263832566,5.70989296 C0.0263832566,5.70989296 1.83593446,1.14964989 6.54076761,0.180042217 C8.61366883,-0.247153945 9.88373251,0.577583795 10.3437204,1.42577783 C10.8039496,2.27421493 10.295707,3.57354755 9.16461686,3.57354755 C11.4567151,4.06916802 11.7884661,6.7733258 9.34557198,7.32023412 C11.3360783,9.32556461 9.37573117,11.6043493 5.96774306,10.6624516 C2.55975495,9.72055394 0.0263832566,5.70989296 0.0263832566,5.70989296" id="Fill-12" fill="#FFDEA3" fill-rule="nonzero" mask="url(#mask-4)"></path>
                            </g>
                        </g>
                    </g>
                    <g id="Group-17" transform="translate(12.546222, 0.041687)">
                        <g id="Fill-15-Clipped">
                            <g>
                                <mask id="mask-6" fill="white">
                                    <use xlink:href="#path-5"></use>
                                </mask>
                                <g id="path-5"></g>
                                <path d="M4.1843459,6.07449851 C6.2351706,4.00840043 6.22998322,-0.139716844 3.98782863,0.0888908316 C2.49784417,0.240809808 3.09282461,2.8538162 3.09282461,2.8538162 C1.38400508,0.696566738 -0.889876966,2.83096759 0.595402666,4.32730874 C2.30482537,6.04946226 4.1843459,6.07449851 4.1843459,6.07449851" id="Fill-15" fill="#EC1D24" fill-rule="nonzero" mask="url(#mask-6)"></path>
                            </g>
                        </g>
                    </g>
                    <path d="M15.8927092,27.8388851 C23.218255,27.8388851 25.7535569,25.7363264 25.7535569,21.009094 C25.7535569,13.0410045 19.6932493,4.36898316 15.8927092,4.36898316 C12.0921691,4.36898316 6.03186149,13.0410045 6.03186149,21.009094 C6.03186149,25.7363264 8.56716337,27.8388851 15.8927092,27.8388851" id="Fill-18" fill="#FFE5B8" fill-rule="nonzero"></path>
                    <path d="M13.8748183,8.87245714 C14.7715113,8.87245714 15.5625264,9.32383881 16.039886,10.0122141 C16.4624766,9.52230576 17.0837558,9.21117569 17.7785028,9.21117569 C19.0513412,9.21117569 20.0831473,10.2506661 20.0831473,11.5328623 C20.0831473,12.8150584 19.0513412,13.8546704 17.7785028,13.8546704 C17.0837558,13.8546704 16.4624766,13.5434188 16.039886,13.053632 C15.5625264,13.7420072 14.7715113,14.1933889 13.8748183,14.1933889 C12.4163201,14.1933889 11.2339593,13.0022226 11.2339593,11.5328623 C11.2339593,10.0636235 12.4163201,8.87245714 13.8748183,8.87245714" id="Fill-20" fill="#FEFEFE" fill-rule="nonzero"></path>
                    <path d="M14.1836002,11.4394139 C14.1836002,11.8108254 14.482538,12.111868 14.8510833,12.111868 C15.2197492,12.111868 15.518687,11.8108254 15.518687,11.4394139 C15.518687,11.0680023 15.2197492,10.7669597 14.8510833,10.7669597 C14.482538,10.7669597 14.1836002,11.0680023 14.1836002,11.4394139" id="Fill-22" fill="#231F20" fill-rule="nonzero"></path>
                    <path d="M16.5340624,11.4394139 C16.5340624,11.8108254 16.8330003,12.111868 17.2016662,12.111868 C17.5702114,12.111868 17.8691493,11.8108254 17.8691493,11.4394139 C17.8691493,11.0680023 17.5702114,10.7669597 17.2016662,10.7669597 C16.8330003,10.7669597 16.5340624,11.0680023 16.5340624,11.4394139" id="Fill-24" fill="#231F20" fill-rule="nonzero"></path>
                    <path d="M13.8715732,15.0088535 C13.6482746,15.8485401 14.071227,16.3566787 14.7134971,16.5299878 C15.3558877,16.7034186 15.9742717,16.4763908 16.1975703,15.6368258 C16.4208689,14.7970177 16.1646365,13.6623652 15.5223665,13.4889345 C14.8799758,13.3156254 14.0949925,14.1690454 13.8715732,15.0088535" id="Fill-26" fill="#EC1D24" fill-rule="nonzero"></path>
                    <path d="M18.5033125,15.1119883 C18.7456718,16.0235021 18.2866489,16.5751503 17.5893685,16.7631652 C16.8920881,16.9514232 16.2208653,16.7050714 15.9783854,15.7935576 C15.7360262,14.8819222 16.0140939,13.6504062 16.7113743,13.4621482 C17.4086547,13.2738902 18.2608327,14.2004744 18.5033125,15.1119883" id="Fill-28" fill="#EC1D24" fill-rule="nonzero"></path>
                    <path d="M14.8101633,13.7877409 C14.8101633,15.0154893 15.8227881,15.8902996 16.0670776,15.8902996 C16.3110051,15.8902996 17.3238712,15.0154893 17.3238712,13.7877409 C17.3238712,13.1032548 16.7611008,12.8487601 16.0670776,12.8487601 C15.3728131,12.8487601 14.8101633,13.1032548 14.8101633,13.7877409" id="Fill-30" fill="#FFCA05" fill-rule="nonzero"></path>
                    <path d="M15.8927092,19.1443676 C21.764341,19.1443676 23.7965876,20.8296959 23.7965876,24.6186768 C23.7965876,25.106762 23.7678761,25.5980072 23.7140721,26.0892525 C22.1749885,27.279568 19.6710521,27.8388729 15.8927092,27.8388729 C12.1143663,27.8388729 9.61042996,27.279568 8.07134634,26.0892525 C8.01754235,25.5980072 7.9888308,25.106762 7.9888308,24.6186768 C7.9888308,20.8296959 10.0209568,19.1443676 15.8927092,19.1443676" id="Fill-32" fill="#FFECCD" fill-rule="nonzero"></path>
                </g>
            </g>
            <g id="pi-logo" transform="translate(23.670886, 20.571429)">
                <g id="raspberry-pi" fill-rule="nonzero">
                    <path d="M3.10500939,0.000190021205 C3.04109024,0.0021282375 2.97226017,0.0253488288 2.89414964,0.0858895847 C2.70293353,0.0134154971 2.5174017,-0.0117813147 2.35155217,0.135789153 C2.09545019,0.10314351 2.01223541,0.17052503 1.94916696,0.249193809 C1.89294285,0.248053681 1.52849151,0.192377468 1.36132725,0.437428813 C0.941309169,0.388593365 0.808559944,0.68023791 0.958980708,0.952234264 C0.873175136,1.08274083 0.784276076,1.21168922 0.984888656,1.46054099 C0.913931818,1.59910445 0.957936658,1.74944923 1.12510092,1.93137553 C1.08101874,2.12622327 1.16771369,2.26364661 1.32327737,2.37078057 C1.29415993,2.63738032 1.57203233,2.79239962 1.65497643,2.84761978 C1.68683933,3.00294311 1.75323328,3.14956347 2.07058629,3.23058852 C2.12294354,3.46211035 2.31365697,3.50209081 2.49837676,3.55066023 C1.88791593,3.89942516 1.36442074,4.35825034 1.36797825,5.484126 L1.27853783,5.64089349 C0.578559248,6.05924417 -0.0511971957,7.40391026 0.933614121,8.49683619 C0.997919965,8.8389504 1.1058053,9.0846858 1.20185804,9.35664416 C1.3455118,10.4525344 2.28310879,10.9657057 2.53043301,11.0263985 C2.89279624,11.2976727 3.27874731,11.5550755 3.80108245,11.7354056 C4.2933721,12.2344393 4.82676645,12.4246505 5.36306093,12.4243472 C5.37094936,12.4243472 6.45649228,12.2344773 6.94885927,11.7354056 C7.47111709,11.5550755 7.85706813,11.2976727 8.21950874,11.0263985 C8.46675562,10.9657057 9.40435262,10.4525344 9.54800636,9.35664416 C9.64405911,9.0846858 9.75194443,8.8389504 9.81628895,8.49683619 C10.8010229,7.40379621 10.1713052,6.05909216 9.47136524,5.64074147 L9.38177016,5.48397399 C9.38532764,4.35821237 8.86183248,3.89934915 8.25137164,3.55050822 C8.43605276,3.5019388 8.6268435,3.46195833 8.67912345,3.2304365 C8.99647644,3.14937345 9.06290908,3.0027911 9.09473329,2.84746776 C9.17771606,2.7922476 9.45554977,2.6372283 9.42650968,2.37062855 C9.58199603,2.2634946 9.66872964,2.12603325 9.62460879,1.93122351 C9.79181175,1.74929721 9.83577793,1.59895243 9.76482109,1.46035097 C9.96551099,1.21165122 9.87645725,1.08270282 9.79076769,0.952196259 C9.94111113,0.680199909 9.80843922,0.388517356 9.38826648,0.437390811 C9.2212182,0.192339464 8.85680555,0.247977673 8.80042675,0.2491178 C8.73739699,0.170487025 8.65418221,0.103105506 8.39808022,0.135751149 C8.23223068,-0.011819319 8.04677621,0.0133394886 7.85548274,0.0858515807 C7.62834351,-0.090298077 7.47807745,0.0508876787 7.30638894,0.104283637 C7.03137805,0.0159617812 6.96846428,0.136929281 6.83335624,0.186220781 C6.53344275,0.12393183 6.44230093,0.259530962 6.29856981,0.402654934 L6.13128955,0.399386569 C5.67894455,0.661387809 5.45420279,1.19489134 5.37454552,1.46916795 C5.29488826,1.19485334 5.07064918,0.661349803 4.61838148,0.399386569 L4.45113991,0.402654934 C4.30717677,0.259530962 4.21607362,0.12393183 3.91616013,0.186220781 C3.78101346,0.136929281 3.71837036,0.0159617812 3.44312743,0.104283637 C3.3304472,0.0692437273 3.22681541,-0.00357239866 3.10481605,0.000152016964 L0,5.35859799" id="Path" fill="#333333"></path>
                    <path d="M2.20441824,1.15282065 C3.40453619,1.76092651 4.10223333,2.25285341 4.48447222,2.67181216 C4.28873187,3.44288021 3.26757209,3.47807214 2.89418831,3.45644772 C2.97063609,3.42148382 3.03443924,3.37956514 3.05706036,3.31522396 C2.9633664,3.24978066 2.63116465,3.30830719 2.39923052,3.1802709 C2.48832293,3.16210488 2.53000766,3.1444329 2.57165371,3.07982569 C2.35255755,3.01115203 2.11652456,2.95194142 1.97770437,2.83815672 C2.0526054,2.83906882 2.12255686,2.85465057 2.22038836,2.78795312 C2.02414533,2.68401152 1.81471632,2.60161833 1.65199895,2.44272259 C1.75346529,2.44029032 1.8628587,2.44173448 1.89468293,2.40506039 C1.71506739,2.29568418 1.56348657,2.17407061 1.43804571,2.04101777 C1.58003672,2.05785365 1.64001169,2.04337403 1.67434938,2.01905132 C1.53854534,1.88235006 1.36670218,1.76693118 1.28476347,1.59849639 C1.39017401,1.63422037 1.48665211,1.6479019 1.55617821,1.59538004 C1.5100466,1.49307262 1.31237283,1.43272188 1.19853255,1.1936372 C1.30955003,1.20424039 1.42725718,1.21742786 1.45080634,1.1936372 C1.3992998,0.987350181 1.31090343,0.871361237 1.22420848,0.751191827 C1.46174954,0.747733444 1.82167666,0.75210393 1.80539719,0.732379731 L1.65849527,0.584885271 C1.8905454,0.523470416 2.12797046,0.59472837 2.30035497,0.647630271 C2.3777308,0.587621576 2.29896291,0.511727104 2.20453424,0.434236457 C2.40174399,0.460117346 2.57992879,0.504658316 2.74102208,0.566035166 C2.82705966,0.489684647 2.68514598,0.413296122 2.61647059,0.336945601 C2.92114031,0.393723937 3.05021602,0.47357085 3.17847969,0.553493769 C3.27155495,0.465817984 3.18381595,0.391291666 3.12101819,0.31497915 C3.3507482,0.39858848 3.46907405,0.506558529 3.59362553,0.61312242 C3.63585162,0.55710417 3.70093083,0.516021587 3.62235629,0.380878504 C3.78546034,0.473266813 3.90831041,0.582148963 3.99918157,0.704142579 C4.10010655,0.640979529 4.05931121,0.554633893 4.05985256,0.475015007 C4.2293756,0.610538134 4.3369516,0.754764227 4.46861811,0.895569943 C4.49514473,0.876567819 4.51834586,0.812226639 4.53887889,0.710413277 C4.9432362,1.0959663 5.51464175,2.06716468 4.68574215,2.45222366 C3.9803113,1.88041185 3.13780035,1.46475946 2.20414755,1.15297266 L2.20441824,1.15282065 M8.57228215,1.15282065 C7.37231886,1.76100252 6.67462173,2.2527774 6.29242153,2.67181216 C6.48816186,3.44288021 7.50928299,3.47807214 7.88266673,3.45644772 C7.80621898,3.42148382 7.74241583,3.37956514 7.71983337,3.31522396 C7.81352735,3.24978066 8.14572908,3.30830719 8.37762453,3.1802709 C8.28853214,3.16210488 8.2468861,3.1444329 8.20520136,3.07982569 C8.42433618,3.01115203 8.66036918,2.95194142 8.79915068,2.83815672 C8.72424967,2.83906882 8.6542982,2.85465057 8.55646673,2.78795312 C8.75274838,2.68401152 8.96217741,2.60161833 9.12489478,2.44272259 C9.02338976,2.44029032 8.91399635,2.44173448 8.88221078,2.40506039 C9.06182633,2.29568418 9.21340715,2.17407061 9.33884804,2.04101777 C9.19681834,2.05785365 9.13688206,2.04337403 9.10254434,2.01905132 C9.23830974,1.88235006 9.41019153,1.76693118 9.49213024,1.59849639 C9.38668105,1.63422037 9.29020295,1.6479019 9.22067687,1.59538004 C9.26680846,1.49307262 9.46452091,1.43272188 9.57832252,1.1936372 C9.46734373,1.20424039 9.3495979,1.21742786 9.32604872,1.1936372 C9.37767127,0.987274174 9.46606765,0.87128523 9.55276257,0.75111582 C9.31522153,0.747657433 8.95529443,0.752027923 8.97157389,0.73230372 L9.11847579,0.584771259 C8.88642567,0.523394409 8.64900061,0.594652359 8.47661609,0.647554264 C8.39924027,0.587545569 8.47796951,0.511651097 8.57239818,0.43416045 C8.3752271,0.460003333 8.19700362,0.504582309 8.03594898,0.565959159 C7.94987273,0.489608636 8.09182509,0.413220113 8.16050049,0.336869593 C7.85583075,0.393647929 7.72675504,0.473494839 7.59845273,0.553417757 C7.50537743,0.465741973 7.5931551,0.391215657 7.65595288,0.314903142 C7.42622289,0.398512472 7.30789704,0.506482521 7.18334552,0.613046413 C7.14108077,0.557028163 7.07604023,0.515945576 7.1545761,0.380802495 C6.99151072,0.473190806 6.86866068,0.582072956 6.77778952,0.704066571 C6.67686452,0.640903521 6.71765988,0.55451988 6.7171185,0.474939 C6.54759545,0.610462123 6.44001949,0.754650214 6.30835298,0.895493931 C6.28182631,0.876491811 6.25862519,0.812150631 6.23809216,0.710299264 C5.83373485,1.0958903 5.2623293,2.06708868 6.0912289,2.45214765 C6.79627308,1.88018382 7.63874535,1.46460744 8.57243683,1.15282065 L8.57228215,1.15282065" id="Shape" fill="#75A928"></path>
                    <path d="M6.84178778,9.00445886 C6.84592354,9.72399313 6.20568792,10.3103606 5.41178336,10.3141599 C4.61784015,10.3179234 3.9708375,9.73771269 3.96663954,9.01817837 C3.96663954,9.0136053 3.96663954,9.00903193 3.96663954,9.00445886 C3.96248509,8.28496256 4.60268204,7.69859511 5.39662525,7.69475773 C6.19056851,7.69099427 6.83753247,8.27120503 6.84178778,8.9907393 L6.84178778,9.00445886 M4.57240457,5.28274153 C5.1680553,5.66631831 5.27543793,6.53570336 4.81222706,7.22456824 C4.34901618,7.9134711 3.49065111,8.16103071 2.89500035,7.77749194 C2.29934959,7.39391511 2.19200562,6.52453011 2.65517784,5.83566523 C3.11838872,5.14676237 3.97675379,4.89920271 4.57240457,5.28274153 M6.18008932,5.21330777 C5.58447723,5.59684659 5.47709456,6.4662696 5.94026679,7.15513449 C6.40347767,7.84403734 7.26184274,8.091597 7.85749352,7.70802017 C8.45314426,7.32448136 8.56052689,6.45509636 8.09731601,5.76619346 C7.63414382,5.07732861 6.77577874,4.82976896 6.18008932,5.21330777 L6.58531595,6.05644286 M1.59538815,5.90981151 C2.23848525,5.74038861 1.81251221,8.5246173 1.28924903,8.29617381 C0.713667256,7.84118704 0.528290098,6.50872033 1.59538815,5.90981151 M9.02729528,5.87511364 C8.38412086,5.70572871 8.81017124,8.49007144 9.33343443,8.26162796 C9.90901621,7.80660317 10.0943933,6.47398444 9.02729528,5.87511364 M6.84225004,3.80171625 C7.95207683,3.6175477 8.87555983,4.26559602 8.8382833,5.44836403 C8.80178017,5.90183061 6.43336849,3.86924979 6.84225004,3.80171625 M3.77583187,3.76701838 C2.6659277,3.58281182 1.74252208,4.23101216 1.77979859,5.41370413 C1.81630173,5.86713274 4.18475207,3.83455191 3.77583187,3.76701838 M5.37005998,3.4911836 C4.70766724,3.4742337 4.07195583,3.97433151 4.07039971,4.26441789 C4.06859166,4.6168692 4.59413629,4.9777575 5.37458417,4.9869165 C6.17154357,4.99250314 6.68011269,4.69804629 6.68268248,4.33430769 C6.6856036,3.9221897 5.95782232,3.48479889 5.37005998,3.49114559 L5.37005998,3.4911836 M5.41050728,10.7188302 C5.9880225,10.6940514 6.76294077,10.9016306 6.76448752,11.1770473 C6.77407732,11.4444451 6.06168613,12.0486366 5.37222539,12.0369693 C4.65817146,12.0672586 3.95799953,11.4621171 3.96716398,11.2523717 C3.95645279,10.9448414 4.83658827,10.7047306 5.41050728,10.7188302 M3.27739391,9.08673801 C3.68855689,9.57357236 3.87602215,10.4288958 3.5328772,10.6810539 C3.2082545,10.8735454 2.41991822,10.7942686 1.85961053,10.0031343 C1.48170253,9.33927621 1.53038627,8.66375083 1.79573005,8.46529269 C2.19250831,8.22776619 2.80555993,8.54863599 3.27743258,9.08673801 L3.27739391,9.08673801 M7.46133396,8.9324028 C7.01645196,9.44450996 6.76874105,10.3785782 7.09324776,10.6794198 C7.40356309,10.9131459 8.23656159,10.8804622 8.85185597,10.0413666 C9.29863271,9.47780169 9.14894664,8.53662664 8.89373403,8.28671074 C8.51462732,7.99852461 7.97036707,8.36735576 7.46133396,8.93225079 L7.46133396,8.9324028" id="Shape" fill="#BC1142"></path>
                </g>
            </g>
        </g>
    </g>
</svg>