<?xml version="1.0" encoding="UTF-8"?>
<svg width="23px" height="29px" viewBox="0 0 23 29" version="1.1" xmlns="http://www.w3.org/2000/svg" xmlns:xlink="http://www.w3.org/1999/xlink">
    <!-- Generator: Sketch 60.1 (88133) - https://sketch.com -->
    <title>iconSilhouette</title>
    <desc>Created with Sketch.</desc>
    <g id="Page-1" stroke="none" stroke-width="1" fill="none" fill-rule="evenodd">
        <g id="pi-logo" transform="translate(-1.000000, 0.000000)">
            <g id="raspberry-pi">
                <path d="M7.21458065,0.000443382812 C7.06606261,0.0049658875 6.90613392,0.0591472672 6.72464182,0.200409031 C6.28034556,0.0313028266 5.84925689,-0.0274897344 5.46390063,0.316841358 C4.86884014,0.240668191 4.67548815,0.397891736 4.52894676,0.58145222 C4.39830838,0.578791923 3.55149498,0.448880759 3.16308391,1.02066723 C2.18715954,0.906717852 1.87871281,1.58722179 2.22821988,2.22187995 C2.02884811,2.52639527 1.82228853,2.82727484 2.28841776,3.40792897 C2.12354746,3.73124372 2.225794,4.0820482 2.61420507,4.50654291 C2.51177883,4.96118764 2.7132171,5.28184209 3.0746739,5.53182132 C3.00701867,6.15388741 3.65266335,6.51559911 3.8453864,6.64444615 C3.9194208,7.00686726 4.07368909,7.34898144 4.81106815,7.53803987 C4.93272176,8.07825749 5.37585001,8.17154523 5.80505188,8.28487388 C4.3866282,9.0986587 3.17027172,10.1692508 3.17853769,12.796294 L2.97072025,13.1620848 C1.34429943,14.1382364 -0.11895819,17.2757906 2.16927987,19.8259511 C2.31869639,20.6242176 2.56937113,21.1976002 2.79255251,21.8321697 C3.12633625,24.389247 5.30487042,25.5866467 5.87953552,25.7282631 C6.72149715,26.3612364 7.61826581,26.9618428 8.83192686,27.3826131 C9.97577635,28.547025 11.2151338,28.9908512 12.4612298,28.9901427 C12.4795588,28.9901427 15.0018497,28.5471137 16.1458789,27.3826131 C17.3593603,26.9618428 18.2561289,26.3612364 19.0982703,25.7282631 C19.6727557,25.5866467 21.8512899,24.389247 22.1850736,21.8321697 C22.408255,21.1976002 22.6589297,20.6242176 22.8084361,19.8259511 C25.0964944,17.2755245 23.6333267,14.1378817 22.0069957,13.1617301 L21.7988189,12.7959393 C21.8070848,10.1691622 20.5907284,9.09848134 19.1723047,8.28451917 C19.6014167,8.17119053 20.0447246,8.07790278 20.1661986,7.53768517 C20.9035776,7.34853806 21.0579358,7.00651256 21.1318803,6.64409145 C21.3246932,6.5152444 21.970248,6.1535327 21.9027725,5.53146662 C22.2640496,5.28148739 22.4655777,4.96074426 22.3630616,4.5061882 C22.7515626,4.0816935 22.8537193,3.73088901 22.688849,3.40748559 C23.1551579,2.82718617 22.9482389,2.52630659 22.7491367,2.22179127 C23.0984641,1.58713312 22.790197,0.906540498 21.8139133,1.02057856 C21.4257717,0.448792083 20.5790482,0.57861457 20.4480504,0.581274867 C20.3015989,0.397803059 20.1082469,0.240579514 19.5131864,0.316752681 C19.1278301,-0.0275784109 18.6969212,0.0311254734 18.2524452,0.200320355 C17.7246805,-0.210695513 17.3755329,0.118737917 16.9766096,0.243328487 C16.3376137,0.0372441562 16.1914317,0.319501655 15.8775042,0.434515156 C15.1806464,0.28917427 14.9688757,0.605572245 14.6349122,0.93952818 L14.2462316,0.931901995 C13.1951947,1.54323822 12.6730006,2.7880798 12.4879146,3.42805855 C12.3028286,2.78799112 11.7818025,1.54314954 10.7309452,0.931901995 L10.3423545,0.93952818 C10.0078519,0.605572245 9.79617105,0.28917427 9.09931325,0.434515156 C8.78529597,0.319501655 8.6397429,0.0372441562 8.00020785,0.243328487 C7.73839202,0.161568697 7.49760051,-0.00833559688 7.21413141,0.00035470625 L0,12.5033953" id="Path" fill="#FFFFFF" fill-rule="nonzero"></path>
                <path d="M5.12203061,2.68991485 C7.91053997,4.10882852 9.53165979,5.25665795 10.4198031,6.23422837 C9.96499464,8.03338715 7.59229986,8.11550165 6.72473167,8.06504468 C6.90236032,7.98346225 7.05060882,7.885652 7.10316966,7.73552258 C6.88546898,7.58282154 6.11358845,7.71938344 5.57468269,7.4206321 C5.78169151,7.37824471 5.8785472,7.3370101 5.97531304,7.18625995 C5.46623667,7.0260214 4.91780707,6.88786332 4.59525427,6.62236569 C4.76928902,6.62449392 4.93182329,6.66085132 5.15913766,6.50522395 C4.70316121,6.26269355 4.21654674,6.07044276 3.83846814,5.69968605 C4.07422818,5.69401075 4.32840697,5.69738046 4.40235152,5.61180758 C3.98500953,5.35659643 3.63280704,5.07283143 3.3413415,4.76237479 C3.6712618,4.80165851 3.81061539,4.76787274 3.89040004,4.71111974 C3.57485535,4.39215014 3.17557272,4.12283942 2.98518571,3.7298249 C3.2301102,3.81318086 3.4542799,3.84510443 3.61582584,3.72255342 C3.50863769,3.48383611 3.04933688,3.34301773 2.78482562,2.78515347 C3.04277801,2.80989424 3.31627403,2.840665 3.3709912,2.78515347 C3.25131423,2.30381709 3.04592267,2.03317622 2.84448441,1.75278093 C3.39641806,1.74471137 4.2327193,1.75490917 4.19489347,1.70888604 L3.85356253,1.3647323 C4.39273783,1.22143097 4.94440195,1.38769953 5.34494244,1.5111373 C5.52472744,1.37111701 5.34170793,1.19402991 5.12230015,1.0132184 C5.58052279,1.07360714 5.99454042,1.17753607 6.36884542,1.32074872 C6.56875627,1.14259751 6.23901567,0.964357617 6.07944638,0.786206403 C6.78735543,0.918689187 7.08726664,1.10499865 7.38529104,1.29148546 C7.60155416,1.08690863 7.39769001,0.913013887 7.25177755,0.73495135 C7.78556199,0.930039787 8.06049558,1.1819699 8.34989462,1.43061898 C8.44800817,1.29990973 8.59922164,1.20405037 8.41665137,0.888716509 C8.79562844,1.10428923 9.08107419,1.35834758 9.292216,1.64299935 C9.52671817,1.4956189 9.43192898,1.29414575 9.43318684,1.10836835 C9.82707861,1.42458898 10.0770346,1.76111653 10.3829656,2.0896632 C10.444601,2.04532491 10.4985095,1.89519549 10.5462186,1.65763098 C11.4857547,2.55725471 12.8134323,4.82338426 10.8874597,5.7218552 C9.24837038,4.38762764 7.29077139,3.41777207 5.12140167,2.69026955 L5.12203061,2.68991485 M19.9179497,2.68991485 C17.1297997,4.10900588 15.5086799,5.2564806 14.6206265,6.23422837 C15.0754349,8.03338715 17.4480399,8.11550165 18.315608,8.06504468 C18.1379794,7.98346225 17.9897309,7.885652 17.9372599,7.73552258 C18.1549606,7.58282154 18.9268411,7.71938344 19.465657,7.4206321 C19.2586482,7.37824471 19.1618824,7.3370101 19.0650267,7.18625995 C19.5741929,7.0260214 20.1226225,6.88786332 20.4450854,6.62236569 C20.2710507,6.62449392 20.1085164,6.66085132 19.8812021,6.50522395 C20.3372683,6.26269355 20.8238828,6.07044276 21.2019614,5.69968605 C20.9661115,5.69401075 20.7119327,5.69738046 20.638078,5.61180758 C21.05542,5.35659643 21.4076225,5.07283143 21.6990881,4.76237479 C21.3690779,4.80165851 21.2298142,4.76787274 21.1500295,4.71111974 C21.4654844,4.39215014 21.8648568,4.12283942 22.0552438,3.7298249 C21.8102295,3.81318086 21.5860598,3.84510443 21.4245139,3.72255342 C21.531702,3.48383611 21.9910927,3.34301773 22.2555141,2.78515347 C21.9976516,2.80989424 21.7240657,2.840665 21.6693485,2.78515347 C21.789295,2.30363974 21.9946866,2.03299887 22.1961248,1.75260358 C21.6441912,1.74453401 20.80789,1.75473182 20.8457158,1.70870868 L21.1870467,1.36446627 C20.6478714,1.22125362 20.0962073,1.38752217 19.6956668,1.51095995 C19.5158818,1.37093966 19.6988115,1.19385256 19.9182193,1.01304105 C19.4600865,1.07334111 19.045979,1.17735872 18.6717638,1.32057137 C18.4717631,1.14242015 18.8015936,0.964180264 18.9611629,0.78602905 C18.2532538,0.918511834 17.9533426,1.10482129 17.6552284,1.2913081 C17.4389652,1.08673127 17.6429192,0.912836534 17.7888317,0.734773997 C17.2550473,0.929862434 16.9801137,1.18179255 16.6907146,1.43044163 C16.5925112,1.29973238 16.4413876,1.20387301 16.623868,0.888539156 C16.2449808,1.10411188 15.9595351,1.35817023 15.7483933,1.642822 C15.5138911,1.49544155 15.6086803,1.29387972 15.6074224,1.108191 C15.2135306,1.42441162 14.9635747,1.7608505 14.6576437,2.08948584 C14.5960082,2.04514756 14.5420997,1.89501814 14.4943906,1.65736495 C13.5548545,2.55707736 12.2271769,4.82320691 14.1531495,5.72167784 C15.7913404,4.38709558 17.7488495,3.41741737 19.9183091,2.68991485 L19.9179497,2.68991485" id="Shape" fill="#75A928" fill-rule="nonzero"></path>
                <path d="M15.8970484,21.010404 C15.9067047,22.6893173 14.4190984,24.057508 12.5744378,24.0663303 C10.7296874,24.0751547 9.22635772,22.7213296 9.21665418,21.0424162 C9.2165868,21.0317457 9.2165868,21.0210745 9.21665418,21.010404 C9.20695065,19.3315793 10.6944671,17.9633886 12.5392175,17.9544776 C14.383968,17.9456533 15.8872078,19.2994784 15.8970484,20.9783917 L15.8970484,21.010404 M10.6241165,12.3263969 C12.0081285,13.2214094 12.2576352,15.2499745 11.1813511,16.8573259 C10.105067,18.4647659 8.11063052,19.042405 6.72661847,18.1474812 C5.34260641,17.2524686 5.09318954,15.2239036 6.1693838,13.6165522 C7.24566791,12.0091122 9.2401044,11.431473 10.6241165,12.3263969 M14.3596193,12.1643848 C12.9756971,13.0593087 12.7261903,15.0879624 13.8023846,16.6953138 C14.8786687,18.3027538 16.8731052,18.880393 18.2571173,17.9853804 C19.6411293,17.0904565 19.890636,15.0618915 18.8143519,13.4544514 C17.7381577,11.8471001 15.7437212,11.2694609 14.3596193,12.1643848 L15.3011753,14.1317 M3.70693129,13.7895602 C5.20118632,13.3942401 4.21142543,19.8907737 2.99560803,19.3577389 C1.65822686,18.2961031 1.22749758,15.1870141 3.70693129,13.7895602 M20.9751861,13.7085985 C19.4807514,13.313367 20.470692,19.8101667 21.6865094,19.2771319 C23.0238906,18.2154074 23.4546198,15.1059637 20.9751861,13.7085985 M15.8981692,8.87067125 C18.4768844,8.44094463 20.6226243,9.95305738 20.5360112,12.7128494 C20.4511951,13.7709381 14.9481209,9.0282495 15.8981692,8.87067125 M8.7732564,8.78970955 C6.19436143,8.35989425 4.04880131,9.8723617 4.13541438,12.6319763 C4.22023049,13.6899764 9.72339451,8.9472878 8.7732564,8.78970955 M12.4774923,8.14609506 C10.9384033,8.10654531 9.46130913,9.2734402 9.45770431,9.9503084 C9.45349239,10.7726948 10.6746108,11.6147675 12.4880044,11.6361385 C14.339763,11.649174 15.5214383,10.962108 15.5273888,10.1133846 C15.5341966,9.15177596 13.8431754,8.1311974 12.4774923,8.14600638 L12.4774923,8.14609506 M12.5714728,25.0106037 C13.9133464,24.9527866 15.7138918,25.437138 15.7174857,26.079777 C15.7397679,26.7037053 14.084506,28.1134853 12.4825237,28.0862616 C10.8233984,28.1569368 9.19652833,26.7449399 9.2178222,26.255534 C9.19293442,25.5379632 11.2379551,24.9777047 12.5714728,25.0106037 M7.61512114,21.2023887 C8.57047042,22.3383355 9.00605147,24.3340902 8.20874408,24.9224592 C7.45447368,25.371606 5.62275115,25.1866267 4.32085977,23.3406467 C3.44277941,21.7916445 3.55589751,20.2154186 4.17243158,19.7523496 C5.09435755,19.1981211 6.51880102,19.9468173 7.61521099,21.2023887 L7.61512114,21.2023887 M17.3366289,20.8422732 C16.3029325,22.0371899 15.7273689,24.2166825 16.4813698,24.9186461 C17.2023966,25.464007 19.1378931,25.3877451 20.5675477,23.4298553 C21.6056466,22.1148706 21.2578466,19.9187955 20.6648526,19.3356584 C19.783987,18.6632241 18.5193823,19.5238301 17.3366289,20.8419185 L17.3366289,20.8422732" id="Shape" fill="#BC1142" fill-rule="nonzero"></path>
            </g>
        </g>
    </g>
</svg>