<?xml version="1.0" encoding="UTF-8"?>
<svg width="174px" height="346px" viewBox="0 0 174 346" version="1.1" xmlns="http://www.w3.org/2000/svg" xmlns:xlink="http://www.w3.org/1999/xlink">
    <!-- Generator: Sketch 56.3 (81716) - https://sketch.com -->
    <title>biker</title>
    <desc>Created with Sketch.</desc>
    <g id="all" stroke="none" stroke-width="1" fill="none" fill-rule="evenodd">
        <g id="iStock-943542898" transform="translate(-324.000000, -906.000000)">
            <g id="biker" transform="translate(324.181458, 906.617805)">
                <path d="M173.402542,280.005195 C173.402542,237.979195 134.614542,203.910195 86.766542,203.910195 C38.918542,203.910195 0.129541992,237.979195 0.129541992,280.005195 C0.129541992,283.273195 -0.0744580078,320.871195 0.0295419922,324.481195 C0.334541992,335.023195 3.27854199,345.310195 21.656542,345.310195 L151.825542,345.310195 C170.256542,345.310195 173.200542,335.042195 173.503542,324.491195 C173.607542,320.882195 173.402542,283.281195 173.402542,280.005195" id="Fill-2" fill="#E6E6C9"></path>
                <path d="M59.391542,345.310195 L114.141542,345.310195 L114.141542,307.519195 C105.391542,307.519195 93.079542,298.457195 87.329542,291.895195 C79.141542,298.457195 68.891542,307.519195 59.391542,307.519195 L59.391542,345.310195" id="Fill-3" fill="#FF6600"></path>
                <path d="M64.389542,345.310195 L109.143542,345.310195 L109.143542,310.878195 C101.991542,310.878195 91.927542,303.721195 87.226542,297.896195 C80.534542,303.721195 72.155542,310.878195 64.389542,310.878195 L64.389542,345.310195" id="Fill-4" fill="#666666"></path>
                <polygon id="Fill-5" fill="#FF6600" points="62.933542 321.084195 114.495542 321.084195 114.495542 316.397195 62.933542 316.397195"></polygon>
                <path d="M54.792542,209.262195 C22.769542,220.437195 0.129541992,247.898195 0.129541992,280.005195 C0.129541992,283.273195 1.30054199,320.246195 1.40454199,323.856195 C1.70854199,334.398195 3.27854199,345.310195 21.656542,345.310195 L70.407542,345.310195 C68.297542,300.108195 63.091542,254.759195 54.792542,209.262195 Z M118.740542,209.262195 C150.763542,220.437195 173.403542,247.898195 173.403542,280.005195 C173.403542,283.273195 172.670542,320.184195 172.566542,323.793195 C172.261542,334.336195 170.254542,345.310195 151.877542,345.310195 L103.125542,345.310195 C105.235542,300.108195 110.441542,254.759195 118.740542,209.262195 L118.740542,209.262195 Z" id="Fill-6" fill="#2A2A2A"></path>
                <path d="M173.402542,280.005195 C173.402542,262.038195 166.308542,245.529195 154.452542,232.511195 C150.208542,245.327195 147.836542,259.608195 147.836542,274.667195 C147.836542,276.785195 147.796542,312.817195 147.764542,345.310195 L151.825542,345.310195 C170.256542,345.310195 173.200542,335.042195 173.503542,324.491195 C173.607542,320.882195 173.402542,283.281195 173.402542,280.005195 Z M19.079542,232.510195 C7.22354199,245.528195 0.129541992,262.038195 0.129541992,280.005195 C0.129541992,283.273195 -0.0744580078,320.871195 0.0295419922,324.481195 C0.334541992,335.023195 3.27854199,345.310195 21.656542,345.310195 L25.768542,345.310195 C25.736542,312.817195 25.696542,276.785195 25.696542,274.667195 C25.696542,259.608195 23.324542,245.327195 19.079542,232.510195 L19.079542,232.510195 Z" id="Fill-7" fill="#FAB385"></path>
                <path d="M16.554542,268.489195 C17.590542,259.948195 16.215542,260.787195 13.200542,267.247195 C10.348542,273.356195 6.50654199,279.219195 0.129541992,282.255195 C0.0885419922,283.880195 0.0785419922,285.252195 0.0405419922,295.459195 C5.36354199,293.309195 14.867542,282.391195 16.554542,268.489195 Z M173.402542,280.005195 C173.402542,271.213195 171.702542,262.771195 168.579542,254.916195 C166.910542,256.007195 164.671542,257.252195 163.204542,258.163195 C161.107542,259.465195 161.644542,259.124195 161.762542,261.345195 C161.878542,263.524195 162.445542,266.209195 161.886542,266.597195 C159.165542,268.429195 154.649542,265.532195 154.214542,268.835195 C153.988542,270.555195 153.749542,278.574195 154.816542,280.007195 C155.456542,280.865195 156.240542,281.056195 157.073542,281.059195 C158.155542,281.062195 159.475542,281.219195 160.523542,281.639195 C161.328542,281.962195 160.934542,282.280195 161.335542,283.329195 C161.871542,284.727195 162.570542,287.207195 162.810542,288.539195 C163.345542,291.494195 167.490542,299.562195 170.270542,300.966195 C171.493542,301.583195 172.429542,299.427195 173.496542,297.369195 C173.458542,286.665195 173.402542,281.716195 173.402542,280.005195 Z M11.106542,242.913195 C13.764542,247.113195 14.364542,253.951195 12.244542,260.968195 C9.96254199,268.516195 5.17254199,274.148195 0.261541992,275.772195 C0.508541992,272.284195 0.863541992,268.881195 1.53054199,265.430195 C3.24054199,256.593195 6.42654199,250.259195 11.106542,242.913195 L11.106542,242.913195 Z" id="Fill-8" fill="#93778C"></path>
                <path d="M28.403542,145.747195 C18.940542,143.440195 10.051542,129.574195 7.81554199,112.811195 C6.28154199,101.316195 10.729542,98.1841951 18.099542,97.7641951 C19.082542,115.293195 22.728542,131.622195 28.403542,145.747195" id="Fill-9" fill="#F49A6A"></path>
                <path d="M113.147542,243.016195 C106.230542,246.954195 96.960542,249.364195 86.769542,249.364195 C76.575542,249.364195 67.302542,246.953195 60.385542,243.012195 C58.763542,232.125195 56.962542,221.230195 54.985542,210.326195 L51.537542,125.828195 C75.023542,125.828195 98.508542,125.828195 121.993542,125.828195 L118.522542,210.463195 C116.554542,221.322195 114.762542,232.174195 113.147542,243.016195" id="Fill-10" fill="#F49A6A"></path>
                <path d="M145.135542,145.747195 C154.598542,143.440195 163.487542,129.574195 165.723542,112.811195 C167.257542,101.316195 162.809542,98.1841951 155.439542,97.7641951 C154.456542,115.293195 150.810542,131.622195 145.135542,145.747195" id="Fill-11" fill="#F49A6A"></path>
                <path d="M153.123542,58.7601951 C153.889542,68.2321951 155.704542,77.9791951 155.704542,88.1751951 C155.704542,147.899195 124.840542,196.315195 86.765542,196.315195 C48.692542,196.315195 17.826542,147.899195 17.826542,88.1751951 C17.826542,72.2931951 20.010542,57.2111951 23.930542,43.6261951 C44.326542,24.5731951 149.643542,15.6701951 153.123542,58.7601951" id="Fill-12" fill="#FAB385"></path>
                <path d="M145.285542,138.500195 C143.308542,144.444195 140.910542,148.724195 138.169542,154.659195 C134.825542,161.900195 132.219542,163.278195 125.714542,159.808195 C99.831542,143.039195 80.414542,141.272195 53.677542,156.272195 C51.298542,157.462195 48.886542,158.597195 46.544542,159.849195 C40.457542,163.103195 38.750542,162.003195 35.572542,155.373195 C33.106542,150.229195 30.865542,146.809195 28.974542,141.552195 C21.574542,120.975195 23.751542,99.1951951 22.917542,77.4691951 C22.742542,72.8981951 16.260542,79.9651951 16.119542,79.8631951 C16.249542,81.1041951 17.138542,95.6911951 18.526542,107.824195 C21.868542,137.037195 27.410542,177.947195 43.531542,203.034195 C47.460542,209.147195 50.965542,211.896195 54.338542,214.667195 C66.184542,224.401195 108.120542,224.083195 120.258542,215.428195 C146.450542,196.751195 153.705542,111.351195 157.600542,80.9881951 C157.104542,81.2001951 146.344542,73.5911951 149.028542,78.6511951 C154.109542,88.2301951 149.700542,125.226195 145.285542,138.500195 Z M106.276542,178.169195 C100.192542,178.068195 94.446542,176.561195 93.305542,172.551195 C92.520542,169.796195 90.927542,169.957195 87.946542,169.774195 C87.506542,169.801195 87.101542,169.821195 86.727542,169.842195 C86.352542,169.821195 85.947542,169.801195 85.507542,169.774195 C82.527542,169.957195 80.933542,169.796195 80.149542,172.551195 C78.898542,176.944195 72.122542,178.330195 65.428542,178.161195 C60.606542,178.040195 57.728542,176.399195 58.933542,171.644195 C59.869542,167.947195 61.606542,166.467195 65.393542,166.233195 C71.118542,165.879195 78.124542,164.413195 86.765542,161.260195 C93.549542,163.735195 99.325542,165.171195 104.264542,165.844195 C109.802542,166.600195 112.588542,167.173195 113.900542,171.644195 C115.819542,178.187195 112.501542,178.273195 106.276542,178.169195 L106.276542,178.169195 Z" id="Fill-13" fill="#7D5D48"></path>
                <path d="M22.868542,94.3591951 C20.861542,95.5801951 19.066542,97.2541951 16.846542,98.0211951 C14.629542,98.7871951 7.32454199,98.8011951 4.97954199,98.8591951 C-3.96945801,99.0791951 7.88354199,80.4101951 7.90154199,80.1441951 C11.115542,34.5141951 22.154542,-0.0948048969 86.765542,-2.84217094e-14 C151.377542,-0.0948048969 162.417542,34.5141951 165.630542,80.1441951 C165.648542,80.4101951 177.501542,99.0791951 168.552542,98.8591951 C166.207542,98.8011951 158.903542,98.7871951 156.685542,98.0211951 C154.465542,97.2541951 152.670542,95.5801951 150.663542,94.3591951 C134.866542,87.8271951 38.665542,87.8271951 22.868542,94.3591951" id="Fill-14" fill="#3F3F3F"></path>
                <path d="M24.036542,64.8501951 C18.709542,63.5411951 17.376542,62.5031951 17.619542,58.5511951 C18.119542,50.4491951 20.480542,45.3071951 21.882542,41.3871951 C31.977542,13.1691951 53.197542,4.9521951 82.086542,4.99601956 C133.750542,4.9181951 142.577542,32.7431951 145.147542,69.4261951 C145.576542,75.5551951 145.835542,74.7631951 137.706542,75.5501951 C136.613542,75.6551951 129.908542,75.4741951 120.188542,75.2141951 C110.834542,74.9641951 100.375542,47.2651951 87.749542,47.0561951 C80.158542,46.9301951 72.033542,62.5631951 64.692542,62.7371951 C43.004542,63.2521951 24.111542,64.8681951 24.036542,64.8501951" id="Fill-15" fill="#525252"></path>
                <path d="M147.278542,90.6681951 C157.030542,92.7411951 151.840542,88.1291951 145.568542,86.0441951 C143.408542,85.3251951 139.823542,83.6961951 132.758542,82.6981951 C117.417542,80.5341951 96.371542,79.6181951 86.172542,79.6281951 C61.122542,79.5491951 40.202542,82.2631951 27.619542,84.1391951 C19.860542,85.2951951 11.240542,93.6381951 14.213542,94.5191951 C15.112542,94.7861951 17.822542,93.2251951 21.136542,91.9621951 C24.740542,90.5881951 40.141542,88.8671951 45.042542,88.4461951 C52.453542,87.8081951 74.092542,87.2521951 83.169542,87.0261951 C90.922542,86.8321951 98.411542,86.7621951 105.170542,86.7741951 C114.956542,86.7901951 120.942542,87.7221951 125.419542,87.9331951 C133.893542,88.3321951 136.647542,88.4071951 147.278542,90.6681951" id="Fill-16" fill="#636363"></path>
                <path d="M10.524542,68.2461951 C28.574542,66.4471951 46.795542,65.2491951 65.203542,64.7081951 L65.203542,53.6511951 C46.549542,54.0701951 28.552542,55.1021951 10.302542,56.9301951 C9.25454199,57.0351951 9.04054199,57.3011951 8.82054199,57.7131951 C8.66054199,58.0111951 7.92354199,64.3391951 7.90454199,65.0181951 C7.85254199,66.8211951 8.11254199,67.7601951 8.32354199,68.1631951 C8.55154199,68.6011951 8.79954199,68.4171951 10.524542,68.2461951 Z M163.008542,68.2461951 C144.957542,66.4471951 126.736542,65.2491951 108.328542,64.7081951 L108.328542,53.6511951 C126.982542,54.0701951 144.979542,55.1021951 163.229542,56.9301951 C164.277542,57.0351951 164.492542,57.3011951 164.712542,57.7131951 C164.871542,58.0111951 165.608542,64.3391951 165.628542,65.0181951 C165.680542,66.8211951 165.419542,67.7601951 165.208542,68.1631951 C164.980542,68.6011951 164.733542,68.4171951 163.008542,68.2461951 L163.008542,68.2461951 Z" id="Fill-17" fill="#94744C"></path>
                <path d="M125.235542,30.5021951 C112.514542,28.8881951 100.835542,31.4201951 94.132542,36.5361951 C87.085542,41.9151951 86.851542,42.3841951 79.621542,36.7091951 C72.956542,31.4771951 61.159542,28.8701951 48.295542,30.5021951 C29.285542,32.9141951 18.119542,42.0871951 19.835542,58.4441951 C22.644542,85.2501951 60.668542,85.8101951 78.440542,70.6801951 C81.498542,68.0761951 83.360542,64.7861951 84.439542,61.1171951 C84.698542,60.2331951 85.589542,59.2811951 86.829542,59.4731951 C87.515542,59.5791951 88.721542,59.9481951 89.008542,61.0771951 C89.948542,64.7691951 92.010542,68.0661951 95.091542,70.6791951 C112.889542,85.7781951 150.886542,85.2501951 153.697542,58.4441951 C155.411542,42.0861951 144.246542,32.9151951 125.235542,30.5021951" id="Fill-18" fill="#AA885D"></path>
                <path d="M124.120542,36.6231951 C109.802542,34.8051951 97.234542,39.9611951 96.313542,48.1691951 C95.508542,55.3341951 96.187542,62.4281951 101.417542,66.8811951 C114.802542,78.2761951 143.438542,77.8551951 145.555542,57.6661951 C146.846542,45.3471951 138.437542,38.4391951 124.120542,36.6231951 Z M49.411542,36.6231951 C63.730542,34.8051951 76.297542,39.9611951 77.219542,48.1691951 C78.023542,55.3341951 77.344542,62.4291951 72.114542,66.8811951 C58.730542,78.2761951 30.093542,77.8541951 27.977542,57.6661951 C26.685542,45.3471951 35.094542,38.4401951 49.411542,36.6231951 L49.411542,36.6231951 Z" id="Fill-19" fill="#262626"></path>
                <path d="M101.759542,54.5061951 C108.232542,56.1491951 117.935542,53.8491951 122.599542,49.5021951 C128.830542,43.6971951 129.140542,38.9081951 119.837542,38.8191951 C114.101542,38.7641951 106.006542,39.9511951 101.961542,42.8461951 C98.795542,45.1111951 96.687542,53.2201951 101.759542,54.5061951 Z M48.851542,39.0511951 C59.952542,37.4951951 77.818542,43.5021951 65.746542,55.9281951 C58.999542,62.8721951 42.734542,65.6231951 34.867542,61.1801951 C30.756542,58.8591951 30.669542,56.5421951 31.829542,51.5931951 C33.498542,44.4701951 39.679542,40.3371951 48.851542,39.0511951 L48.851542,39.0511951 Z" id="Fill-20" fill="#393939"></path>
                <path d="M29.083542,261.969195 C28.651542,251.530195 26.512542,244.267195 25.017542,238.905195 C24.805542,238.149195 21.924542,230.784195 24.200542,230.185195 C26.778542,227.424195 41.461542,216.761195 47.165542,214.070195 C50.098542,212.686195 50.335542,211.601195 51.172542,214.579195 C52.961542,220.949195 52.765542,252.623195 40.386542,232.221195 C34.892542,223.167195 35.847542,232.623195 36.314542,235.975195 C37.154542,241.997195 36.561542,262.804195 34.235542,266.770195 C32.060542,270.476195 29.430542,270.342195 29.083542,261.969195" id="Fill-21" fill="#3F3F3F"></path>
            </g>
        </g>
    </g>
</svg>