<?xml version="1.0" encoding="UTF-8"?>
<svg width="197px" height="347px" viewBox="0 0 197 347" version="1.1" xmlns="http://www.w3.org/2000/svg" xmlns:xlink="http://www.w3.org/1999/xlink">
    <!-- Generator: Sketch 56.3 (81716) - https://sketch.com -->
    <title>dapper</title>
    <desc>Created with Sketch.</desc>
    <g id="all" stroke="none" stroke-width="1" fill="none" fill-rule="evenodd">
        <g id="iStock-943542898" transform="translate(-312.000000, -496.000000)">
            <g id="dapper" transform="translate(312.066045, 496.420741)">
                <path d="M31.8609546,66.409259 C44.8639546,66.793259 73.4059546,76.348259 73.4059546,82.354259 C73.4059546,88.360259 36.8639546,84.168259 23.8609546,83.784259 C10.8589546,83.400259 0.191954618,77.094259 0.191954618,71.088259 C0.191954618,65.082259 18.8589546,66.025259 31.8609546,66.409259" id="Fill-218" fill="#684835"></path>
                <path d="M169.592955,66.104259 C181.915955,66.104259 191.905955,70.973259 191.905955,76.979259 C191.905955,82.985259 181.915955,87.854259 169.592955,87.854259 C157.270955,87.854259 147.280955,82.985259 147.280955,76.979259 C147.280955,70.973259 157.270955,66.104259 169.592955,66.104259" id="Fill-219" fill="#684835"></path>
                <path d="M40.6649546,143.179259 C31.2019546,140.872259 22.3129546,127.005259 20.0769546,110.243259 C18.5429546,98.748259 24.6789546,95.428259 32.0489546,95.008259 C33.0309546,112.537259 34.9899546,129.054259 40.6649546,143.179259 Z M157.396955,143.179259 C166.859955,140.872259 175.748955,127.005259 177.984955,110.243259 C179.518955,98.748259 173.069955,95.616259 165.699955,95.196259 C164.717955,112.725259 163.071955,129.054259 157.396955,143.179259 L157.396955,143.179259 Z" id="Fill-220" fill="#F49A6A"></path>
                <path d="M134.258955,126.524259 C133.099955,154.775259 131.940955,183.026259 130.782955,211.276259 C130.270955,223.775259 117.056955,273.291259 100.545955,273.078944 C84.4229546,272.870259 67.7439546,223.113259 67.2579546,211.209259 C66.1069546,182.981259 64.9549546,154.753259 63.8029546,126.524259 C87.2889546,126.524259 110.773955,126.524259 134.258955,126.524259" id="Fill-221" fill="#F49A6A"></path>
                <path d="M165.813955,84.472259 C165.813955,96.240259 166.812955,108.226259 164.652955,118.830259 C160.731955,138.076259 156.328955,158.833259 146.691955,171.621259 C123.033955,203.011259 75.0579546,201.467259 51.7689546,170.618259 C42.3359546,158.123259 37.6789546,138.898259 33.6919546,120.187259 C31.3499546,109.194259 31.4989546,96.649259 31.4989546,84.378259 C31.4989546,13.774259 165.813955,13.868259 165.813955,84.472259" id="Fill-222" fill="#FAB385"></path>
                <path d="M130.556955,212.243259 C130.178955,212.548259 129.812955,212.935259 129.458955,213.412259 C127.969955,220.028259 118.520955,226.994259 110.506955,233.309259 C106.621955,241.533259 104.591955,249.450259 100.791955,255.701259 C98.7529546,259.055259 99.1429546,259.091259 96.9789546,255.725259 C93.3589546,250.094259 90.2899546,239.755259 87.1259546,233.531259 C81.4469546,228.920259 73.3679546,224.633259 69.0349546,218.725259 C73.9959546,237.392259 83.3539546,255.787259 90.3819546,274.401259 C96.3639546,290.250259 99.6839546,290.484259 106.335955,274.537259 C114.880955,254.050259 126.308955,232.586259 130.556955,212.243259" id="Fill-223" fill="#D1D1BE"></path>
                <path d="M67.0579546,209.958259 C44.4049546,217.864259 26.4469546,233.918259 17.8779546,254.002259 C14.3329546,262.309259 12.5109546,271.306259 12.5109546,280.701259 C12.5109546,283.969259 12.3069546,321.567259 12.4109546,325.177259 C12.7159546,335.719259 15.5439546,346.006259 33.9209546,346.006259 L164.141955,346.006259 C182.518955,346.006259 185.229955,335.719259 185.533955,325.177259 C185.637955,321.567259 185.433955,283.969259 185.433955,280.701259 C185.433955,271.754259 183.909955,263.168259 180.681955,255.195259 C172.322955,234.555259 154.104955,218.020259 131.004955,209.958259 C127.171955,230.975259 115.201955,253.282259 106.335955,274.537259 C99.6839546,290.484259 96.3639546,290.250259 90.3819546,274.401259 C82.2569546,252.880259 71.0149546,231.652259 67.0579546,209.958259" id="Fill-224" fill="#875C39"></path>
                <path d="M67.0579546,209.958259 C63.1409546,211.325259 59.3659546,212.936259 55.7549546,214.768259 L90.2059546,283.245259 C96.3209546,295.399259 103.841955,288.589259 108.002955,280.464259 L141.780955,214.504259 C138.329955,212.781259 134.730955,211.259259 131.004955,209.958259 C127.171955,230.975259 115.201955,253.282259 106.335955,274.537259 C99.6839546,290.484259 96.3639546,290.250259 90.3819546,274.401259 C82.2569546,252.880259 71.0149546,231.652259 67.0579546,209.958259" id="Fill-225" fill="#B4894C"></path>
                <path d="M185.768955,280.701259 C192.393955,262.395259 181.184955,246.016259 166.717955,233.207259 C162.472955,246.023259 160.101955,260.304259 160.101955,275.363259 C160.101955,277.481259 160.060955,313.513259 160.028955,346.006259 L164.089955,346.006259 C182.520955,346.006259 185.768955,335.743259 185.768955,325.188259 L185.768955,280.701259 Z M30.7319546,233.887259 C12.9759546,240.790259 5.78295462,255.259259 12.3089546,279.750259 C12.3019546,280.066259 12.2969546,280.383259 12.2949546,280.701259 L12.2949546,325.177259 C12.2709546,335.723259 15.5439546,346.006259 33.9209546,346.006259 L38.0329546,346.006259 C38.0019546,313.513259 37.9619546,277.481259 37.9619546,275.363259 C37.9619546,260.304259 35.5889546,246.023259 31.3449546,233.206259 C31.1389546,233.432259 30.9359546,233.659259 30.7319546,233.887259 L30.7319546,233.887259 Z" id="Fill-226" fill="#D1D1BE"></path>
                <path d="M86.7889546,233.301259 C75.9739546,224.796259 71.9979546,218.118259 67.1919546,208.898259 C65.7319546,206.098259 61.4179546,209.723259 60.9139546,211.638259 C58.4229546,221.107259 54.6909546,230.434259 52.9769546,240.237259 C50.6179546,253.723259 47.2299546,261.718259 59.4789546,249.767259 C65.6479546,243.748259 78.4349546,237.246259 86.7889546,233.301259" id="Fill-227" fill="#E6E6C9"></path>
                <polyline id="Fill-228" fill="#452A21" points="157.973955 262.006259 140.974955 254.131259 52.2219546 346.006259 78.7849546 346.006259 157.973955 262.006259"></polyline>
                <path d="M135.742955,238.347259 C142.047955,219.262259 139.269955,199.018259 156.652955,210.346259 C172.187955,220.470259 183.482955,230.737259 190.916955,243.751259 C204.941955,268.307259 194.081955,261.631259 160.680955,271.996259 C136.556955,279.483259 130.028955,255.643259 135.742955,238.347259" id="Fill-229" fill="#542D20"></path>
                <path d="M115.376955,272.751259 L125.150955,262.041259 C126.541955,260.518259 128.925955,260.409259 130.448955,261.799259 L147.068955,276.966259 C148.591955,278.356259 148.699955,280.741259 147.310955,282.263259 L137.536955,292.974259 C136.146955,294.497259 133.762955,294.606259 132.238955,293.216259 L115.618955,278.049259 C114.095955,276.658259 113.986955,274.275259 115.376955,272.751259 Z M120.431955,272.668259 L125.529955,267.082259 C126.398955,266.130259 128.050955,266.210259 129.199955,267.259259 L141.744955,278.707259 C142.894955,279.756259 143.124955,281.395259 142.255955,282.347259 L137.157955,287.933259 C136.289955,288.884259 134.637955,288.805259 133.487955,287.756259 L120.942955,276.307259 C119.792955,275.258259 119.562955,273.621259 120.431955,272.668259 L120.431955,272.668259 Z" id="Fill-230" fill="#E8B003"></path>
                <path d="M32.4059546,115.984259 C37.5239546,107.962259 37.0749546,94.454259 42.0439546,90.680259 C63.6339546,87.285259 94.9679546,94.932259 122.568955,68.620259 C131.446955,88.036259 137.215955,83.204259 154.327955,92.292259 C159.118955,94.837259 161.406955,106.320259 166.014955,116.574259 C171.656955,85.009259 165.469955,63.144259 158.707955,50.183259 C154.918955,19.779259 92.6789546,-2.60274098 52.7539546,34.436259 C41.0409546,36.743259 37.6459546,46.433259 34.6939546,58.724259 C30.5959546,75.794259 29.9649546,98.231259 32.4059546,115.984259" id="Fill-231" fill="#B35A03"></path>
                <path d="M31.4659546,2.25325902 C75.0719546,-0.987740983 121.851955,-0.504740983 164.125955,2.25325902 C166.310955,2.39625902 168.106955,4.11025902 168.106955,6.37925902 C168.106955,26.441259 166.106955,46.503259 166.106955,66.566259 C166.106955,68.834259 164.315955,70.691259 162.125955,70.691259 C119.238955,70.691259 76.3529546,70.691259 33.4659546,70.691259 C31.2759546,70.691259 29.4849546,68.834259 29.4849546,66.566259 C29.4849546,46.503259 27.4849546,26.441259 27.4849546,6.37925902 C27.4849546,4.11025902 29.2829546,2.41625902 31.4659546,2.25325902" id="Fill-232" fill="#74503B"></path>
                <path d="M40.2999546,1.65025902 C44.6029546,1.38225902 48.9319546,1.14825902 53.2789546,0.947259017 L55.3309546,70.691259 L42.3309546,70.691259 L40.2999546,1.65025902 Z M73.6109546,0.249259017 C77.9399546,0.150259017 82.2749546,0.081259017 86.6099546,0.041259017 L87.1199546,70.691259 L74.1199546,70.691259 L73.6109546,0.249259017 Z M108.981955,0.089259017 C113.328955,0.146259017 117.663955,0.231259017 121.979955,0.341259017 L121.471955,70.691259 L108.471955,70.691259 L108.981955,0.089259017 Z M142.309955,1.05625902 C146.670955,1.25125902 151.000955,1.47125902 155.289955,1.71525902 L153.260955,70.691259 L140.260955,70.691259 L142.309955,1.05625902 L142.309955,1.05625902 Z" id="Fill-233" fill="#5E4130"></path>
                <path d="M166.818955,42.331259 C166.430955,50.409259 166.106955,58.487259 166.106955,66.566259 C166.106955,68.834259 164.315955,70.691259 162.125955,70.691259 C119.238955,70.691259 76.3529546,70.691259 33.4659546,70.691259 C31.2759546,70.691259 29.4849546,68.834259 29.4849546,66.566259 C29.4849546,58.470259 29.1599546,50.375259 28.7709546,42.279259 C74.3369546,39.722259 122.477955,40.085259 166.818955,42.331259" id="Fill-234" fill="#AA8842"></path>
                <path d="M14.0339546,64.974259 C39.4309546,62.371259 68.2469546,68.449259 97.3529546,69.601259 C126.432955,70.752259 153.538955,63.568259 181.654955,67.786259 C189.486955,68.962259 192.479955,73.411259 191.879955,76.186259 C191.440955,78.225259 190.778955,77.207259 185.435955,75.599259 C159.061955,67.659259 129.501955,79.706259 101.106955,79.982259 C73.0179546,80.256259 48.2569546,67.224259 15.5329546,71.599259 C4.74095462,73.041259 0.260954618,73.624259 0.00995461833,70.924259 C-0.257045382,68.044259 4.85795462,65.914259 14.0339546,64.974259" id="Fill-235" fill="#74503B"></path>
                <path d="M70.6089546,86.085259 C79.2899546,86.085259 86.7899546,91.139259 90.3299546,98.465259 C96.1039546,96.981259 102.356955,97.034259 107.625955,98.692259 C111.118955,91.244259 118.682955,86.085259 127.453955,86.085259 C139.543955,86.085259 149.344955,95.886259 149.344955,107.976259 C149.344955,120.066259 139.543955,129.867259 127.453955,129.867259 C115.363955,129.867259 105.562955,120.066259 105.562955,107.976259 C105.562955,106.668259 105.677955,105.386259 105.897955,104.141259 C101.447955,102.789259 96.6219546,102.811259 92.1229546,103.924259 C92.3689546,105.237259 92.4989546,106.592259 92.4989546,107.976259 C92.4989546,120.066259 82.6979546,129.867259 70.6089546,129.867259 C58.5179546,129.867259 48.7169546,120.066259 48.7169546,107.976259 C48.7169546,95.886259 58.5179546,86.085259 70.6089546,86.085259" id="Fill-236" fill="#AA8842"></path>
                <path d="M70.6089546,90.873259 C80.0539546,90.873259 87.7129546,98.530259 87.7129546,107.976259 C87.7129546,117.423259 80.0539546,125.081259 70.6089546,125.081259 C61.1619546,125.081259 53.5039546,117.423259 53.5039546,107.976259 C53.5039546,98.530259 61.1619546,90.873259 70.6089546,90.873259" id="Fill-237" fill="#3F3F3F"></path>
                <path d="M127.453955,90.873259 C136.899955,90.873259 144.557955,98.530259 144.557955,107.976259 C144.557955,117.423259 136.899955,125.081259 127.453955,125.081259 C118.007955,125.081259 110.349955,117.423259 110.349955,107.976259 C110.349955,98.530259 118.007955,90.873259 127.453955,90.873259" id="Fill-238" fill="#3F3F3F"></path>
                <path d="M132.714955,99.027259 C128.879955,101.264259 123.727955,103.207259 117.804955,104.914259 C115.377955,105.613259 113.901955,106.065259 113.504955,105.452259 C113.169955,104.931259 113.606955,103.646259 114.894955,101.098259 C117.216955,96.505259 121.979955,93.356259 127.477955,93.356259 C129.233955,93.356259 130.910955,93.689259 132.464955,94.264259 C135.667955,95.453259 135.405955,97.457259 132.714955,99.027259 Z M71.1709546,94.186259 C79.3209546,94.186259 85.5029546,100.635259 85.9279546,108.564259 C86.0219546,110.311259 83.9649546,110.245259 80.9569546,110.938259 C74.3399546,112.465259 65.8459546,114.300259 59.8609546,114.543259 C57.0489546,114.657259 56.4129546,110.752259 56.4129546,108.564259 C56.4129546,100.624259 63.0209546,94.186259 71.1709546,94.186259 L71.1709546,94.186259 Z" id="Fill-239" fill="#525252"></path>
                <path d="M158.808955,215.065259 C169.990955,222.352259 178.122955,229.744259 183.473955,239.112259 C193.570955,256.789259 191.377955,250.483259 167.332955,257.945259 C156.985955,261.156259 153.276955,256.585259 151.323955,250.036259 C151.182955,249.562259 147.904955,236.314259 146.783955,227.583259 C146.161955,222.740259 145.410955,215.092259 148.944955,212.852259 C150.852955,211.643259 155.138955,212.674259 158.808955,215.065259" id="Fill-240" fill="#633528"></path>
                <path d="M110.507955,233.301259 C121.322955,224.796259 125.299955,218.118259 130.105955,208.898259 C131.565955,206.098259 135.878955,209.723259 136.382955,211.638259 C138.874955,221.107259 142.606955,230.434259 144.320955,240.237259 C146.678955,253.723259 150.067955,261.718259 137.818955,249.767259 C131.649955,243.748259 118.862955,237.246259 110.507955,233.301259" id="Fill-241" fill="#E6E6C9"></path>
            </g>
        </g>
    </g>
</svg>