<?xml version="1.0" encoding="UTF-8"?>
<svg width="174px" height="333px" viewBox="0 0 174 333" version="1.1" xmlns="http://www.w3.org/2000/svg" xmlns:xlink="http://www.w3.org/1999/xlink">
    <!-- Generator: Sketch 56.3 (81716) - https://sketch.com -->
    <title>hippy</title>
    <desc>Created with Sketch.</desc>
    <g id="all" stroke="none" stroke-width="1" fill="none" fill-rule="evenodd">
        <g id="iStock-943542898" transform="translate(-78.000000, -103.000000)">
            <g id="hippy" transform="translate(78.243458, 103.063078)">
                <path d="M21.674542,124.596922 C63.507542,124.596922 105.341542,124.596922 147.174542,124.596922 C147.174542,151.930922 140.549542,181.763922 140.549542,209.097922 C104.133542,211.097922 74.341542,210.597922 37.924542,212.597922 C32.507542,183.263922 27.091542,153.930922 21.674542,124.596922" id="Fill-85" fill="#3B2517"></path>
                <path d="M121.994542,113.145922 C120.835542,141.396922 119.677542,169.646922 118.518542,197.897922 C118.006542,210.396922 104.042542,223.912922 87.532542,223.699922 C71.408542,223.490922 55.478542,209.734922 54.993542,197.830922 C53.842542,169.602922 52.690542,141.373922 51.538542,113.145922 C75.024542,113.145922 98.509542,113.145922 121.994542,113.145922" id="Fill-86" fill="#F49A6A"></path>
                <path d="M149.602542,27.2009221 C153.522542,40.7859221 155.705542,55.8679221 155.705542,71.7499221 C155.705542,83.5179221 154.548542,94.8479221 152.388542,105.451922 C148.467542,124.696922 144.064542,145.454922 134.427542,158.241922 C110.769542,189.632922 62.793542,188.087922 39.504542,157.239922 C30.071542,144.744922 25.414542,125.519922 21.428542,106.808922 C19.085542,95.8149221 17.827542,84.0209221 17.827542,71.7499221 C17.827542,55.8679221 20.011542,40.7859221 23.930542,27.2009221 L149.602542,27.2009221" id="Fill-87" fill="#FAB385"></path>
                <path d="M153.020542,23.9699221 C153.930542,30.3169221 152.881542,46.9739221 157.010542,56.5289221 C163.753542,83.9259221 165.477542,86.2159221 165.362542,116.120922 C170.630542,137.775922 170.269542,176.813922 164.666542,204.860922 C161.459542,220.912922 156.532542,226.867922 149.961542,230.401922 C145.098542,233.017922 152.646542,217.112922 145.191542,215.998922 C137.348542,217.254922 138.533542,230.174922 135.037542,207.576922 C131.314542,183.504922 141.116542,173.332922 143.854542,154.358922 C145.767542,141.103922 147.283542,127.579922 147.775542,114.483922 C148.067542,106.714922 145.035542,86.9529221 144.110542,79.4699221 C125.943542,78.1619221 118.294542,68.8459221 108.485542,60.1279221 C106.117542,61.4029221 103.318542,62.4009221 100.234542,63.0359221 C100.341542,63.4539221 100.007542,63.5529221 99.092542,63.2519221 C98.887542,63.2879221 98.681542,63.3209221 98.475542,63.3539221 C93.520542,67.7199221 47.005542,79.7779221 32.303542,76.4039221 C21.906542,112.461922 31.619542,152.033922 35.207542,187.345922 C36.514542,195.922922 39.832542,204.533922 42.743542,211.574922 C46.796542,221.374922 41.527542,220.690922 39.269542,219.592922 C37.240542,218.605922 37.533542,212.116922 32.091542,211.287922 C17.848542,205.019922 6.95754199,184.511922 13.113542,127.571922 C11.147542,111.920922 11.703542,91.8969221 17.605542,68.5679221 C18.163542,64.7729221 19.916542,66.3749221 20.144542,64.3499221 C20.788542,58.6369221 17.004542,43.2799221 19.243542,39.9219221 C14.467542,31.1019221 21.386542,24.5309221 30.509542,15.7069221 C40.527542,6.0169221 59.124542,1.3809221 72.048542,0.264922101 C82.301542,-0.620077899 98.566542,0.794922101 101.007542,3.2789221 C119.496542,-2.3050779 149.903542,4.8739221 153.020542,23.9699221" id="Fill-88" fill="#50331F"></path>
                <path d="M18.725542,69.0499221 C64.664542,57.1229221 112.409542,57.8389221 157.027542,56.9139221 C157.804542,56.8969221 158.356542,56.0679221 158.265542,55.2489221 C157.168542,45.3169221 156.071542,35.3849221 154.973542,25.4529221 C154.883542,24.6329221 154.182542,24.1809221 153.406542,24.1379221 C111.961542,21.8629221 68.577542,22.7459221 17.460542,36.5249221 C16.706542,36.7289221 16.131542,37.3709221 16.221542,38.1899221 C17.318542,48.1219221 16.061542,57.8039221 17.158542,67.7359221 C17.248542,68.5549221 17.971542,69.2469221 18.725542,69.0499221" id="Fill-89" fill="#FFCF00"></path>
                <path d="M157.939542,53.3889221 L154.973542,25.4529221 C154.887542,24.6329221 154.182542,24.1799221 153.406542,24.1379221 C132.403542,22.9849221 110.901542,22.6439221 88.149542,24.3799221 C95.504542,27.4929221 103.374542,28.2819221 105.332542,28.8629221 C106.514542,29.2129221 122.621542,30.8569221 111.705542,34.1489221 C102.235542,37.0049221 107.070542,39.5929221 118.689542,39.9489221 C126.863542,40.1989221 150.172542,41.8169221 141.420542,43.1509221 C130.457542,44.8209221 124.232542,48.9299221 140.895542,51.3989221 C146.613542,52.2469221 152.336542,53.1529221 157.939542,53.3889221" id="Fill-90" fill="#FF8759"></path>
                <path d="M18.726542,69.0499221 C47.940542,61.4649221 77.885542,58.9939221 107.293542,57.9609221 C98.311542,51.9149221 84.586542,52.1469221 81.852542,51.6329221 C80.643542,51.4059221 64.457542,51.4239221 75.004542,47.0279221 C84.154542,43.2109221 79.191542,42.1289221 67.595542,42.9689221 C56.540542,43.7699221 44.407542,46.1579221 39.343542,46.1949221 C29.947542,46.2639221 41.985542,41.6299221 44.322542,41.0249221 C55.070542,38.2349221 61.586542,33.0009221 44.844542,34.8089221 C34.707542,35.9039221 26.554542,36.3489221 16.015542,38.3769221 C16.592542,47.2009221 16.178542,58.8689221 17.158542,67.7359221 C17.248542,68.5549221 17.971542,69.2469221 18.726542,69.0499221" id="Fill-91" fill="#A7879A"></path>
                <path d="M173.402542,267.341922 C173.402542,225.316922 134.614542,191.247922 86.766542,191.247922 C38.918542,191.247922 0.129541992,225.316922 0.129541992,267.341922 C0.129541992,270.610922 -0.0744580078,308.207922 0.0295419922,311.818922 C0.334541992,322.360922 3.27854199,332.646922 21.656542,332.646922 L151.825542,332.646922 C170.256542,332.646922 173.201542,322.379922 173.503542,311.828922 C173.607542,308.218922 173.402542,270.618922 173.402542,267.341922" id="Fill-92" fill="#F49A6A"></path>
                <path d="M173.402542,267.322922 C173.402542,242.792922 160.185542,220.978922 139.668542,207.062922 C138.440542,221.834922 124.857542,189.686922 117.194542,200.033922 C115.705542,206.649922 106.115542,218.318922 98.101542,224.633922 C96.009542,228.362922 94.679542,237.014922 93.477542,245.839922 C90.577542,267.123922 88.415542,289.407922 78.078542,246.029922 C77.036542,241.658922 74.471542,226.461922 73.297542,224.151922 C66.152542,218.349922 55.379542,208.038922 54.825542,200.819922 C53.990542,199.564922 53.014542,198.978922 51.945542,198.882922 C44.784542,198.237922 33.442542,219.511922 32.348542,208.114922 C12.699542,222.064922 0.129541992,243.402922 0.129541992,267.322922 C0.129541992,270.589922 -0.0744580078,308.188922 0.0295419922,311.797922 C0.334541992,322.340922 3.27854199,332.626922 21.656542,332.626922 L151.825542,332.626922 C170.256542,332.626922 173.201542,322.359922 173.503542,311.809922 C173.607542,308.199922 173.402542,270.598922 173.402542,267.322922" id="Fill-93" fill="#E6E6C9"></path>
                <path d="M54.792542,196.580922 C22.770542,207.754922 0.129541992,235.215922 0.129541992,267.322922 C0.129541992,270.589922 -0.0744580078,308.188922 0.0295419922,311.797922 C0.334541992,322.340922 3.27854199,332.626922 21.656542,332.626922 L70.407542,332.626922 C68.297542,287.425922 63.091542,242.076922 54.792542,196.580922 Z M118.740542,196.580922 C150.763542,207.754922 173.403542,235.215922 173.403542,267.322922 C173.403542,270.589922 173.608542,308.188922 173.503542,311.797922 C173.199542,322.340922 170.254542,332.626922 151.877542,332.626922 L103.125542,332.626922 C105.236542,287.425922 110.441542,242.076922 118.740542,196.580922 L118.740542,196.580922 Z" id="Fill-94" fill="#826235"></path>
                <path d="M173.402542,267.322922 C173.402542,249.355922 166.308542,232.846922 154.453542,219.828922 C150.208542,232.644922 147.837542,246.925922 147.837542,261.984922 C147.837542,264.102922 147.796542,300.134922 147.764542,332.626922 L151.825542,332.626922 C170.256542,332.626922 173.201542,322.359922 173.503542,311.809922 C173.607542,308.199922 173.402542,270.598922 173.402542,267.322922 Z M19.079542,219.827922 C7.22354199,232.845922 0.129541992,249.354922 0.129541992,267.322922 C0.129541992,270.589922 -0.0744580078,308.188922 0.0295419922,311.797922 C0.334541992,322.340922 3.27854199,332.626922 21.656542,332.626922 L25.768542,332.626922 C25.737542,300.134922 25.696542,264.103922 25.696542,261.984922 C25.696542,246.925922 23.324542,232.644922 19.079542,219.827922 L19.079542,219.827922 Z" id="Fill-95" fill="#E6E6C9"></path>
                <path d="M127.896542,271.535922 C136.357542,272.253922 142.633542,279.695922 141.914542,288.156922 C141.196542,296.616922 133.754542,302.893922 125.293542,302.174922 C116.833542,301.455922 110.556542,294.013922 111.275542,285.553922 C111.994542,277.092922 119.435542,270.816922 127.896542,271.535922 Z M128.930542,285.963922 L136.759542,293.296922 C137.765542,291.713922 138.414542,289.871922 138.584542,287.873922 C139.081542,282.018922 135.298542,276.788922 129.838542,275.266922 L128.930542,285.963922 Z M134.376542,296.181922 L128.525542,290.724922 L127.837542,298.823922 C130.066542,298.594922 132.659542,297.480922 134.376542,296.181922 Z M124.039542,290.343922 L117.412542,294.772922 C118.885542,296.342922 121.193542,297.841922 123.352542,298.442922 L124.039542,290.343922 Z M115.489542,291.489922 L124.443542,285.583922 L125.352542,274.886922 C119.714542,275.464922 115.103542,279.981922 114.606542,285.836922 C114.436542,287.834922 114.765542,289.759922 115.489542,291.489922 L115.489542,291.489922 Z" id="Fill-96" fill="#FFCF00"></path>
                <path d="M58.046542,180.048922 C56.322542,176.070922 55.563542,171.376922 55.282542,170.203922 C55.205542,169.879922 59.356542,142.271922 65.661542,140.629922 C76.796542,137.730922 82.566542,136.194922 87.241542,136.039922 C92.447542,135.865922 96.171542,138.000922 108.377542,141.230922 C113.893542,142.689922 118.255542,170.807922 118.249548,171.052922 C118.227542,171.923922 117.820542,174.106922 117.185542,176.865922 C114.587542,188.155922 104.592542,194.022922 98.270542,197.762922 C82.873542,206.869922 65.590542,197.446922 58.046542,180.048922 Z M73.259542,167.858922 C79.357542,168.593922 79.285542,164.423922 81.231542,158.092922 C82.172542,155.033922 84.080542,155.213922 87.652542,155.010922 C91.223542,155.213922 93.756542,155.103922 94.697542,158.162922 C96.644542,164.492922 96.779542,168.316922 102.877542,167.581922 C109.484542,166.784922 110.081542,165.970922 109.327542,159.450922 L108.614542,153.276922 C108.270542,150.301922 109.196542,150.271922 105.977542,149.763922 C97.261542,150.103922 91.841542,145.494922 87.537542,144.718922 C83.741542,145.501922 79.596542,150.243922 69.951542,148.713922 C66.733542,149.221922 65.776542,150.293922 65.514542,153.276922 L64.805542,159.398922 C64.183542,166.477922 65.211542,166.887922 73.259542,167.858922 L73.259542,167.858922 Z" id="Fill-97" fill="#50331F"></path>
            </g>
        </g>
    </g>
</svg>