<?xml version="1.0" encoding="UTF-8"?>
<svg width="174px" height="341px" viewBox="0 0 174 341" version="1.1" xmlns="http://www.w3.org/2000/svg" xmlns:xlink="http://www.w3.org/1999/xlink">
    <!-- Generator: Sketch 56.3 (81716) - https://sketch.com -->
    <title>hipster</title>
    <desc>Created with Sketch.</desc>
    <g id="all" stroke="none" stroke-width="1" fill="none" fill-rule="evenodd">
        <g id="iStock-943542898" transform="translate(-78.000000, -911.000000)">
            <g id="hipster" transform="translate(78.243401, 911.406700)">
                <path d="M173.402599,275.2163 C173.402599,233.1903 134.614599,199.1213 86.7665992,199.1213 C38.9185992,199.1213 0.129599238,233.1903 0.129599238,275.2163 C0.129599238,278.4843 -0.0744007619,316.0823 0.0295992381,319.6923 C0.334599238,330.2353 3.27859924,340.5213 21.6565992,340.5213 L151.825599,340.5213 C170.256599,340.5213 173.201599,330.2533 173.504599,319.7023 C173.607599,316.0933 173.402599,278.4923 173.402599,275.2163" id="Fill-254" fill="#D4461A"></path>
                <path d="M163.266599,239.4783 C159.072599,232.5653 153.698599,226.2903 147.381599,220.8553 L147.381599,340.5213 L151.825599,340.5213 C156.608599,340.5213 160.345599,339.8283 163.266599,338.6203 L163.266599,239.4783 Z M128.987599,208.7603 C123.979599,206.2993 118.662599,204.2633 113.102599,202.7063 L113.102599,340.5213 L128.987599,340.5213 L128.987599,208.7603 Z M94.7095992,199.4433 C92.0935992,199.2343 89.4455992,199.1213 86.7665992,199.1213 C84.0885992,199.1213 81.4405992,199.2343 78.8245992,199.4433 L78.8245992,340.5213 L94.7095992,340.5213 L94.7095992,199.4433 Z M60.4305992,202.7063 C54.8705992,204.2623 49.5545992,206.2993 44.5455992,208.7603 L44.5455992,340.5213 L60.4305992,340.5213 L60.4305992,202.7063 Z M26.1515992,220.8543 C19.8345992,226.2893 14.4625992,232.5653 10.2665992,239.4773 L10.2665992,338.6253 C13.1775992,339.8303 16.8995992,340.5213 21.6565992,340.5213 L26.1515992,340.5213 L26.1515992,220.8543 L26.1515992,220.8543 Z" id="Fill-255" fill="#BA2C00"></path>
                <path d="M173.402599,275.2163 C173.402599,274.3243 173.378599,273.4373 173.344599,272.5523 L0.188599238,272.5523 C0.154599238,273.4373 0.129599238,274.3243 0.129599238,275.2163 C0.129599238,276.3653 0.104599238,281.7653 0.0765992381,288.4373 L173.456599,288.4373 C173.428599,281.7663 173.402599,276.3683 173.402599,275.2163 Z M170.039599,254.1593 C168.211599,248.5733 165.673599,243.2523 162.518599,238.2733 L11.0135992,238.2733 C7.85959924,243.2523 5.32159924,248.5733 3.49259924,254.1593 L170.039599,254.1593 Z M146.230599,219.8803 C137.961599,213.0243 128.158599,207.5833 117.320599,203.9943 L56.2125992,203.9943 C45.3745992,207.5833 35.5705992,213.0243 27.3025992,219.8803 L146.230599,219.8803 Z M0.0105992381,306.8303 C-0.0054007619,313.2653 -0.0064007619,318.4603 0.0295992381,319.6923 C0.0595992381,320.7053 0.113599238,321.7163 0.202599238,322.7163 L173.333599,322.7163 C173.422599,321.7203 173.475599,320.7123 173.504599,319.7023 C173.539599,318.4703 173.539599,313.2713 173.522599,306.8303 L0.0105992381,306.8303 L0.0105992381,306.8303 Z" id="Fill-256" fill="#BA2C00"></path>
                <path d="M162.965599,238.9873 L162.954599,238.9693 C162.810599,238.7373 162.665599,238.5053 162.518599,238.2733 L147.381599,238.2733 L147.381599,254.1593 L163.266599,254.1593 L163.266599,239.4793 L162.965599,238.9873 Z M147.381599,288.4373 L163.266599,288.4373 L163.266599,272.5523 L147.381599,272.5523 L147.381599,288.4373 Z M147.381599,322.7163 L163.266599,322.7163 L163.266599,306.8313 L147.381599,306.8313 L147.381599,322.7163 Z M113.102599,288.4373 L128.987599,288.4373 L128.987599,272.5523 L113.102599,272.5523 L113.102599,288.4373 Z M78.8245992,288.4373 L94.7095992,288.4373 L94.7095992,272.5523 L78.8245992,272.5523 L78.8245992,288.4373 Z M44.5455992,288.4373 L60.4305992,288.4373 L60.4305992,272.5523 L44.5455992,272.5523 L44.5455992,288.4373 Z M10.2665992,288.4373 L26.1515992,288.4373 L26.1515992,272.5523 L10.2665992,272.5523 L10.2665992,288.4373 Z M113.102599,254.1593 L128.987599,254.1593 L128.987599,238.2733 L113.102599,238.2733 L113.102599,254.1593 Z M78.8245992,254.1593 L94.7095992,254.1593 L94.7095992,238.2733 L78.8245992,238.2733 L78.8245992,254.1593 Z M44.5455992,254.1593 L60.4305992,254.1593 L60.4305992,238.2733 L44.5455992,238.2733 L44.5455992,254.1593 Z M26.1515992,238.2733 L11.0135992,238.2733 C10.7605992,238.6733 10.5115992,239.0743 10.2665992,239.4783 L10.2665992,254.1593 L26.1515992,254.1593 L26.1515992,238.2733 Z M114.984599,219.8803 L128.987599,219.8803 L128.987599,208.7603 L128.517599,208.5303 L128.281599,208.4173 L128.045599,208.3043 L127.808599,208.1913 L127.571599,208.0793 L127.333599,207.9683 L127.324599,207.9643 L127.095599,207.8573 L126.856599,207.7473 L126.617599,207.6383 L126.378599,207.5293 L126.349599,207.5163 L126.138599,207.4213 L125.897599,207.3143 L125.728599,207.2383 L125.657599,207.2063 L125.416599,207.1003 L125.351599,207.0723 L125.174599,206.9953 L124.932599,206.8903 L124.764599,206.8173 L124.690599,206.7863 L124.447599,206.6823 L124.279599,206.6113 L124.203599,206.5793 L123.853599,206.4323 L123.792599,206.4073 L123.716599,206.3753 L123.471599,206.2743 L123.304599,206.2063 L123.226599,206.1743 L122.879599,206.0333 L122.814599,206.0073 L122.735599,205.9753 L122.488599,205.8763 L122.323599,205.8103 L122.242599,205.7793 L121.995599,205.6813 L121.830599,205.6173 L121.747599,205.5853 L121.575599,205.5183 L121.564599,205.7723 C121.347599,210.6073 118.922599,215.5943 114.984599,219.8803 Z M51.9385992,205.5263 L51.7065992,205.6163 L51.7025992,205.6173 L51.5375992,205.6813 C51.1255992,205.8433 50.7155992,206.0073 50.3065992,206.1733 L50.2285992,206.2063 L50.1815992,206.2253 L49.8175992,206.3753 L49.7405992,206.4073 L49.6945992,206.4263 L49.3295992,206.5793 L49.2535992,206.6113 L49.0865992,206.6823 L48.8435992,206.7853 L48.7685992,206.8173 L48.6005992,206.8893 L48.3585992,206.9943 L48.2855992,207.0263 L48.1175992,207.1003 L47.8765992,207.2063 L47.8045992,207.2383 L47.6355992,207.3133 L47.3945992,207.4213 L47.1555992,207.5293 L46.9155992,207.6373 L46.6955992,207.7383 L46.6765992,207.7473 L46.4385992,207.8573 L46.1995992,207.9683 L45.9625992,208.0793 L45.7255992,208.1903 L45.7245992,208.1913 L45.4885992,208.3033 L45.2765992,208.4053 L45.2125992,208.4353 C44.9905992,208.5433 44.7665992,208.6513 44.5455992,208.7603 L44.5455992,219.8803 L59.6285992,219.8803 C55.0765992,215.5143 52.1585992,210.4613 51.9465992,205.7043 L51.9385992,205.5263 Z M10.2665992,322.7163 L26.1515992,322.7163 L26.1515992,306.8313 L10.2665992,306.8313 L10.2665992,322.7163 Z M44.5455992,322.7163 L60.4305992,322.7163 L60.4305992,306.8313 L44.5455992,306.8313 L44.5455992,322.7163 Z M78.8245992,322.7163 L94.7095992,322.7163 L94.7095992,306.8313 L78.8245992,306.8313 L78.8245992,322.7163 Z M113.102599,322.7163 L128.987599,322.7163 L128.987599,306.8313 L113.102599,306.8313 L113.102599,322.7163 Z" id="Fill-257" fill="#992F15"></path>
                <path d="M20.8565992,227.2793 C33.2115992,269.1933 37.5825992,295.8173 39.3205992,340.5213 L52.2065992,340.5213 C52.6745992,306.8033 42.9775992,244.8273 31.9265992,220.4153 C30.1145992,216.3183 27.9285992,218.4083 25.2465992,220.3743 C22.8345992,222.1433 19.7455992,223.3833 20.8565992,227.2793 Z M152.677599,227.2793 C140.321599,269.1933 135.951599,295.8173 134.212599,340.5213 L121.327599,340.5213 C120.859599,306.8033 130.555599,244.8273 141.606599,220.4153 C143.419599,216.3183 146.042599,218.4083 148.724599,220.3743 C151.136599,222.1433 153.788599,223.3833 152.677599,227.2793 L152.677599,227.2793 Z" id="Fill-258" fill="#3D3D3D"></path>
                <path d="M44.1805992,83.3723004 C45.2335992,88.1923004 45.8205992,93.5413004 45.8205992,99.1753004 C45.8205992,120.3613 37.5255992,137.5343 27.2915992,137.5343 C17.0595992,137.5343 8.76359924,120.3613 8.76359924,99.1753004 C8.76359924,74.3333004 25.5325992,83.3723004 44.1805992,83.3723004 Z M88.1305992,188.9243 C108.427599,188.9243 124.880599,198.2153 124.880599,209.6753 C124.880599,221.1343 108.427599,230.4243 88.1305992,230.4243 C67.8345992,230.4243 51.3805992,221.1343 51.3805992,209.6753 C51.3805992,198.2153 67.8345992,188.9243 88.1305992,188.9243 Z M129.352599,83.3723004 C128.299599,88.1923004 127.712599,93.5413004 127.712599,99.1753004 C127.712599,120.3613 136.007599,137.5343 146.241599,137.5343 C156.473599,137.5343 164.769599,120.3613 164.769599,99.1753004 C164.769599,74.3333004 148.000599,83.3723004 129.352599,83.3723004 L129.352599,83.3723004 Z" id="Fill-259" fill="#F49A6A"></path>
                <path d="M149.602599,35.0743004 C153.522599,48.6593004 155.705599,63.7413004 155.705599,79.6233004 C155.705599,91.3913004 154.549599,102.7203 152.388599,113.3253 C148.467599,132.5713 144.064599,153.3273 134.427599,166.1163 C110.769599,197.5063 62.7935992,195.9613 39.5045992,165.1133 C30.0715992,152.6183 25.4145992,133.3933 21.4285992,114.6823 C19.0865992,103.6883 22.2025992,92.1443004 22.2025992,79.8733004 C22.2025992,63.9913004 20.0115992,48.6593004 23.9315992,35.0743004 L149.602599,35.0743004" id="Fill-260" fill="#FAB385"></path>
                <path d="M84.5445992,98.6413004 C83.8185992,98.0943004 82.9345992,95.7993004 82.0485992,95.4303004 C80.6145992,94.8343004 77.7155992,94.9913004 76.0205992,94.9913004 C61.8205992,94.9913004 47.6195992,94.9913004 33.4195992,94.9913004 C29.7355992,94.9913004 27.6775992,96.1063004 28.3255992,100.3343 C29.6175992,108.7693 30.9105992,117.2043 32.2025992,125.6393 C32.7435992,129.1703 34.3915992,129.9613 37.2395992,130.1763 C48.7845992,131.0503 60.3295992,130.9633 71.8745992,131.8373 C74.0795992,132.0043 76.1575992,130.0123 77.2675992,126.9703 C79.3625992,121.2293 81.4575992,116.4483 83.5515992,110.7073 C84.8635992,107.1133 84.7345992,105.8963 86.8975992,105.6503 C89.0575992,105.4043 88.9315992,107.1133 90.2425992,110.7073 C92.3375992,116.4483 94.4325992,121.2293 96.5275992,126.9703 C97.6375992,130.0123 99.7155992,132.0043 101.920599,131.8373 C113.465599,130.9633 125.010599,131.0503 136.555599,130.1763 C139.403599,129.9613 141.051599,129.1703 141.592599,125.6393 C142.884599,117.2043 144.177599,108.7693 145.469599,100.3343 C146.117599,96.1063004 144.059599,94.9913004 140.375599,94.9913004 C127.236599,94.9913004 114.097599,94.9963004 100.958599,94.9913004 C100.490599,94.9913004 97.7215992,94.8763004 95.2865992,94.8603004 C93.0655992,94.8453004 92.6295992,95.2783004 92.1775992,95.7043004 C91.4195992,96.4173004 90.6945992,98.5313004 89.0875992,99.1113004 C88.2025992,99.4313004 85.2895992,99.2023004 84.5445992,98.6413004" id="Fill-261" fill="#6E4229"></path>
                <path d="M46.8175992,210.6543 C47.1935992,207.9883 48.1745992,205.3653 49.1755992,202.5913 C49.7575992,200.9803 49.9295992,201.0033 50.4015992,201.4183 C50.8605992,201.8213 51.6215992,202.5833 52.2305992,203.2843 C60.6535992,212.9813 75.3125992,223.5673 88.1305992,229.2633 C100.948599,223.5673 115.607599,212.9813 124.031599,203.2843 C124.640599,202.5833 125.401599,201.8213 125.860599,201.4183 C126.332599,201.0033 126.504599,200.9803 127.085599,202.5913 C128.087599,205.3653 129.068599,207.9883 129.443599,210.6543 C121.547599,230.6033 112.636599,240.1323 104.164599,249.1523 C101.252599,252.2533 100.028599,252.1503 98.8865992,247.6323 C96.9405992,239.9383 93.2685992,235.3323 88.1305992,231.7003 C82.9935992,235.3323 79.3205992,239.9383 77.3755992,247.6323 C76.2325992,252.1503 75.0095992,252.2533 72.0965992,249.1523 C63.6255992,240.1323 54.7145992,230.6033 46.8175992,210.6543" id="Fill-262" fill="#D4461A"></path>
                <path d="M104.519599,235.5103 C100.882599,236.7663 97.0625992,238.7963 93.3775992,240.1243 C89.0155992,241.6953 88.8615992,241.3493 84.5065992,238.8023 C81.4535992,237.0173 78.6095992,236.1723 75.5575992,234.3873 C70.9835992,231.7133 70.3185992,232.8393 69.8405992,237.9233 C69.3705992,242.9163 69.2085992,246.8663 68.5045992,251.7553 C67.6825992,257.4543 68.7225992,256.9793 73.5915992,254.7993 C77.2755992,253.1503 79.8465992,252.6293 83.4965992,250.9103 C89.2745992,248.1903 88.7905992,248.8933 94.5545992,252.2283 C97.4285992,253.8923 100.304599,255.5553 103.179599,257.2193 C106.619599,259.2103 107.652599,259.9733 107.852599,255.1853 C108.069599,249.9593 108.419599,244.0303 108.637599,238.8043 C108.723599,236.7263 107.779599,234.3843 104.519599,235.5103" id="Fill-263" fill="#2A2A2A"></path>
                <path d="M53.8615992,97.0673004 C61.4645992,97.0673004 70.5915992,96.7513004 75.6125992,97.0013004 C78.9325992,97.1673004 79.2625992,97.5463004 80.4515992,98.5533004 C81.0105992,99.0263004 80.9585992,100.3293 80.9865992,101.0043 C81.1675992,105.3533 60.6485992,110.5043 45.7365992,110.5043 C30.8255992,110.5043 30.6115992,104.9783 30.6115992,100.6293 C30.6115992,98.8403004 30.1545992,97.7323004 32.8575992,97.2693004 C36.7255992,96.6073004 45.1045992,97.0673004 53.8615992,97.0673004 Z M105.345599,96.9903004 C109.350599,96.9903004 127.160599,96.8263004 129.803599,96.9553004 C131.550599,97.0413004 131.728599,97.2443004 132.352599,97.7733004 C132.645599,98.0203004 132.620599,98.7123004 132.634839,99.0643004 C132.726599,101.3543 106.295599,104.6313 98.4405992,104.6313 C95.0355992,104.6313 94.0785992,104.2903 93.5205992,103.3653 C92.9715992,102.4513 92.1705992,97.4583004 94.2815992,97.0973004 C96.3195992,96.7483004 100.732599,96.9903004 105.345599,96.9903004 L105.345599,96.9903004 Z" id="Fill-264" fill="#835B3E"></path>
                <path d="M16.0055992,55.0363004 C19.5875992,60.5893004 26.5225992,68.5943004 35.0635992,72.9833004 C60.2095992,85.9053004 118.087599,63.0163004 140.423599,48.3223004 C141.564599,50.8173004 141.707599,69.9143004 153.455599,97.7903004 C153.113599,101.0813 153.078599,109.1813 150.825599,119.0333 C146.952599,135.9633 136.266599,167.0613 122.474599,177.6893 C118.140599,181.0293 96.4895992,183.3203 94.1505992,175.1063 C93.0295992,171.1723 82.1155992,171.1723 80.9945992,175.1063 C78.6555992,183.3203 57.0045992,181.0293 52.6705992,177.6893 C38.8785992,167.0613 28.1915992,135.9633 24.3195992,119.0333 C21.5925992,107.1093 22.1155992,97.7503004 21.4085992,96.3793004 C19.8895992,93.4313004 20.1955992,108.9493 22.0665992,121.4753 C24.7685992,139.5623 31.4705992,165.4013 40.3445992,185.7333 C43.7725992,193.5873 48.5885992,200.1953 52.0425992,205.8493 C53.9485992,208.9683 62.5305992,211.0283 73.1295992,211.9373 C77.8765992,212.3433 82.8615992,212.543315 87.6515992,212.543315 C104.026599,212.5363 120.380599,210.3043 123.102599,205.8493 C126.555599,200.1953 131.372599,193.5873 134.800599,185.7333 C143.674599,165.4013 150.376599,139.5623 153.078599,121.4753 C154.814599,109.8553 156.325599,94.1303004 156.991599,82.4343004 C158.252599,60.3053004 156.417599,43.1523004 151.128599,32.9793004 C147.445599,3.43330041 84.4745992,-15.4506996 44.3655992,16.9893004 C40.1465992,20.4023004 39.3095992,20.5943004 33.4515992,20.1983004 C26.0685992,19.6993004 21.2035992,16.5943004 17.6155992,17.4233004 C15.2455992,17.9703004 13.5165992,19.6493004 12.3395992,22.4583004 C7.67159924,33.6033004 9.70859924,45.2713004 16.0055992,55.0363004" id="Fill-265" fill="#412319"></path>
                <path d="M15.5935992,42.3423004 C18.0245992,53.8943004 30.3855992,65.9253004 43.5175992,69.0833004 C61.0785992,73.3053004 74.0905992,69.0333004 91.1435992,63.0833004 C98.5945992,60.4833004 117.316599,49.8113004 130.092599,40.6363004 C139.864599,33.6183004 146.737599,34.8523004 137.716599,26.3803004 C133.012599,21.9633004 120.190599,20.2553004 103.091599,22.2723004 C87.0555992,24.1633004 69.8925992,34.2083004 54.1705992,38.0673004 C45.6265992,40.1643004 34.4455992,35.2043004 27.5305992,34.5693004 C15.7805992,33.4913004 13.0985992,30.4953004 15.5935992,42.3423004" id="Fill-266" fill="#522D21"></path>
                <path d="M74.0255992,208.0553 C64.4425992,199.0553 55.6085992,191.5553 46.0255992,182.5553 C47.8685992,191.2123 51.5315992,202.7763 60.7635992,205.4683 C65.4335992,206.8293 69.3545992,206.6933 74.0255992,208.0553" id="Fill-267" fill="#522D21"></path>
                <path d="M80.6855992,149.8113 C79.1005992,150.0153 77.5855992,150.5083 75.9685992,151.0903 C66.7325992,154.4113 62.8685992,155.7793 53.1805992,153.2443 C53.6245992,157.5693 61.7235992,161.2383 65.7705992,162.0463 C73.3245992,163.5543 80.6495992,163.4273 86.7855992,160.2853 C93.2215992,163.5803 102.125599,163.1083 110.382599,160.6563 C114.217599,159.5173 118.454599,157.0313 119.728599,152.9793 C114.889599,153.8623 113.133599,154.3173 109.435599,153.7283 C105.246599,153.0613 101.290599,152.4153 97.6035992,151.0903 C95.7445992,150.4213 94.0195992,149.8693 92.1705992,149.7393 C91.6105992,149.6993 89.2345992,151.4833 86.6595992,151.4973 C83.9875992,151.5103 81.1125992,149.7563 80.6855992,149.8113" id="Fill-268" fill="#412319"></path>
            </g>
        </g>
    </g>
</svg>