<?xml version="1.0" encoding="UTF-8"?>
<svg width="175px" height="321px" viewBox="0 0 175 321" version="1.1" xmlns="http://www.w3.org/2000/svg" xmlns:xlink="http://www.w3.org/1999/xlink">
    <!-- Generator: Sketch 56.3 (81716) - https://sketch.com -->
    <title>Milky</title>
    <desc>Created with Sketch.</desc>
    <g id="all" stroke="none" stroke-width="1" fill="none" fill-rule="evenodd">
        <g id="iStock-943542898" transform="translate(-569.000000, -931.000000)">
            <g id="Milky" transform="translate(569.642458, 931.494541)">
                <path d="M44.179542,63.2844585 C45.233542,68.1044585 45.820542,73.4534585 45.820542,79.0874585 C45.820542,100.273459 37.524542,117.446459 27.291542,117.446459 C17.058542,117.446459 8.76354199,100.273459 8.76354199,79.0874585 C8.76354199,54.2454585 25.532542,63.2844585 44.179542,63.2844585 Z M129.352542,63.2844585 C128.298542,68.1044585 127.711542,73.4534585 127.711542,79.0874585 C127.711542,100.273459 136.007542,117.446459 146.240542,117.446459 C156.473542,117.446459 164.769542,100.273459 164.769542,79.0874585 C164.769542,54.2454585 148.000542,63.2844585 129.352542,63.2844585 L129.352542,63.2844585 Z" id="Fill-242" fill="#F49A6A"></path>
                <path d="M173.402542,255.128459 C173.402542,213.102459 134.614542,179.033459 86.766542,179.033459 C38.918542,179.033459 0.129541992,213.102459 0.129541992,255.128459 C0.129541992,258.396459 -0.0744580078,295.994459 0.0295419922,299.604459 C0.334541992,310.147459 3.27854199,320.433459 21.656542,320.433459 L151.825542,320.433459 C170.256542,320.433459 173.200542,310.165459 173.503542,299.614459 C173.607542,296.005459 173.402542,258.404459 173.402542,255.128459" id="Fill-243" fill="#DADAC5"></path>
                <path d="M130.556542,189.461459 C117.706542,182.836459 102.742542,179.033459 86.766542,179.033459 C70.789542,179.033459 55.825542,182.836459 42.975542,189.461459 C48.934542,207.960459 66.285542,221.346459 86.766542,221.346459 C107.246542,221.346459 124.597542,207.960459 130.556542,189.461459" id="Fill-244" fill="#E7E7D9"></path>
                <path d="M123.914542,100.951459 C122.692542,129.202459 121.470542,157.453459 120.249542,185.703459 C119.709542,198.202459 104.984542,211.718459 87.574542,211.505459 C70.571542,211.296459 53.773542,197.540459 53.261542,185.636459 C52.047542,157.408459 50.832542,129.179459 49.617542,100.951459 C74.384542,100.951459 99.149542,100.951459 123.914542,100.951459" id="Fill-245" fill="#F49A6A"></path>
                <path d="M86.766542,168.870459 C68.545542,168.865459 50.244542,160.758459 38.366542,145.025459 C18.025542,118.082459 21.065542,83.5684585 21.065542,53.7854585 C21.065542,16.4144585 53.744542,-0.547541475 86.766542,0.0134585246 C119.788542,-0.547541475 152.467542,16.4144585 152.467542,53.7854585 C152.467542,83.5684585 155.507542,118.082459 135.166542,145.025459 C123.288542,160.758459 104.987542,168.865459 86.766542,168.870459" id="Fill-246" fill="#FAB385"></path>
                <path d="M22.030542,99.9364585 C20.324542,84.3874585 21.065542,68.5084585 21.065542,53.7854585 C21.065542,16.4144585 53.744542,-0.547541475 86.766542,0.0134585246 C119.788542,-0.547541475 152.467542,16.4144585 152.467542,53.7854585 C152.467542,68.2464585 153.183542,83.8234585 151.592542,99.1074585 C142.424542,93.8484585 140.673542,63.5874585 140.673542,49.6754585 C140.673542,16.4854585 109.964542,42.4904585 105.832542,44.0294585 C99.742542,46.2984585 93.352542,48.1754585 86.766542,48.1754585 C79.792542,48.1754585 73.016542,45.8464585 66.530542,43.3164585 C58.286542,40.1014585 34.673542,21.8534585 34.673542,49.6754585 C34.673542,64.0374585 32.063542,96.0484585 22.030542,99.9364585" id="Fill-247" fill="#E6A67D"></path>
                <path d="M86.766542,2.26345852 C108.172542,1.89945852 118.930542,6.19645852 121.581542,11.4994585 C125.586542,19.5144585 111.072542,29.8284585 86.800542,29.8294585 C62.686542,29.8294585 48.195542,19.5454585 52.094542,11.5354585 C54.683542,6.21545852 65.385542,1.89845852 86.766542,2.26345852" id="Fill-248" fill="#D79D78"></path>
                <path d="M28.841542,202.900459 C41.197542,246.403459 46.161542,274.035459 47.900542,320.433459 L62.566542,320.433459 C63.034542,285.437459 53.338542,221.113459 42.287542,195.776459 C40.474542,191.524459 35.913542,193.694459 33.232542,195.734459 C30.821542,197.569459 27.731542,198.858459 28.841542,202.900459 Z M136.287542,198.650459 C123.932542,242.153459 125.186542,274.035459 123.448542,320.433459 L109.312542,320.433459 C108.844542,285.437459 112.916542,216.863459 123.967542,191.526459 C125.779542,187.274459 128.404542,189.444459 131.084542,191.484459 C133.495542,193.318459 137.398542,194.608459 136.287542,198.650459 L136.287542,198.650459 Z" id="Fill-249" fill="#333333"></path>
                <path d="M120.282542,184.939459 C151.487542,196.448459 173.403542,223.539459 173.403542,255.128459 C173.403542,258.396459 173.607542,295.994459 173.503542,299.604459 C173.198542,310.146459 170.254542,320.433459 151.876542,320.433459 L135.425542,320.433459 C133.167542,308.718459 134.658542,261.068459 132.222542,233.469459 C131.305542,223.072459 132.152542,227.977459 134.675542,220.296459 C135.158542,204.285459 128.157542,196.105459 120.091542,187.385459 C120.171542,186.823459 120.225542,186.262459 120.249542,185.703459 L120.282542,184.939459 Z M53.231542,184.946459 C22.036542,196.459459 0.129541992,223.545459 0.129541992,255.128459 C0.129541992,258.396459 -0.0744580078,295.994459 0.0295419922,299.604459 C0.334541992,310.146459 3.27854199,320.433459 21.655542,320.433459 L42.407542,320.433459 C43.609542,303.153459 49.412542,246.460459 55.604542,231.724459 C57.647542,226.860459 57.887542,227.133459 54.323542,223.612459 C52.321542,221.634459 49.940542,219.774459 50.936542,216.639459 C52.133542,212.874459 54.276542,210.380459 53.134542,208.265459 C45.578542,194.271459 51.954542,188.299459 53.331542,186.518459 C53.274542,185.990459 53.254542,185.475459 53.231542,184.946459 L53.231542,184.946459 Z" id="Fill-250" fill="#738866"></path>
                <path d="M46.169542,227.218459 C39.076542,257.458459 34.802542,288.588459 32.793542,320.433459 L36.032542,320.433459 C37.234542,303.153459 43.038542,246.460459 49.230542,231.724459 C49.835542,230.283459 49.782542,228.917459 50.019542,228.146459 C50.451542,226.736459 46.885542,224.170459 46.169542,227.218459" id="Fill-251" fill="#677B60"></path>
                <path d="M173.402542,255.128459 C173.402542,237.161459 166.308542,220.652459 154.452542,207.634459 C150.208542,220.450459 147.836542,234.731459 147.836542,249.790459 C147.836542,251.908459 147.795542,287.940459 147.764542,320.433459 L151.825542,320.433459 C170.256542,320.433459 173.200542,310.165459 173.503542,299.614459 C173.607542,296.005459 173.402542,258.404459 173.402542,255.128459 Z M19.079542,207.633459 C7.22354199,220.651459 0.129541992,237.161459 0.129541992,255.128459 C0.129541992,258.396459 -0.0744580078,295.994459 0.0295419922,299.604459 C0.334541992,310.146459 3.27854199,320.433459 21.655542,320.433459 L25.768542,320.433459 C25.736542,287.940459 25.696542,251.908459 25.696542,249.790459 C25.696542,234.731459 23.324542,220.450459 19.079542,207.633459 L19.079542,207.633459 Z" id="Fill-252" fill="#677E5C"></path>
                <path d="M50.326542,218.979459 C49.784542,217.937459 48.618542,216.396459 48.076542,215.354459 C45.460542,211.387459 40.396542,199.730459 43.588542,190.358459 C44.927542,186.428459 48.233542,181.561459 52.951542,179.979459 C53.201542,182.104459 53.451542,184.229459 53.701542,186.354459 C51.608542,192.145459 49.246542,195.316459 55.013542,204.817459 C55.976542,206.402459 54.727542,208.516459 54.179542,210.309459 C53.333542,213.073459 51.270542,216.214459 50.326542,218.979459" id="Fill-253" fill="#677B60"></path>
            </g>
        </g>
    </g>
</svg>