<?xml version="1.0" encoding="UTF-8"?>
<svg width="175px" height="356px" viewBox="0 0 175 356" version="1.1" xmlns="http://www.w3.org/2000/svg" xmlns:xlink="http://www.w3.org/1999/xlink">
    <!-- Generator: Sketch 56.3 (81716) - https://sketch.com -->
    <title>punk</title>
    <desc>Created with Sketch.</desc>
    <g id="all" stroke="none" stroke-width="1" fill="none" fill-rule="evenodd">
        <g id="iStock-943542898" transform="translate(-815.000000, -80.000000)">
            <g id="punk" transform="translate(815.479458, 80.496434)">
                <path d="M44.179542,98.0655656 C45.234542,102.884566 45.820542,108.234566 45.820542,113.867566 C45.820542,135.054566 37.525542,152.228566 27.292542,152.228566 C17.059542,152.228566 8.76354199,135.054566 8.76354199,113.867566 C8.76354199,89.0265656 25.532542,98.0655656 44.179542,98.0655656 Z M129.352542,98.0655656 C128.299542,102.884566 127.712542,108.234566 127.712542,113.867566 C127.712542,135.054566 136.007542,152.228566 146.241542,152.228566 C156.474542,152.228566 164.769542,135.054566 164.769542,113.867566 C164.769542,89.0265656 148.000542,98.0655656 129.352542,98.0655656 L129.352542,98.0655656 Z" id="Fill-41" fill="#F49A6A"></path>
                <path d="M20.841542,143.481566 L23.091542,143.481566 C24.246542,143.481566 25.191542,144.199566 25.191542,145.078566 L25.191542,159.582566 C25.191542,160.461566 24.246542,161.180566 23.091542,161.180566 L20.841542,161.180566 C19.686542,161.180566 18.741542,160.461566 18.741542,159.582566 L18.741542,145.078566 C18.741542,144.199566 19.686542,143.481566 20.841542,143.481566 Z M150.441542,143.481566 L152.691542,143.481566 C153.847542,143.481566 154.791542,144.199566 154.791542,145.078566 L154.791542,159.582566 C154.791542,160.461566 153.847542,161.180566 152.691542,161.180566 L150.441542,161.180566 C149.286542,161.180566 148.341542,160.461566 148.341542,159.582566 L148.341542,145.078566 C148.341542,144.199566 149.286542,143.481566 150.441542,143.481566 L150.441542,143.481566 Z" id="Fill-42" fill="#4D4D4D"></path>
                <path d="M173.402542,289.908566 C173.402542,247.883566 134.614542,213.814566 86.766542,213.814566 C38.918542,213.814566 0.129541992,247.883566 0.129541992,289.908566 C0.129541992,293.176566 -0.0744580078,330.774566 0.0295419922,334.384566 C0.334541992,344.927566 3.27854199,355.213566 21.656542,355.213566 L151.825542,355.213566 C170.256542,355.213566 173.201542,344.946566 173.504542,334.395566 C173.607542,330.785566 173.402542,293.185566 173.402542,289.908566" id="Fill-43" fill="#336699"></path>
                <polyline id="Fill-44" fill="#E6E6C9" points="120.902542 355.213566 35.533542 269.844566 47.711542 257.666566 145.258542 355.213566 120.902542 355.213566"></polyline>
                <polyline id="Fill-45" fill="#D0300E" points="128.014542 355.213566 47.894542 275.093566 52.960542 270.028566 138.146542 355.213566 128.014542 355.213566"></polyline>
                <polyline id="Fill-46" fill="#E6E6C9" points="52.166542 355.213566 137.536542 269.844566 125.358542 257.666566 27.810542 355.213566 52.166542 355.213566"></polyline>
                <polyline id="Fill-47" fill="#D0300E" points="45.054542 355.213566 125.174542 275.093566 120.109542 270.028566 34.922542 355.213566 45.054542 355.213566"></polyline>
                <polygon id="Fill-48" fill="#E6E6C9" points="25.365542 321.715566 148.167542 321.715566 148.167542 295.497566 25.365542 295.497566"></polygon>
                <polygon id="Fill-49" fill="#E6E6C9" points="73.275542 355.213566 100.257542 355.213566 100.257542 240.356566 73.275542 240.356566"></polygon>
                <polygon id="Fill-50" fill="#D0300E" points="78.266542 355.213566 95.266542 355.213566 95.266542 240.356566 78.266542 240.356566"></polygon>
                <path d="M121.994542,135.732566 C120.836542,163.983566 119.677542,192.234566 118.518542,220.484566 C118.006542,232.983566 104.043542,246.499566 87.532542,246.286566 C71.408542,246.077566 55.479542,232.321566 54.993542,220.417566 C53.842542,192.188566 52.690542,163.961566 51.538542,135.732566 C75.024542,135.732566 98.509542,135.732566 121.994542,135.732566" id="Fill-51" fill="#F49A6A"></path>
                <path d="M86.766542,203.651566 C68.546542,203.646566 50.244542,195.539566 38.366542,179.806566 C18.026542,152.862566 21.065542,118.349566 21.065542,88.5665656 C21.065542,51.1955656 53.744542,34.2325656 86.766542,34.7935656 C119.788542,34.2325656 152.468542,51.1955656 152.468542,88.5665656 C152.468542,118.349566 155.507542,152.862566 135.166542,179.806566 C123.289542,195.539566 104.987542,203.646566 86.766542,203.651566" id="Fill-52" fill="#FAB385"></path>
                <polygon id="Fill-53" fill="#D0300E" points="25.365542 317.106566 148.167542 317.106566 148.167542 300.106566 25.365542 300.106566"></polygon>
                <path d="M54.792542,219.166566 C22.770542,230.341566 0.129541992,257.801566 0.129541992,289.908566 C0.129541992,293.176566 -0.0744580078,330.774566 0.0295419922,334.384566 C0.334541992,344.927566 3.27854199,355.213566 21.656542,355.213566 L47.407542,355.213566 C55.398542,337.775566 70.991542,325.344566 65.260542,304.296566 C58.814542,280.620566 56.257542,242.584566 54.792542,219.166566" id="Fill-54" fill="#383838"></path>
                <path d="M118.740542,219.166566 C150.763542,230.341566 173.403542,257.801566 173.403542,289.908566 C173.403542,293.176566 173.607542,330.774566 173.503542,334.384566 C173.199542,344.927566 170.255542,355.213566 151.877542,355.213566 L120.426542,355.213566 C117.999542,342.908566 118.624542,340.753566 119.314542,326.386566 C119.908542,314.013566 121.905542,301.339566 121.588542,288.589566 C120.977542,263.981566 117.469542,239.489566 118.740542,219.166566" id="Fill-55" fill="#383838"></path>
                <path d="M77.392542,89.4015656 C75.844542,75.8335656 73.527542,47.9455656 66.087542,37.3375656 C65.181542,30.2125656 64.499542,23.3265656 64.260542,17.1495656 C64.116542,13.4105656 64.156542,9.53256559 66.648542,6.62256559 C70.124542,2.56156559 77.237542,0.0955655901 85.217542,0.00356559009 C92.681542,-0.0834344099 102.215542,1.42056559 106.582542,4.63556559 C110.493542,7.51256559 109.669542,11.7625656 109.227542,17.4665656 C108.763542,23.4675656 108.085542,30.0175656 107.271542,36.7465656 C97.971542,48.3105656 97.475542,75.6115656 95.658542,89.1585656 C95.486542,93.6995656 80.082542,94.0665656 77.392542,89.4015656" id="Fill-56" fill="#335B60"></path>
                <path d="M173.402542,289.908566 C173.402542,271.941566 166.308542,255.432566 154.453542,242.415566 C150.208542,255.231566 147.837542,269.512566 147.837542,284.570566 C147.837542,286.689566 147.796542,322.721566 147.764542,355.213566 L151.825542,355.213566 C170.256542,355.213566 173.201542,344.946566 173.503542,334.395566 C173.607542,330.785566 173.402542,293.185566 173.402542,289.908566 Z M19.080542,242.414566 C7.22354199,255.432566 0.129541992,271.941566 0.129541992,289.908566 C0.129541992,293.176566 -0.0744580078,330.774566 0.0295419922,334.384566 C0.334541992,344.927566 3.27854199,355.213566 21.656542,355.213566 L25.768542,355.213566 C25.737542,322.721566 25.697542,286.689566 25.697542,284.570566 C25.697542,269.512566 23.324542,255.230566 19.080542,242.414566 L19.080542,242.414566 Z" id="Fill-57" fill="#424242"></path>
                <path d="M172.771542,280.086566 C165.028542,280.559566 158.951542,285.128566 158.951542,290.694566 C158.951542,296.443566 165.429542,301.126566 173.533542,301.336566 C173.508542,295.508566 173.487542,290.953566 173.487542,289.908566 C173.487542,286.580566 173.243542,283.301566 172.771542,280.086566" id="Fill-58" fill="#C24025"></path>
                <path d="M54.738542,214.436566 C55.970542,245.854566 61.107542,277.144566 66.487542,308.314566 C66.929542,310.876566 67.445542,312.697566 66.409542,314.529566 C59.855542,301.277566 38.084542,279.349566 26.665542,265.857566 C22.440542,260.864566 19.002542,257.907566 26.845542,254.963566 C32.187542,252.957566 40.802542,250.552566 42.307542,250.115566 C48.010542,248.460566 48.455542,246.064566 42.836542,242.937566 C38.656542,240.609566 32.593542,237.686566 28.097542,234.928566 C23.621542,232.182566 24.802542,228.309566 27.826542,226.834566 C37.069542,222.325566 42.589542,218.293566 54.738542,214.436566" id="Fill-59" fill="#4D4D4D"></path>
                <path d="M39.354542,262.230566 C42.012542,262.230566 44.167542,264.385566 44.167542,267.043566 C44.167542,269.700566 42.012542,271.855566 39.354542,271.855566 C36.696542,271.855566 34.542542,269.700566 34.542542,267.043566 C34.542542,264.385566 36.696542,262.230566 39.354542,262.230566" id="Fill-60" fill="#B3B3B3"></path>
                <path d="M49.776542,271.162566 C53.412542,271.162566 56.360542,274.110566 56.360542,277.746566 C56.360542,281.382566 53.412542,284.330566 49.776542,284.330566 C46.139542,284.330566 43.192542,281.382566 43.192542,277.746566 C43.192542,274.110566 46.139542,271.162566 49.776542,271.162566" id="Fill-61" fill="#B3B3B3"></path>
                <path d="M118.795542,214.436566 C117.562542,245.854566 122.474542,281.644566 120.396542,312.664566 C120.223542,315.256566 118.388542,326.497566 119.424542,328.330566 C125.978542,315.276566 139.800542,277.328566 146.717542,262.707566 C148.534542,258.867566 150.632542,254.060566 147.010542,252.881566 C143.283542,251.667566 133.793542,249.186566 131.825542,248.615566 C126.122542,246.961566 125.369542,246.536566 130.697542,242.937566 L145.435542,232.978566 C152.181542,228.419566 149.098542,224.922566 143.633542,222.715566 C134.613542,219.073566 129.647542,217.881566 118.795542,214.436566" id="Fill-62" fill="#4D4D4D"></path>
                <path d="M132.226542,256.481566 C136.304542,256.481566 139.610542,259.787566 139.610542,263.865566 C139.610542,267.943566 136.304542,271.249566 132.226542,271.249566 C128.148542,271.249566 124.841542,267.943566 124.841542,263.865566 C124.841542,259.787566 128.148542,256.481566 132.226542,256.481566" id="Fill-63" fill="#B3B3B3"></path>
                <path d="M132.354542,227.380566 C135.012542,227.380566 137.167542,229.535566 137.167542,232.193566 C137.167542,234.851566 135.012542,237.005566 132.354542,237.005566 C129.697542,237.005566 127.542542,234.851566 127.542542,232.193566 C127.542542,229.535566 129.697542,227.380566 132.354542,227.380566" id="Fill-64" fill="#B3B3B3"></path>
                <path d="M80.080542,91.0295656 L78.719542,48.8785656 C78.256542,34.5355656 77.203542,16.9635656 76.280542,10.3675656 C75.645542,5.82656559 82.980542,6.72656559 86.361542,6.60756559 C89.869542,6.48656559 95.884542,5.56456559 95.504542,10.5845656 C94.919542,18.3345656 95.307542,31.7605656 94.647542,51.5965656 L93.334542,91.0295656 C93.244542,93.7505656 80.155542,93.3515656 80.080542,91.0295656" id="Fill-65" fill="#3D6E6E"></path>
            </g>
        </g>
    </g>
</svg>