<?xml version="1.0" encoding="UTF-8"?>
<svg width="195px" height="342px" viewBox="0 0 195 342" version="1.1" xmlns="http://www.w3.org/2000/svg" xmlns:xlink="http://www.w3.org/1999/xlink">
    <!-- Generator: Sketch 56.3 (81716) - https://sketch.com -->
    <title>rasta</title>
    <desc>Created with Sketch.</desc>
    <g id="all" stroke="none" stroke-width="1" fill="none" fill-rule="evenodd">
        <g id="iStock-943542898" transform="translate(-313.000000, -94.000000)">
            <g id="rasta" transform="translate(313.618930, 94.796515)">
                <path d="M151.04107,33.8434849 C145.76607,61.8054849 144.87207,83.4594849 144.07807,114.661485 C143.35807,142.923485 145.86307,179.040485 152.38607,196.226485 C154.73607,202.415485 143.50507,206.175485 141.98807,201.932485 C134.54307,181.106485 131.28707,145.602485 132.12907,114.338485 C132.94407,82.3094849 133.92707,60.0494849 139.28407,31.6484849 L151.04107,33.8434849" id="Fill-66" fill="#2C1C1C"></path>
                <path d="M55.6460704,83.7654849 C56.6710704,88.5844849 57.2420704,93.9344849 57.2420704,99.5674849 C57.2420704,120.754485 49.1710704,137.928485 39.2150704,137.928485 C29.2600704,137.928485 21.1890704,120.754485 21.1890704,99.5674849 C21.1890704,74.7264849 37.5040704,83.7654849 55.6460704,83.7654849 Z M138.51307,83.7654849 C137.48807,88.5844849 136.91707,93.9344849 136.91707,99.5674849 C136.91707,120.754485 144.98807,137.928485 154.94407,137.928485 C164.89907,137.928485 172.97007,120.754485 172.97007,99.5674849 C172.97007,74.7264849 156.65507,83.7654849 138.51307,83.7654849 L138.51307,83.7654849 Z" id="Fill-67" fill="#E4874C"></path>
                <path d="M142.63507,82.0864849 C138.11907,110.181485 133.56607,144.727485 133.61607,175.939485 C133.66507,206.221485 137.97107,233.212485 150.82307,247.359485 L141.96407,255.421485 C126.79407,238.724485 121.71607,208.908485 121.66307,175.939485 C121.61107,143.900485 126.23607,108.746485 130.82207,80.2124849 L142.63507,82.0864849 Z M54.9860704,100.808485 C59.9930704,128.014485 65.1320704,161.439485 65.5330704,191.529485 C65.9480704,222.678485 61.1880704,250.418485 45.9400704,264.903485 L37.6900704,256.231485 C50.1060704,244.436485 53.9550704,219.807485 53.5800704,191.670485 C53.1910704,162.476485 48.1410704,129.701485 43.2200704,102.964485 L54.9860704,100.808485 L54.9860704,100.808485 Z" id="Fill-68" fill="#2C1C1C"></path>
                <path d="M54.5570704,95.5244849 C58.5970704,134.621485 52.7680704,233.618485 21.9690704,260.791485 L14.0470704,251.838485 C40.6080704,228.404485 46.1630704,130.741485 42.6510704,96.7434849 L54.5570704,95.5244849" id="Fill-69" fill="#2C1C1C"></path>
                <path d="M183.71607,275.608485 C183.71607,233.583485 144.92807,199.514485 97.0800704,199.514485 C49.2310704,199.514485 10.4430704,233.583485 10.4430704,275.608485 C10.4430704,278.877485 10.2390704,316.474485 10.3430704,320.085485 C10.6480704,330.627485 13.5920704,340.913485 31.9690704,340.913485 L162.13907,340.913485 C180.57007,340.913485 183.51407,330.646485 183.81707,320.095485 C183.92107,316.485485 183.71607,278.885485 183.71607,275.608485" id="Fill-70" fill="#E4874C"></path>
                <path d="M132.30707,121.412485 C131.14907,149.663485 129.99007,177.913485 128.83207,206.164485 C128.31907,218.663485 114.35607,232.179485 97.8450704,231.966485 C81.7220704,231.757485 65.7920704,218.001485 65.3070704,206.097485 C64.1550704,177.869485 63.0030704,149.640485 61.8510704,121.412485 C85.3370704,121.412485 108.82207,121.412485 132.30707,121.412485" id="Fill-71" fill="#E4874C"></path>
                <path d="M159.91507,35.4674849 C163.83607,49.0524849 166.01807,64.1344849 166.01807,80.0164849 C166.01807,91.7844849 164.86207,103.114485 162.70107,113.718485 C158.78007,132.963485 154.37707,153.721485 144.74007,166.508485 C121.08207,197.899485 73.1060704,196.354485 49.8170704,165.506485 C40.3840704,153.011485 35.7280704,133.786485 31.7410704,115.075485 C29.3990704,104.081485 28.1400704,92.2874849 28.1400704,80.0164849 C28.1400704,64.1344849 30.3240704,49.0524849 34.2440704,35.4674849 L159.91507,35.4674849" id="Fill-72" fill="#E5915A"></path>
                <path d="M183.71607,275.589485 C183.71607,251.951485 171.44007,230.836485 152.18807,216.879485 C142.98607,245.530485 121.77807,265.586485 97.0800704,265.586485 C72.3820704,265.586485 51.1730704,245.530485 41.9710704,216.879485 C22.7180704,230.835485 10.4430704,251.951485 10.4430704,275.589485 C10.4430704,278.856485 10.2390704,316.455485 10.3430704,320.064485 C10.6480704,330.607485 13.5920704,340.893485 31.9690704,340.893485 L162.13907,340.893485 C180.57007,340.893485 183.51407,330.626485 183.81707,320.076485 C183.92107,316.466485 183.71607,278.865485 183.71607,275.589485" id="Fill-73" fill="#74503B"></path>
                <path d="M157.50507,221.068485 C155.80007,219.609485 154.02607,218.211485 152.18807,216.879485 C142.98607,245.530485 121.77807,265.586485 97.0800704,265.586485 C72.3820704,265.586485 51.1730704,245.530485 41.9710704,216.879485 C40.1340704,218.211485 38.3600704,219.609485 36.6540704,221.067485 C46.9920704,251.891485 70.1580704,273.366485 97.0800704,273.366485 C124.00207,273.366485 147.16707,251.891485 157.50507,221.068485" id="Fill-74" fill="#634635"></path>
                <path d="M97.0790704,192.180485 C71.3600704,189.664485 53.2790704,176.288485 40.6460704,154.776485 C35.0880704,145.311485 36.2080704,131.154485 36.0990704,130.840485 C35.8580704,130.140485 38.5110704,143.425485 44.6590704,152.140485 C55.7700704,167.893485 65.1840704,175.819485 82.4550704,177.903485 C87.9500704,178.565485 89.6340704,176.183485 91.3880704,170.478485 C92.2360704,167.722485 93.9550704,167.885485 97.1730704,167.701485 C100.39007,167.885485 101.92307,167.722485 102.77107,170.478485 C104.52507,176.183485 106.20907,178.565485 111.70307,177.903485 C128.97507,175.819485 138.01307,167.331485 149.12507,151.578485 C155.27307,142.862485 158.67607,127.890485 158.43407,128.589485 C158.32607,128.904485 159.07107,145.311485 153.51307,154.776485 C140.88007,176.288485 122.79907,189.664485 97.0790704,192.180485" id="Fill-75" fill="#413333"></path>
                <path d="M45.8230704,74.4514849 L45.8290704,78.8914849 C45.9330704,136.200485 47.0040704,215.723485 13.9400704,240.712485 C10.2330704,243.514485 3.86007042,233.414485 6.96007042,230.947485 C29.3070704,213.169485 33.1570704,158.519485 33.7740704,109.250485 C30.5140704,143.882485 27.9720704,183.349485 10.4350704,214.014485 C8.82807042,216.824485 -1.56792958,210.966485 0.202070417,207.765485 C17.3590704,176.735485 19.3630704,138.650485 22.2230704,103.745485 C23.7020704,85.7034849 23.8340704,67.5914849 22.0880704,50.6124849 C52.8400704,47.4644849 17.8150704,74.4514849 45.8230704,74.4514849" id="Fill-76" fill="#413333"></path>
                <path d="M167.04707,50.6904849 C168.78807,72.0164849 171.34807,98.8324849 175.65007,125.262485 C179.73307,150.352485 185.37107,174.981485 193.33207,193.900485 C194.69507,197.138485 184.45407,203.591485 182.39907,198.724485 C173.95707,178.740485 168.05707,153.117485 163.83307,127.162485 C163.08007,122.537485 162.38007,117.899485 161.72807,113.277485 C161.93107,127.122485 162.62707,141.069485 164.09207,154.320485 C167.28307,182.976485 174.39007,208.205485 186.99107,221.538485 C189.87007,224.583485 182.75707,234.489485 178.34807,229.827485 C163.59107,214.220485 155.65607,186.578485 152.21007,155.615485 C148.68807,123.769485 149.47907,88.3224849 150.94907,59.4584849 L155.80507,59.6964849 C155.56807,56.9604849 155.34507,54.2934849 155.13407,51.7054849 L167.04707,50.6904849" id="Fill-77" fill="#413333"></path>
                <path d="M170.25507,80.7834849 C118.14907,66.3114849 65.0530704,91.5594849 20.5520704,112.557485 C-11.1769296,104.674485 10.4730704,50.9844849 27.4460704,31.0614849 C52.5270704,1.62448494 103.45207,-7.07751506 135.60707,5.75948494 C165.76207,17.7974849 177.45107,46.6854849 170.25507,80.7834849" id="Fill-78" fill="#BF4113"></path>
                <path d="M170.25507,80.7834849 C118.14907,66.3114849 65.0530704,91.5594849 20.5520704,112.557485 C4.62207042,108.599485 2.14907042,93.0964849 5.78207042,76.1174849 C62.5480704,35.2354849 99.5070704,18.6534849 166.14607,33.3084849 C172.61907,46.6114849 174.01107,62.9874849 170.25507,80.7834849" id="Fill-79" fill="#FFCF00"></path>
                <path d="M170.25507,80.7834849 C118.14907,66.3114849 65.0530704,91.5594849 20.5520704,112.557485 C14.6000704,111.078485 10.5260704,107.988485 7.94807042,103.810485 C66.5670704,61.3034849 103.74307,44.0594849 172.27607,59.4914849 C172.48407,66.2654849 171.81307,73.4014849 170.25507,80.7834849" id="Fill-80" fill="#769825"></path>
                <path d="M102.36707,331.032485 C108.25707,322.392485 116.08807,314.282485 123.33907,309.560485 C133.48707,302.952485 136.02207,305.243485 128.91807,315.325485 C125.41007,320.304485 120.35007,325.787485 114.45307,330.465485 C110.88107,333.299485 108.98807,334.013485 105.47707,336.067485 C102.99707,337.518485 103.31607,337.593485 105.89907,337.131485 C106.65607,336.997485 107.64607,336.661485 108.76807,336.492485 C113.50407,335.779485 118.12207,335.807485 121.89207,336.603485 C129.00607,338.105485 126.69407,339.297485 121.47207,340.893485 C104.89307,340.893485 89.3070704,340.893485 72.7550704,340.893485 C65.3320704,338.624485 66.8600704,337.930485 73.5990704,336.836485 C76.9270704,336.295485 80.8370704,336.117485 84.8190704,336.543485 C86.2840704,336.699485 87.7560704,337.310485 88.5580704,337.457485 C90.4020704,337.795485 90.7500704,337.535485 88.9670704,336.411485 C86.4820704,334.845485 84.4550704,333.992485 81.8410704,332.066485 C74.8590704,326.917485 69.2390704,321.253485 65.3760704,315.550485 C58.2430704,305.019485 60.1650704,303.084485 70.7320704,309.998485 C77.9170704,314.700485 85.1260704,322.049485 91.3360704,330.567485 C95.5500704,336.347485 94.6150704,332.854485 93.9440704,329.138485 C91.4220704,315.141485 90.8620704,299.120485 92.9730704,288.571485 C95.1140704,277.869485 98.7520704,278.380485 100.93507,289.123485 C103.13807,299.966485 102.67807,315.159485 100.13907,329.213485 C99.5810704,332.296485 97.8930704,337.593485 102.36707,331.032485" id="Fill-81" fill="#9EA32E"></path>
                <path d="M175.45807,179.169485 C178.85307,177.136485 182.49007,176.157485 186.15307,175.292485 C186.82107,175.134485 187.51907,175.395485 187.75407,176.041485 C188.88907,179.175485 190.02507,182.309485 191.16107,185.443485 C191.39607,186.090485 191.08707,186.911485 190.41207,187.044485 C186.37807,187.835485 182.90507,189.225485 179.71807,190.921485 C179.11107,191.244485 178.35107,190.818485 178.11707,190.172485 C176.98107,187.038485 175.84507,183.904485 174.70907,180.769485 C174.47507,180.123485 174.86807,179.522485 175.45807,179.169485" id="Fill-82" fill="#FFCF00"></path>
                <path d="M26.3810704,193.110485 C30.3360704,193.535485 33.9470704,194.589485 37.4010704,195.930485 C38.0420704,196.179485 38.4730704,196.785485 38.3020704,197.451485 C37.4760704,200.681485 36.6500704,203.910485 35.8230704,207.139485 C35.6530704,207.805485 34.9460704,208.283485 34.3020704,208.040485 C30.8680704,206.743485 27.3890704,205.511485 23.2830704,205.220485 C22.5970704,205.172485 22.2110704,204.365485 22.3810704,203.699485 C23.2080704,200.470485 24.0340704,197.241485 24.8600704,194.011485 C25.0310704,193.345485 25.6980704,193.036485 26.3810704,193.110485" id="Fill-83" fill="#769825"></path>
                <path d="M12.4070704,177.313485 C16.3510704,177.824485 19.9390704,178.955485 23.3640704,180.371485 C23.9980704,180.634485 24.4160704,181.249485 24.2310704,181.911485 C23.3350704,185.122485 22.4390704,188.333485 21.5430704,191.543485 C21.3580704,192.205485 20.6410704,192.668485 20.0030704,192.411485 C16.5970704,191.040485 13.1460704,189.733485 9.04607042,189.354485 C8.36207042,189.290485 7.99407042,188.476485 8.17907042,187.813485 C9.07507042,184.602485 9.97107042,181.392485 10.8670704,178.182485 C11.0520704,177.519485 11.7250704,177.225485 12.4070704,177.313485" id="Fill-84" fill="#BF4113"></path>
            </g>
        </g>
    </g>
</svg>