<?xml version="1.0" encoding="UTF-8"?>
<svg width="175px" height="329px" viewBox="0 0 175 329" version="1.1" xmlns="http://www.w3.org/2000/svg" xmlns:xlink="http://www.w3.org/1999/xlink">
    <!-- Generator: Sketch 56.3 (81716) - https://sketch.com -->
    <title>rocker</title>
    <desc>Created with Sketch.</desc>
    <g id="all" stroke="none" stroke-width="1" fill="none" fill-rule="evenodd">
        <g id="iStock-943542898" transform="translate(-569.000000, -107.000000)">
            <g id="rocker" transform="translate(569.642458, 106.937811)">
                <path d="M90.974542,120.461189 C126.321542,120.461189 154.974542,141.616189 154.974542,167.711189 C154.974542,193.807189 126.321542,214.961189 90.974542,214.961189 C55.629542,214.961189 26.975542,193.807189 26.975542,167.711189 C26.975542,141.616189 55.629542,120.461189 90.974542,120.461189" id="Fill-98" fill="#875E32"></path>
                <path d="M173.402542,263.467189 C173.402542,221.442189 134.614542,187.373189 86.766542,187.373189 C38.917542,187.373189 0.129541992,221.442189 0.129541992,263.467189 C0.129541992,266.735189 -0.0744580078,304.333189 0.0295419922,307.943189 C0.334541992,318.486189 3.27854199,328.772189 21.655542,328.772189 L151.825542,328.772189 C170.256542,328.772189 173.200542,318.505189 173.503542,307.954189 C173.607542,304.344189 173.402542,266.744189 173.402542,263.467189" id="Fill-99" fill="#232323"></path>
                <path d="M114.897542,227.729189 C106.230542,235.667189 97.961542,237.327189 87.769542,237.327189 C77.576542,237.327189 63.302542,230.291189 55.384542,220.975189 C54.151542,212.694189 55.062542,195.689189 54.644542,185.437189 L51.537542,109.291189 C75.023542,109.291189 98.508542,109.291189 121.993542,109.291189 L118.522542,193.926189 C116.554542,204.786189 116.512542,216.886189 114.897542,227.729189" id="Fill-100" fill="#F49A6A"></path>
                <path d="M54.709542,207.400189 C54.676542,199.843189 54.890542,191.470189 54.644542,185.437189 C54.596542,184.258189 54.548542,183.079189 54.500542,181.900189 C75.976542,190.423189 98.342542,190.185189 119.015542,181.900189 C118.851542,185.909189 118.686542,189.918189 118.522542,193.926189 C117.734542,198.272189 117.256542,202.816189 116.860542,207.400189 C96.319542,214.404189 75.651542,216.400189 54.709542,207.400189" id="Fill-101" fill="#2A2A2A"></path>
                <path d="M49.562542,328.772189 L123.969542,328.772189 C125.521542,323.890189 126.368542,318.617189 126.368542,313.116189 C126.237542,258.399189 47.163542,258.386189 47.163542,313.116189 C47.163542,318.617189 48.011542,323.890189 49.562542,328.772189" id="Fill-102" fill="#4D4D4D"></path>
                <path d="M153.123542,42.2241886 C153.888542,51.6941886 155.704542,61.4421886 155.704542,71.6381886 C155.704542,131.362189 124.840542,179.777189 86.765542,179.777189 C48.692542,179.777189 17.826542,131.362189 17.826542,71.6381886 C17.826542,55.7551886 20.010542,40.6731886 23.930542,27.0881886 C44.326542,8.03618859 149.643542,-0.867811415 153.123542,42.2241886" id="Fill-103" fill="#FAB385"></path>
                <path d="M102.291542,328.772189 C102.294542,328.719189 102.299542,328.671189 102.308542,328.629189 C103.271542,323.752189 106.459542,327.496189 111.410542,321.924189 C116.407542,316.302189 115.640542,306.893189 113.838542,300.192189 C112.066542,293.607189 109.006542,288.182189 104.433542,284.757189 C93.394542,276.491189 76.462542,276.373189 66.114542,287.121189 C59.684542,293.798189 55.099542,316.028189 62.602542,322.228189 C66.497542,325.446189 69.277542,325.335189 71.069542,328.772189 L102.291542,328.772189" id="Fill-104" fill="#666666"></path>
                <path d="M84.143542,87.1961886 C80.202542,84.4351886 78.977542,84.5251886 69.743542,83.5631886 C56.542542,82.1881886 47.371542,81.8131886 33.229542,81.8131886 C29.560542,81.8131886 27.511542,82.8461886 28.156542,86.7641886 C29.884542,97.2571886 31.897542,103.666189 36.069542,107.740189 C40.418542,111.988189 47.115542,115.703189 58.280542,116.867189 C73.183542,118.420189 79.048542,108.848189 83.155542,98.3771886 C84.461542,95.0461886 84.332542,93.9181886 86.486542,93.6901886 C86.584542,93.6801886 86.677542,93.6731886 86.765542,93.6701886 C86.854542,93.6731886 86.946542,93.6801886 87.044542,93.6901886 C89.198542,93.9181886 89.069542,95.0461886 90.375542,98.3771886 C94.482542,108.848189 100.347542,118.420189 115.250542,116.867189 C126.416542,115.703189 133.113542,111.988189 137.461542,107.740189 C141.633542,103.666189 143.646542,97.2571886 145.374542,86.7641886 C146.019542,82.8461886 143.969542,81.8131886 140.301542,81.8131886 C126.159542,81.8131886 116.988542,82.1881886 103.787542,83.5631886 C94.553542,84.5251886 93.328542,84.4351886 89.387542,87.1961886 C88.961542,87.4941886 87.824542,87.6911886 86.765542,87.7491886 C85.706542,87.6911886 84.569542,87.4941886 84.143542,87.1961886" id="Fill-105" fill="#272727"></path>
                <path d="M86.583542,283.043189 C96.286542,283.043189 104.709542,289.067189 108.360542,297.810189 C111.238542,304.701189 111.153542,315.592189 106.397542,320.531189 C104.377542,322.628189 97.073542,321.281189 95.829542,323.113189 C95.308542,323.879189 95.439542,326.427189 95.469542,328.772189 L77.097542,328.772189 C77.280542,326.652189 77.675542,324.299189 77.097542,323.225189 C76.350542,321.836189 68.724542,323.113189 66.998542,321.037189 C62.500542,315.626189 62.153542,305.131189 64.500542,298.610189 C67.827542,289.363189 76.576542,283.043189 86.583542,283.043189 Z M72.936542,304.247189 C77.143542,302.819189 81.584542,304.693189 82.854542,308.433189 C84.124542,312.173189 81.742542,316.363189 77.534542,317.791189 C73.327542,319.220189 68.887542,317.346189 67.617542,313.606189 C66.347542,309.866189 68.729542,305.677189 72.936542,304.247189 Z M100.427542,304.247189 C96.219542,302.819189 91.779542,304.693189 90.509542,308.433189 C89.239542,312.173189 91.620542,316.363189 95.828542,317.791189 C100.035542,319.220189 104.476542,317.346189 105.745542,313.606189 C107.016542,309.866189 104.634542,305.677189 100.427542,304.247189 Z M85.264542,315.839188 C85.765542,315.840189 85.957542,316.556189 86.047542,317.676189 C86.184542,319.382189 87.190542,319.333189 87.297542,317.753189 C87.376542,316.588189 87.579542,315.839188 88.098542,315.839188 C89.020542,315.839188 90.302542,318.801189 90.302542,321.656189 C90.302542,324.511189 90.091542,325.395189 89.169542,325.395189 C87.541542,325.395189 85.822542,325.395189 84.194542,325.395189 C83.272542,325.395189 83.060542,324.511189 83.060542,321.656189 C83.060542,318.801189 84.608542,315.838189 85.264542,315.839188 L85.264542,315.839188 Z" id="Fill-106" fill="#DADAC5"></path>
                <path d="M54.792542,192.725189 C22.769542,203.900189 0.129541992,231.360189 0.129541992,263.467189 C0.129541992,266.735189 -0.0744580078,304.333189 0.0295419922,307.943189 C0.334541992,318.486189 3.27854199,328.772189 21.655542,328.772189 L51.407542,328.772189 C54.413542,286.906189 57.184542,236.859189 54.792542,192.725189 Z M118.740542,192.725189 C150.762542,203.900189 173.403542,231.360189 173.403542,263.467189 C173.403542,266.735189 173.607542,304.333189 173.503542,307.943189 C173.198542,318.486189 170.254542,328.772189 151.876542,328.772189 L119.625542,328.772189 C115.735542,285.071189 110.440542,238.222189 118.740542,192.725189 L118.740542,192.725189 Z" id="Fill-107" fill="#333333"></path>
                <path d="M47.774542,328.772189 L51.407542,328.772189 C53.769542,295.878189 55.985542,257.934189 55.666542,221.776189 L53.698542,222.936189 L47.774542,328.772189" id="Fill-108" fill="#B3B3B3"></path>
                <path d="M44.164542,236.502189 C45.711542,236.502189 46.966542,237.756189 46.966542,239.304189 C46.966542,240.852189 45.711542,242.106189 44.164542,242.106189 C42.616542,242.106189 41.362542,240.852189 41.362542,239.304189 C41.362542,237.756189 42.616542,236.502189 44.164542,236.502189" id="Fill-109" fill="#A4AEAE"></path>
                <path d="M33.797542,236.502189 C35.344542,236.502189 36.599542,237.756189 36.599542,239.304189 C36.599542,240.852189 35.344542,242.106189 33.797542,242.106189 C32.250542,242.106189 30.995542,240.852189 30.995542,239.304189 C30.995542,237.756189 32.250542,236.502189 33.797542,236.502189" id="Fill-110" fill="#A4AEAE"></path>
                <path d="M173.402542,263.467189 C173.402542,245.500189 166.308542,228.991189 154.452542,215.974189 C150.208542,228.790189 147.836542,243.071189 147.836542,258.129189 C147.836542,260.248189 147.795542,296.280189 147.764542,328.772189 L151.825542,328.772189 C170.256542,328.772189 173.200542,318.505189 173.503542,307.954189 C173.607542,304.344189 173.402542,266.744189 173.402542,263.467189 Z M19.079542,215.973189 C7.22354199,228.991189 0.129541992,245.500189 0.129541992,263.467189 C0.129541992,266.735189 -0.0744580078,304.333189 0.0295419922,307.943189 C0.334541992,318.486189 3.27854199,328.772189 21.655542,328.772189 L25.768542,328.772189 C25.736542,296.280189 25.696542,260.248189 25.696542,258.129189 C25.696542,243.071189 23.324542,228.789189 19.079542,215.973189 L19.079542,215.973189 Z" id="Fill-111" fill="#2A2A2A"></path>
                <path d="M122.412542,328.772189 L118.780542,328.772189 C116.417542,295.878189 114.201542,257.934189 114.520542,221.776189 L116.489542,222.936189 L122.412542,328.772189" id="Fill-112" fill="#B3B3B3"></path>
                <path d="M51.352542,204.819189 C51.886542,207.010189 53.571542,212.332189 56.182542,218.709189 C57.932542,222.983189 60.100542,227.726189 62.618542,232.306189 C70.385542,246.432189 75.242542,253.763189 80.046542,254.304189 C84.791542,254.838189 90.282542,248.710189 99.377542,235.927189 C103.570542,230.034189 106.838542,223.560189 110.090542,217.117189 C112.261542,212.814189 114.427542,208.525189 116.860542,204.409189 L119.438542,205.932189 C117.041542,209.985189 114.904542,214.219189 112.761542,218.465189 C109.460542,225.004189 106.143542,231.577189 101.814542,237.661189 C92.032542,251.410189 85.890542,257.975189 79.718542,257.281189 C73.605542,256.593189 68.255542,248.773189 59.993542,233.747189 C57.429542,229.083189 55.212542,224.230189 53.417542,219.846189 C50.742542,213.314189 49.003542,207.808189 48.446542,205.522189 L51.352542,204.819189" id="Fill-113" fill="#B3B3B3"></path>
                <path d="M79.138542,254.932189 L88.437542,258.311189 C89.323542,258.633189 89.784542,259.621189 89.462542,260.505189 L82.182542,280.535189 C81.860542,281.419189 80.873542,281.880189 79.987542,281.559189 L70.688542,278.179189 C69.803542,277.857189 69.342542,276.870189 69.664542,275.985189 L76.944542,255.956189 C77.265542,255.071189 78.253542,254.610189 79.138542,254.932189" id="Fill-114" fill="#B3B3B3"></path>
                <path d="M44.164542,249.504189 C45.711542,249.504189 46.966542,250.758189 46.966542,252.306189 C46.966542,253.853189 45.711542,255.107189 44.164542,255.107189 C42.616542,255.107189 41.362542,253.853189 41.362542,252.306189 C41.362542,250.758189 42.616542,249.504189 44.164542,249.504189" id="Fill-115" fill="#A4AEAE"></path>
                <path d="M33.797542,249.504189 C35.344542,249.504189 36.599542,250.758189 36.599542,252.306189 C36.599542,253.853189 35.344542,255.107189 33.797542,255.107189 C32.250542,255.107189 30.995542,253.853189 30.995542,252.306189 C30.995542,250.758189 32.250542,249.504189 33.797542,249.504189" id="Fill-116" fill="#A4AEAE"></path>
                <path d="M44.164542,262.896189 C45.711542,262.896189 46.966542,264.151189 46.966542,265.698189 C46.966542,267.246189 45.711542,268.500189 44.164542,268.500189 C42.616542,268.500189 41.362542,267.246189 41.362542,265.698189 C41.362542,264.151189 42.616542,262.896189 44.164542,262.896189" id="Fill-117" fill="#A4AEAE"></path>
                <path d="M33.797542,262.896189 C35.344542,262.896189 36.599542,264.151189 36.599542,265.698189 C36.599542,267.246189 35.344542,268.500189 33.797542,268.500189 C32.250542,268.500189 30.995542,267.246189 30.995542,265.698189 C30.995542,264.151189 32.250542,262.896189 33.797542,262.896189" id="Fill-118" fill="#A4AEAE"></path>
                <path d="M44.164542,275.897189 C45.711542,275.897189 46.966542,277.152189 46.966542,278.699189 C46.966542,280.247189 45.711542,281.501189 44.164542,281.501189 C42.616542,281.501189 41.362542,280.247189 41.362542,278.699189 C41.362542,277.152189 42.616542,275.897189 44.164542,275.897189" id="Fill-119" fill="#A4AEAE"></path>
                <path d="M33.797542,275.897189 C35.344542,275.897189 36.599542,277.152189 36.599542,278.699189 C36.599542,280.247189 35.344542,281.501189 33.797542,281.501189 C32.250542,281.501189 30.995542,280.247189 30.995542,278.699189 C30.995542,277.152189 32.250542,275.897189 33.797542,275.897189" id="Fill-120" fill="#A4AEAE"></path>
                <path d="M138.664542,236.502189 C140.211542,236.502189 141.466542,237.756189 141.466542,239.304189 C141.466542,240.852189 140.211542,242.106189 138.664542,242.106189 C137.116542,242.106189 135.862542,240.852189 135.862542,239.304189 C135.862542,237.756189 137.116542,236.502189 138.664542,236.502189" id="Fill-121" fill="#A4AEAE"></path>
                <path d="M128.297542,236.502189 C129.844542,236.502189 131.099542,237.756189 131.099542,239.304189 C131.099542,240.852189 129.844542,242.106189 128.297542,242.106189 C126.750542,242.106189 125.495542,240.852189 125.495542,239.304189 C125.495542,237.756189 126.750542,236.502189 128.297542,236.502189" id="Fill-122" fill="#A4AEAE"></path>
                <path d="M138.664542,249.504189 C140.211542,249.504189 141.466542,250.758189 141.466542,252.306189 C141.466542,253.853189 140.211542,255.107189 138.664542,255.107189 C137.116542,255.107189 135.862542,253.853189 135.862542,252.306189 C135.862542,250.758189 137.116542,249.504189 138.664542,249.504189" id="Fill-123" fill="#A4AEAE"></path>
                <path d="M128.297542,249.504189 C129.844542,249.504189 131.099542,250.758189 131.099542,252.306189 C131.099542,253.853189 129.844542,255.107189 128.297542,255.107189 C126.750542,255.107189 125.495542,253.853189 125.495542,252.306189 C125.495542,250.758189 126.750542,249.504189 128.297542,249.504189" id="Fill-124" fill="#A4AEAE"></path>
                <path d="M138.664542,262.896189 C140.211542,262.896189 141.466542,264.151189 141.466542,265.698189 C141.466542,267.246189 140.211542,268.500189 138.664542,268.500189 C137.116542,268.500189 135.862542,267.246189 135.862542,265.698189 C135.862542,264.151189 137.116542,262.896189 138.664542,262.896189" id="Fill-125" fill="#A4AEAE"></path>
                <path d="M128.297542,262.896189 C129.844542,262.896189 131.099542,264.151189 131.099542,265.698189 C131.099542,267.246189 129.844542,268.500189 128.297542,268.500189 C126.750542,268.500189 125.495542,267.246189 125.495542,265.698189 C125.495542,264.151189 126.750542,262.896189 128.297542,262.896189" id="Fill-126" fill="#A4AEAE"></path>
                <path d="M138.664542,275.897189 C140.211542,275.897189 141.466542,277.152189 141.466542,278.699189 C141.466542,280.247189 140.211542,281.501189 138.664542,281.501189 C137.116542,281.501189 135.862542,280.247189 135.862542,278.699189 C135.862542,277.152189 137.116542,275.897189 138.664542,275.897189" id="Fill-127" fill="#A4AEAE"></path>
                <path d="M128.297542,275.897189 C129.844542,275.897189 131.099542,277.152189 131.099542,278.699189 C131.099542,280.247189 129.844542,281.501189 128.297542,281.501189 C126.750542,281.501189 125.495542,280.247189 125.495542,278.699189 C125.495542,277.152189 126.750542,275.897189 128.297542,275.897189" id="Fill-128" fill="#A4AEAE"></path>
                <path d="M62.082542,189.504189 C63.630542,189.504189 64.884542,190.758189 64.884542,192.306189 C64.884542,193.853189 63.630542,195.107189 62.082542,195.107189 C60.535542,195.107189 59.281542,193.853189 59.281542,192.306189 C59.281542,190.758189 60.535542,189.504189 62.082542,189.504189" id="Fill-129" fill="#A4AEAE"></path>
                <path d="M74.532542,191.903189 C76.080542,191.903189 77.334542,193.158189 77.334542,194.706189 C77.334542,196.253189 76.080542,197.507189 74.532542,197.507189 C72.985542,197.507189 71.731542,196.253189 71.731542,194.706189 C71.731542,193.158189 72.985542,191.903189 74.532542,191.903189" id="Fill-130" fill="#A4AEAE"></path>
                <path d="M87.133542,192.729189 C88.680542,192.729189 89.934542,193.983189 89.934542,195.530189 C89.934542,197.078189 88.680542,198.332189 87.133542,198.332189 C85.585542,198.332189 84.331542,197.078189 84.331542,195.530189 C84.331542,193.983189 85.585542,192.729189 87.133542,192.729189" id="Fill-131" fill="#A4AEAE"></path>
                <path d="M99.133542,191.903189 C100.680542,191.903189 101.934542,193.158189 101.934542,194.706189 C101.934542,196.253189 100.680542,197.507189 99.133542,197.507189 C97.585542,197.507189 96.331542,196.253189 96.331542,194.706189 C96.331542,193.158189 97.585542,191.903189 99.133542,191.903189" id="Fill-132" fill="#A4AEAE"></path>
                <path d="M111.433542,189.504189 C112.980542,189.504189 114.235542,190.758189 114.235542,192.306189 C114.235542,193.853189 112.980542,195.107189 111.433542,195.107189 C109.886542,195.107189 108.631542,193.853189 108.631542,192.306189 C108.631542,190.758189 109.886542,189.504189 111.433542,189.504189" id="Fill-133" fill="#A4AEAE"></path>
                <path d="M62.082542,200.604189 C63.630542,200.604189 64.884542,201.858189 64.884542,203.405189 C64.884542,204.953189 63.630542,206.207189 62.082542,206.207189 C60.535542,206.207189 59.281542,204.953189 59.281542,203.405189 C59.281542,201.858189 60.535542,200.604189 62.082542,200.604189" id="Fill-134" fill="#A4AEAE"></path>
                <path d="M74.532542,203.004189 C76.080542,203.004189 77.334542,204.258189 77.334542,205.806189 C77.334542,207.353189 76.080542,208.607189 74.532542,208.607189 C72.985542,208.607189 71.731542,207.353189 71.731542,205.806189 C71.731542,204.258189 72.985542,203.004189 74.532542,203.004189" id="Fill-135" fill="#A4AEAE"></path>
                <path d="M87.133542,203.829189 C88.680542,203.829189 89.934542,205.083189 89.934542,206.630189 C89.934542,208.177189 88.680542,209.432189 87.133542,209.432189 C85.585542,209.432189 84.331542,208.177189 84.331542,206.630189 C84.331542,205.083189 85.585542,203.829189 87.133542,203.829189" id="Fill-136" fill="#A4AEAE"></path>
                <path d="M99.133542,203.004189 C100.680542,203.004189 101.934542,204.258189 101.934542,205.806189 C101.934542,207.353189 100.680542,208.607189 99.133542,208.607189 C97.585542,208.607189 96.331542,207.353189 96.331542,205.806189 C96.331542,204.258189 97.585542,203.004189 99.133542,203.004189" id="Fill-137" fill="#A4AEAE"></path>
                <path d="M111.433542,200.604189 C112.980542,200.604189 114.235542,201.858189 114.235542,203.405189 C114.235542,204.953189 112.980542,206.207189 111.433542,206.207189 C109.886542,206.207189 108.631542,204.953189 108.631542,203.405189 C108.631542,201.858189 109.886542,200.604189 111.433542,200.604189" id="Fill-138" fill="#A4AEAE"></path>
                <path d="M123.116542,84.4621886 C126.737542,84.4641886 128.640542,84.3771886 128.937542,85.9511886 C129.512542,89.0021886 121.536542,94.8591886 111.437542,96.4511886 C101.338542,98.0431886 94.096542,92.8901886 93.684542,89.7311886 C93.070542,85.0101886 118.263542,84.4581886 123.116542,84.4621886 Z M71.739542,86.9481886 C75.992542,87.6251886 78.242542,87.8751886 78.350542,89.7911886 C78.559542,93.5041886 68.292542,98.9411886 56.185542,98.9411886 C44.076542,98.9411886 36.356542,91.5021886 36.356542,87.6911886 C36.356542,81.9981886 66.039542,86.0401886 71.739542,86.9481886 L71.739542,86.9481886 Z" id="Fill-139" fill="#383838"></path>
                <path d="M57.282542,169.109189 C57.205542,168.787189 59.806542,140.228189 66.111542,138.586189 C80.325542,134.885189 94.939542,134.833189 109.126542,138.586189 C114.642542,140.044189 117.300542,169.719189 117.249542,169.958189 C114.803542,181.415189 60.965542,184.456189 57.282542,169.109189 Z M73.259542,166.764189 C79.355542,167.499189 79.284542,166.329189 81.231542,159.999189 C82.171542,156.941189 84.080542,157.120189 87.651542,156.916189 C91.222542,157.120189 93.756542,157.010189 94.697542,160.068189 C96.643542,166.399189 96.780542,167.221189 102.876542,166.487189 C109.483542,165.691189 109.898542,164.895189 109.327542,158.356189 L108.614542,150.181189 C108.353542,147.198189 107.245542,144.777189 104.027542,144.269189 C88.011542,141.742189 86.115542,141.742189 70.100542,144.269189 C66.882542,144.777189 65.775542,149.199189 65.513542,152.182189 L64.805542,158.304189 C64.182542,165.382189 65.211542,165.794189 73.259542,166.764189 L73.259542,166.764189 Z" id="Fill-140" fill="#875E32"></path>
                <path d="M161.856542,102.226189 C165.270542,116.026189 161.637542,136.550189 160.420542,158.458189 C165.758542,168.273189 162.980542,181.370189 161.160542,190.966189 C165.120542,200.766189 166.087542,209.542189 155.097542,216.687189 C146.310542,206.800189 134.802542,198.869189 121.561542,193.763189 C121.315542,172.774189 137.831542,157.908189 140.348542,140.465189 C142.261542,127.210189 143.777542,113.685189 144.269542,100.588189 C145.208542,75.6111886 137.981542,54.4901886 129.736542,49.4201886 C122.886542,45.2081886 119.735542,43.9831886 107.724542,39.9241886 C99.136542,37.0221886 93.499542,34.7481886 91.893542,25.2011886 C91.229542,21.2511886 90.418542,17.5121886 88.979542,16.2331886 C87.171542,17.2071886 88.041542,20.8821886 88.311542,25.0201886 C89.315542,40.3711886 68.966542,62.7331886 57.909542,71.3001886 C44.059542,82.0311886 37.096542,95.6861886 38.067542,113.482189 C40.274542,153.911189 45.922542,157.949189 50.312542,194.419189 C37.324542,199.718189 26.084542,207.761189 17.552542,217.698189 C11.009542,203.661189 9.38154199,179.293189 15.527542,166.315189 C7.97954199,157.785189 10.923542,145.767189 14.357542,117.427189 C8.32654199,69.4051886 3.54254199,23.0621886 56.286542,3.72618859 C68.852542,-0.880811415 81.905542,-1.82081141 88.001542,4.38418859 C116.340542,-10.5218114 145.393542,21.0581886 151.469542,32.3231886 C162.598542,52.9621886 161.920542,85.4451886 161.856542,102.226189" id="Fill-141" fill="#986B3A"></path>
                <path d="M105.750542,33.9991886 C125.115542,41.4831886 143.711542,48.8001886 156.292542,64.7701886 C149.469542,43.4741886 150.139542,29.6221886 130.006542,17.1281886 C80.009542,-13.8948114 91.751542,28.5881886 105.750542,33.9991886" id="Fill-142" fill="#B37F48"></path>
                <path d="M63.886542,56.5091886 C56.242542,64.0631886 44.585542,68.7491886 36.878542,77.9561886 C28.074542,88.4711886 23.419542,103.423189 18.342542,109.919189 C15.904542,86.0181886 12.955542,62.3261886 19.390542,43.8821886 C23.451542,32.2441886 32.951542,19.7671886 40.729542,14.7291886 C62.758542,0.458188585 78.991542,2.04218859 82.168542,10.0821886 C88.977542,27.3191886 74.798542,45.7241886 63.886542,56.5091886" id="Fill-143" fill="#B37F48"></path>
                <path d="M79.340542,279.540189 L72.614542,277.271189 C72.125542,277.106189 70.553542,276.129189 71.626542,274.996189 L84.816542,261.076189 C87.647542,258.088189 87.623542,261.230189 87.374542,261.918189 L81.356542,278.525189 C81.057542,279.351189 80.171542,279.820189 79.340542,279.540189" id="Fill-144" fill="#E6E6E6"></path>
                <path d="M35.600542,191.163189 C34.053542,185.020189 30.330542,179.344189 29.086542,172.291189 C27.666542,164.235189 28.787542,154.900189 28.055542,150.020189 C22.315542,162.278189 16.412542,174.286189 15.306542,185.987189 C14.608542,193.371189 15.916542,202.674189 18.019542,207.494189 C19.059542,209.878189 20.125542,211.954189 21.192542,213.737189 C25.959542,208.893189 31.411542,204.583189 37.415542,200.923189 C37.015542,197.399189 36.319542,194.017189 35.600542,191.163189" id="Fill-145" fill="#B37F48"></path>
                <path d="M24.817542,203.294189 C39.635542,207.551189 49.906542,228.610189 55.576542,242.317189 C56.019542,235.938189 56.178542,229.051189 55.987542,221.902189 C55.661542,209.744189 54.527542,186.765189 54.176542,174.841189 C39.250542,180.250189 28.698542,190.884189 24.423542,194.791189 C19.859542,198.962189 18.182542,201.389189 24.817542,203.294189 Z M137.243542,206.720189 C123.594542,212.522189 120.104542,227.484189 114.434542,241.192189 C112.472542,223.839189 118.136542,194.004189 119.134542,175.142189 C129.709542,180.849189 142.188542,192.504189 144.261542,196.215189 C147.608542,202.206189 143.780542,203.941189 137.243542,206.720189 L137.243542,206.720189 Z" id="Fill-146" fill="#555555"></path>
                <path d="M29.602542,201.781189 C25.424542,199.155189 22.036542,201.095189 27.157542,196.027189 C29.967542,193.246189 35.359542,189.029189 38.312542,187.254189 C41.456542,185.363189 42.177542,187.117189 42.183542,189.431189 C42.201542,195.826189 41.479542,194.678189 44.381542,201.923189 C45.654542,205.100189 47.801542,208.522189 48.860542,212.008189 C49.730542,214.872189 50.259542,217.606189 50.484542,219.624189 C50.844542,222.869189 50.294542,224.558189 47.794542,221.077189 C41.757542,212.673189 39.047542,207.714189 29.602542,201.781189" id="Fill-147" fill="#666666"></path>
                <path d="M127.305542,200.280189 C132.083542,194.656189 133.071542,192.169189 127.951542,187.102189 C124.699542,183.883189 118.851542,178.321189 118.850542,178.931189 C118.841542,182.322189 117.034542,195.467189 116.594542,199.472189 C115.803542,206.659189 115.100542,214.365189 114.374542,220.899189 C114.014542,224.144189 114.757542,226.247189 115.939542,222.127189 C119.125542,211.024189 120.086542,208.780189 127.305542,200.280189" id="Fill-148" fill="#494949"></path>
            </g>
        </g>
    </g>
</svg>