<?xml version="1.0" encoding="UTF-8"?>
<svg width="201px" height="354px" viewBox="0 0 201 354" version="1.1" xmlns="http://www.w3.org/2000/svg" xmlns:xlink="http://www.w3.org/1999/xlink">
    <!-- Generator: Sketch 56.3 (81716) - https://sketch.com -->
    <title>youngun</title>
    <desc>Created with Sketch.</desc>
    <g id="all" stroke="none" strokeWidth="1" fill="none" fill-rule="evenodd">
        <g id="iStock-943542898" transform="translate(-788.000000, -898.000000)">
            <g id="youngun" transform="translate(788.060367, 898.433811)">
                <path d="M200.821633,288.189189 C200.821633,246.163189 162.033633,212.094189 114.185633,212.094189 C66.3376326,212.094189 27.5486326,246.163189 27.5486326,288.189189 C27.5486326,291.457189 27.3446326,329.055189 27.4486326,332.665189 C27.7536326,343.207189 30.6976326,353.494189 49.0756326,353.494189 L179.244633,353.494189 C197.675633,353.494189 200.620633,343.226189 200.922633,332.675189 C201.026633,329.066189 200.821633,291.465189 200.821633,288.189189" id="Fill-22" fill="#DADAC5"></path>
                <path d="M200.821633,288.189189 C200.821633,270.222189 193.727633,253.713189 181.872633,240.695189 C177.627633,253.511189 175.256633,267.792189 175.256633,282.851189 C175.256633,284.969189 175.215633,321.001189 175.183633,353.494189 L179.244633,353.494189 C197.675633,353.494189 200.620633,343.226189 200.922633,332.675189 C201.026633,329.066189 200.821633,291.465189 200.821633,288.189189 Z M46.4996326,240.694189 C34.6426326,253.712189 27.5486326,270.222189 27.5486326,288.189189 C27.5486326,291.457189 27.3446326,329.055189 27.4486326,332.665189 C27.7536326,343.207189 30.6976326,353.494189 49.0756326,353.494189 L53.1876326,353.494189 C53.1566326,321.001189 53.1166326,284.969189 53.1166326,282.851189 C53.1166326,267.792189 50.7436326,253.511189 46.4996326,240.694189 L46.4996326,240.694189 Z" id="Fill-23" fill="#333333"></path>
                <path d="M171.182633,230.884189 C169.467633,227.795189 167.071633,226.123189 163.985633,225.918189 C164.115633,227.661189 164.185633,229.424189 164.185633,231.207189 C164.185633,263.930189 141.800633,290.457189 114.185633,290.457189 C86.5716326,290.457189 64.1856326,263.930189 64.1856326,231.207189 C64.1856326,229.424189 64.2566326,227.661189 64.3866326,225.918189 C61.5286326,226.325189 59.4626326,226.445189 57.8146326,230.258189 C57.8146326,230.366189 57.8116326,230.474189 57.8116326,230.582189 C57.8116326,267.886189 82.7056326,298.752189 114.185633,298.752189 C145.666633,298.752189 171.185633,268.511189 171.185633,231.207189 C171.185633,231.099189 171.182633,230.992189 171.182633,230.884189" id="Fill-24" fill="#E8B003"></path>
                <path d="M150.806633,219.212189 C156.600633,266.598189 147.197633,305.858189 127.788633,308.520189 C108.378633,311.184189 84.7726326,271.826189 77.0906326,221.397189 C77.0196326,220.927189 76.9486326,220.458189 76.8806326,219.990189 C76.4116326,216.770189 72.4426326,220.490189 71.9806326,221.588189 C72.0056326,221.755189 72.0296326,221.921189 72.0546326,222.088189 C75.4476326,244.360189 82.1596326,265.372189 89.4326326,281.655189 C100.930633,307.402189 115.111633,316.706189 128.985633,314.803189 C141.697633,313.059189 151.572633,303.319189 155.583633,279.242189 C158.297633,262.946189 158.670633,243.059189 156.228633,221.645189 C155.504633,219.505189 152.352633,218.283189 150.806633,219.212189" id="Fill-25" fill="#D3A105"></path>
                <path d="M132.625633,311.958189 C140.633633,311.958189 147.125633,318.450189 147.125633,326.458189 C147.125633,334.466189 140.633633,340.958189 132.625633,340.958189 C124.616633,340.958189 118.125633,334.466189 118.125633,326.458189 C118.125633,318.450189 124.616633,311.958189 132.625633,311.958189" id="Fill-26" fill="#D3A105"></path>
                <path d="M139.835633,317.833189 C139.835633,322.644189 129.315633,330.685189 123.271633,330.325189 C120.660633,330.170189 120.873633,327.640189 120.852633,325.583189 C120.815633,321.861189 122.519633,318.743189 125.193633,316.978189 C126.586633,316.058189 128.817633,315.066189 131.199633,314.647189 C134.191633,314.122189 139.835633,313.756189 139.835633,317.833189" id="Fill-27" fill="#E8B003"></path>
                <path d="M146.493633,205.190189 C156.695633,209.284189 175.798633,212.732189 167.436633,226.053189 C166.814633,227.044189 164.429633,226.332189 162.855633,226.257189 C152.443633,225.767189 138.812633,236.893189 123.050633,246.632189 C120.208633,248.388189 118.506633,251.309189 115.435633,252.803189 C113.129633,251.581189 88.0196326,238.569189 70.7586326,232.151189 C61.3106326,228.638189 61.4206326,228.282189 59.8106326,227.928189 C54.3246326,226.720189 53.6746326,212.880189 59.0676326,208.255189 C71.3396326,197.730189 89.5546326,199.457189 104.614633,200.901189 C120.320633,202.406189 136.841633,205.509189 146.493633,205.190189" id="Fill-28" fill="#3D3D3D"></path>
                <path d="M138.864633,231.370189 C122.031633,231.120189 106.323633,230.120189 89.4896326,229.870189 C98.6576326,234.703189 109.073633,243.349189 116.114633,248.307189 C121.906633,240.599189 131.198633,235.953189 138.864633,231.370189" id="Fill-29" fill="#8ADD8A"></path>
                <path d="M104.803633,201.058189 C129.035633,201.058189 164.093633,214.700189 164.303971,219.809189 C164.381633,221.702189 150.967633,219.465189 146.342633,220.931189 C138.495633,223.419189 125.877633,225.558189 110.553633,225.558189 C99.7396326,225.558189 90.2156326,220.847189 82.5666326,219.491189 C77.6976326,218.628189 73.6816326,217.679189 70.9226326,216.581189 C65.5886326,214.461189 65.1576326,207.909189 68.5586326,205.745189 C74.2786326,202.105189 88.2146326,201.058189 104.803633,201.058189" id="Fill-30" fill="#2A2A2A"></path>
                <path d="M92.7026326,123.464189 L58.3906326,88.2451891 C9.58963264,103.655189 -3.34436736,113.875189 0.690632643,122.275189 C2.12563264,125.263189 5.47563264,129.320189 9.22363264,130.301189 C25.3696326,134.531189 59.8796326,121.207189 92.7026326,123.464189" id="Fill-31" fill="#2A2A2A"></path>
                <path d="M55.8226326,153.931189 C46.3596326,151.624189 37.4706326,137.758189 35.2346326,120.995189 C33.7006326,109.500189 38.1486326,106.368189 45.5186326,105.948189 C46.5016326,123.477189 50.1476326,139.806189 55.8226326,153.931189" id="Fill-32" fill="#995542"></path>
                <path d="M172.554633,153.931189 C182.017633,151.624189 190.906633,137.758189 193.142633,120.995189 C194.676633,109.500189 190.228633,106.368189 182.858633,105.948189 C181.875633,123.477189 178.229633,139.806189 172.554633,153.931189 Z M149.413633,134.012189 C148.254633,162.263189 147.095633,190.514189 145.937633,218.764189 C144.828633,245.810189 83.3106326,240.735189 82.4126326,218.697189 C81.2616326,190.469189 80.1086326,162.240189 78.9576326,134.012189 C102.442633,134.012189 125.927633,134.012189 149.413633,134.012189 L149.413633,134.012189 Z" id="Fill-33" fill="#995542"></path>
                <path d="M180.543633,66.9441891 C181.307633,76.4161891 183.124633,86.1631891 183.124633,96.3591891 C183.124633,156.083189 152.259633,204.499189 114.185633,204.499189 C76.1116326,204.499189 45.2466326,156.083189 45.2466326,96.3591891 C45.2466326,80.4771891 47.4296326,65.3951891 51.3496326,51.8101891 C71.7456326,32.7571891 177.062633,23.8541891 180.543633,66.9441891" id="Fill-34" fill="#BC6957"></path>
                <path d="M38.3336326,98.9771891 C37.6806326,87.3001891 38.0386326,65.7081891 39.5446326,47.4591891 C44.6526326,-14.4388109 164.043633,-9.8778109 174.037633,27.3391891 C178.421633,43.6651891 181.510633,64.7371891 183.088633,78.2451891 C183.753633,83.9451891 184.529633,83.1301891 179.352633,82.3691891 C158.766633,79.3371891 134.967633,78.9501891 112.787633,81.0701891 C89.1356326,83.8611891 59.0416326,90.7881891 38.3336326,98.9771891" id="Fill-35" fill="#353535"></path>
                <path d="M42.5016326,81.6861891 C41.9136326,64.1981891 41.5806326,43.8131891 47.8786326,31.6621891 C54.5296326,18.8301891 67.1846326,9.8821891 90.4046326,6.7391891 C144.111633,-0.5148109 155.586633,16.9551891 162.902633,55.7071891 C166.442633,74.4591891 164.986633,72.9021891 145.788633,71.8201891 C132.471633,71.0691891 120.366633,73.5751891 107.055633,74.8041891 C88.9936326,76.8001891 67.2606326,83.3781891 50.4926326,89.2781891 C42.5486326,92.0741891 42.7366326,88.6921891 42.5016326,81.6861891" id="Fill-36" fill="#474747"></path>
                <path d="M79.3996326,94.5051891 C95.6016326,91.8411891 110.293633,96.3301891 114.850633,104.780189 C119.612633,96.4611891 134.569633,92.0601891 151.054633,94.6971891 C170.110633,97.7461891 181.048633,107.350189 178.792633,123.775189 C174.322633,156.302189 124.537633,146.770189 114.790633,121.411189 C105.187633,146.801189 56.6646326,156.309189 52.3036326,123.695189 C50.0986326,107.207189 60.7846326,97.5661891 79.3996326,94.5051891" id="Fill-37" fill="#E8B003"></path>
                <path d="M80.0806326,98.5381891 C96.0716326,95.9821891 110.352633,101.309189 111.682633,110.480189 C115.817633,138.980189 61.1196326,154.295189 56.8036326,122.913189 C54.9086326,109.144189 64.0886326,101.093189 80.0806326,98.5381891 Z M150.259633,98.5381891 C134.268633,95.9821891 119.987633,101.309189 118.657633,110.480189 C114.522633,138.980189 169.220633,154.295189 173.537633,122.913189 C175.430633,109.144189 166.251633,101.093189 150.259633,98.5381891 L150.259633,98.5381891 Z" id="Fill-38" fill="#225252"></path>
                <path d="M89.2476326,100.319189 C92.4936326,100.546189 94.6926326,101.072189 95.0816326,103.703189 C97.0236326,116.855189 79.3926326,129.189189 68.0136326,128.408189 C63.6736326,128.110189 59.9056326,127.395189 59.1266326,121.867189 C58.4226326,116.877189 59.5996326,112.045189 63.1296326,108.311189 C68.9886326,102.116189 81.0486326,99.7431891 89.2476326,100.319189 Z M138.591633,99.7781891 C145.485633,99.1451891 145.595633,104.017189 142.834633,108.677189 C139.931633,113.576189 133.129633,117.100189 127.897633,117.729189 C123.963633,118.202189 121.544633,118.174189 120.869633,113.346189 C120.449633,110.344189 121.322633,108.147189 123.121633,106.125189 C126.808633,101.980189 133.222633,100.270189 138.591633,99.7781891 L138.591633,99.7781891 Z" id="Fill-39" fill="#426E6E"></path>
                <path d="M110.833633,34.4481891 C109.623633,37.7731891 108.414633,41.0991891 107.205633,44.4251891 C105.942633,47.8981891 105.605633,51.1571891 109.203633,52.9511891 C111.270633,53.9821891 112.527633,54.7691891 113.557633,55.1501891 C119.356633,57.2921891 119.676633,57.8251891 118.873633,52.2921891 C118.333633,48.5691891 117.840633,44.8331891 117.246633,41.1181891 C117.059633,39.9541891 116.275633,37.3351891 115.518633,35.7881891 C115.241633,35.2231891 114.178633,33.3531891 115.378633,33.1951891 C117.420633,32.9271891 119.660633,32.4071891 121.821633,32.0891891 C122.618633,31.9731891 122.866633,32.5361891 122.814633,34.2291891 C122.770633,35.6151891 122.900633,38.0081891 123.044633,39.1001891 C124.176633,47.6801891 125.322633,56.2641891 126.453633,64.8431891 C126.752633,67.1191891 124.111633,66.8481891 122.238633,65.7361891 C119.102633,63.8741891 115.133633,62.0681891 111.102633,60.2721891 C107.183633,58.5251891 107.801633,58.2091891 108.383633,62.5001891 C108.599633,64.0901891 110.254633,66.6491891 110.105633,67.9711891 C110.059633,68.3741891 109.678633,68.6741891 108.768633,68.8161891 C106.169633,69.2211891 103.749633,69.3611891 101.043633,69.6711891 C99.9826326,69.7921891 101.183633,65.6931891 100.882633,63.4761891 C100.635633,61.6541891 100.388633,59.8321891 100.141633,58.0101891 C99.7576326,55.1821891 100.380633,55.3621891 98.0496326,53.9981891 C92.4576326,50.7281891 88.1556326,48.0971891 89.4956326,55.9951891 C89.9316326,58.5621891 90.3696326,60.6301891 90.8046326,63.1961891 C91.0046326,64.3711891 91.0896326,66.2201891 92.1966326,67.5361891 C92.7816326,68.2301891 93.4916326,71.1471891 91.4766326,71.4261891 C89.2276326,71.7371891 87.4106326,72.3151891 85.5086326,72.4131891 C83.9096326,72.4961891 84.5486326,70.9191891 84.6006326,69.9171891 C84.6906326,68.1821891 84.6756326,65.8431891 84.5846326,65.2291891 C83.9676326,61.0361891 82.7196326,45.0011891 80.1656326,42.3981891 C78.5986326,40.8031891 78.2386326,40.2051891 79.5426326,39.3611891 C80.2296326,38.9171891 81.0696326,38.7771891 81.8616326,38.6401891 C82.4066326,38.5451891 82.8806326,38.3201891 83.4656326,38.5281891 C83.9406326,38.6971891 84.5626326,39.0621891 85.5666326,39.6941891 C87.2416326,40.7491891 90.8756326,42.8941891 95.0426326,45.2701891 C97.9576326,46.9311891 98.0576326,46.9931891 96.1166326,44.2521891 C95.1066326,42.8241891 94.1026326,41.3981891 93.1146326,39.9691891 C90.9186326,36.7951891 89.9476326,34.9891891 87.0856326,32.2471891 C85.6616326,30.8831891 84.4196326,29.2721891 88.5346326,28.7201891 C92.1766326,28.2311891 90.7056326,28.5501891 94.3246326,28.1621891 C95.9796326,27.9851891 95.4606326,33.0411891 97.8556326,36.6761891 C99.4056326,39.0281891 101.023633,41.6661891 101.879633,42.0881891 C103.111633,42.6971891 105.194633,34.6701891 105.541633,33.1971891 C106.044633,31.0661891 105.717633,26.6221891 106.270633,26.5471891 C107.971633,26.3171891 110.021633,25.9581891 112.121633,25.6351891 C115.540633,25.1101891 113.932633,27.3451891 113.072633,29.3041891 C112.448633,30.7261891 111.316633,33.1511891 110.833633,34.4481891" id="Fill-40" fill="#DADAC5"></path>
            </g>
        </g>
    </g>
</svg>