<?xml version="1.0" encoding="UTF-8"?>
<svg width="512px" height="512px" viewBox="0 0 512 512" version="1.1" xmlns="http://www.w3.org/2000/svg" xmlns:xlink="http://www.w3.org/1999/xlink">
    <!-- Generator: Sketch 60.1 (88133) - https://sketch.com -->
    <title>ios-icon</title>
    <desc>Created with Sketch.</desc>
    <defs>
        <linearGradient x1="50%" y1="0.31482714%" x2="50%" y2="99.0059717%" id="linearGradient-1">
            <stop stop-color="#212121" offset="0%"></stop>
            <stop stop-color="#333333" offset="100%"></stop>
        </linearGradient>
        <polygon id="path-2" points="0 0.7198425 124.018944 0.7198425 124.018944 122.99422 0 122.99422"></polygon>
        <polygon id="path-4" points="0.297199626 0.7198425 124.3156 0.7198425 124.3156 122.99422 0.297199626 122.99422"></polygon>
        <polygon id="path-6" points="1.28939644 0.902531305 64.1732638 0.902531305 64.1732638 68.6602407 1.28939644 68.6602407"></polygon>
    </defs>
    <g id="ios-icon" stroke="none" stroke-width="1" fill="none" fill-rule="evenodd">
        <path d="M146.141456,-5.90428975e-15 L365.858544,5.90428975e-15 C416.675112,-3.43056238e-15 435.102427,5.29105984 453.680205,15.2265641 C472.257983,25.1620684 486.837932,39.7420171 496.773436,58.3197949 C506.70894,76.8975727 512,95.3248882 512,146.141456 L512,365.858544 C512,416.675112 506.70894,435.102427 496.773436,453.680205 C486.837932,472.257983 472.257983,486.837932 453.680205,496.773436 C435.102427,506.70894 416.675112,512 365.858544,512 L146.141456,512 C95.3248882,512 76.8975727,506.70894 58.3197949,496.773436 C39.7420171,486.837932 25.1620684,472.257983 15.2265641,453.680205 C5.29105984,435.102427 2.28704159e-15,416.675112 -3.93619317e-15,365.858544 L3.93619317e-15,146.141456 C-2.28704159e-15,95.3248882 5.29105984,76.8975727 15.2265641,58.3197949 C25.1620684,39.7420171 39.7420171,25.1620684 58.3197949,15.2265641 C76.8975727,5.29105984 95.3248882,3.43056238e-15 146.141456,-5.90428975e-15 Z" id="Path" fill="url(#linearGradient-1)"></path>
        <g id="icon" transform="translate(57.000000, 50.000000)">
            <g id="Chucken">
                <g>
                    <path d="M234.823445,336.91892 C234.837034,335.425691 234.755498,334.006642 234.525837,332.712602 C231.807962,317.430013 224.312063,316.103004 220.936463,303.349426 C219.971617,299.700837 236.269354,303.349426 236.269354,303.349426 C241.603184,310.731775 246.086318,324.455196 247.583868,336.782922 C276.292781,338.136032 276.15281,351.391016 269.858212,355.550628 C262.786301,360.225383 256.365321,352.355365 247.946704,349.030972 C247.280824,356.679822 244.57518,362.075778 238.942384,362.075778 C233.092158,362.075778 232.983443,356.203143 233.700962,349.182081 C223.582314,352.774348 213.220416,361.026259 209.683101,355.001141 C205.649775,348.127067 210.389749,338.585237 234.823445,336.91892" id="Fill-1" fill="#FFCA05" fill-rule="nonzero"></path>
                    <path d="M234.952136,359.352386 C234.952136,363.966698 238.74493,367.252626 239.659495,367.252626 C240.572701,367.252626 244.366855,363.966698 244.366855,359.352386 C244.366855,356.779416 242.257784,355.82331 239.659495,355.82331 C237.058489,355.82331 234.952136,356.779416 234.952136,359.352386 M203.884107,359.201277 C204.294507,359.813955 208.694746,360.518671 212.472592,357.927843 C214.578945,356.482694 214.411796,354.530644 213.239033,352.784651 C212.067629,351.037284 210.336343,350.15948 208.228631,351.603255 C204.452143,354.194083 203.47099,358.585853 203.884107,359.201277 M267.671274,351.621113 C266.556945,353.558053 266.385719,355.70105 268.358896,357.238238 C271.894851,359.992538 276.039611,359.127097 276.430985,358.445734 C276.823717,357.764371 275.930896,352.974224 272.39494,350.219923 C270.421763,348.681362 268.785602,349.681427 267.671274,351.621113" id="Fill-3" fill="#FFF584" fill-rule="nonzero"></path>
                    <path d="M123.230081,336.91892 C123.216492,335.425691 123.298028,334.006642 123.527688,332.712602 C126.245563,317.430013 133.741462,316.103004 137.117063,303.349426 C138.081909,299.700837 121.784172,303.349426 121.784172,303.349426 C116.450342,310.731775 111.967207,324.455196 110.469658,336.782922 C81.760745,338.136032 81.9007156,351.391016 88.195314,355.550628 C95.2672246,360.225383 101.688204,352.355365 110.106822,349.030972 C110.772701,356.679822 113.478346,362.075778 119.111142,362.075778 C124.961367,362.075778 125.070082,356.203143 124.352563,349.182081 C134.471212,352.774348 144.83311,361.026259 148.370424,355.001141 C152.403751,348.127067 147.663777,338.585237 123.230081,336.91892" id="Fill-5" fill="#FFCA05" fill-rule="nonzero"></path>
                    <path d="M118.394166,355.823585 C115.794519,355.823585 113.686807,356.779691 113.686807,359.352661 C113.686807,363.966972 117.48096,367.252901 118.394166,367.252901 C119.308731,367.252901 123.101526,363.966972 123.101526,359.352661 C123.101526,356.779691 120.995172,355.823585 118.394166,355.823585 M149.825031,351.60353 C147.717319,350.158381 145.986033,351.037559 144.81327,352.784926 C143.641866,354.530918 143.474716,356.482969 145.581069,357.928118 C149.358915,360.517572 153.759155,359.814229 154.169554,359.200179 C154.582671,358.586128 153.601518,354.194358 149.825031,351.60353 M85.6587213,350.218824 C82.122766,352.974498 81.2299441,357.764645 81.621318,358.446009 C82.014051,359.127372 86.1588103,359.992813 89.6947656,357.238512 C91.6679428,355.701324 91.4967167,353.558328 90.382388,351.621388 C89.2667003,349.681701 87.6318985,348.681636 85.6587213,350.218824" id="Fill-7" fill="#FFF584" fill-rule="nonzero"></path>
                    <g id="Group-11" transform="translate(0.000000, 139.216484)">
                        <g id="Fill-9-Clipped">
                            <g>
                                <mask id="mask-3" fill="white">
                                    <use xlink:href="#path-2"></use>
                                </mask>
                                <g id="path-1"></g>
                                <path d="M124.018944,64.5390932 C124.018944,64.5390932 103.634882,12.9945276 50.6363206,2.03502264 C27.2856979,-2.79358852 12.9788042,6.52844714 7.79717556,16.11561 C2.61282909,25.7055202 8.33803267,40.3919162 21.0794304,40.3919162 C-4.7403816,45.9939294 -8.47745966,76.5591068 19.0410242,82.740828 C-3.38144412,105.407139 18.7012899,131.164311 57.0912736,120.518014 C95.4812573,109.871716 124.018944,64.5390932 124.018944,64.5390932" id="Fill-9" fill="#FFDEA3" fill-rule="nonzero" mask="url(#mask-3)"></path>
                            </g>
                        </g>
                    </g>
                    <g id="Group-14" transform="translate(233.737246, 139.216484)">
                        <g id="Fill-12-Clipped">
                            <g>
                                <mask id="mask-5" fill="white">
                                    <use xlink:href="#path-4"></use>
                                </mask>
                                <g id="path-3"></g>
                                <path d="M0.297199626,64.5390932 C0.297199626,64.5390932 20.6812618,12.9945276 73.6798233,2.03502264 C97.030446,-2.79358852 111.33734,6.52844714 116.518968,16.11561 C121.703315,25.7055202 115.978111,40.3919162 103.236713,40.3919162 C129.056525,45.9939294 132.793604,76.5591068 105.27512,82.740828 C127.697588,105.407139 105.614854,131.164311 67.2248703,120.518014 C28.8348866,109.871716 0.297199626,64.5390932 0.297199626,64.5390932" id="Fill-12" fill="#FFDEA3" fill-rule="nonzero" mask="url(#mask-5)"></path>
                            </g>
                        </g>
                    </g>
                    <g id="Group-17" transform="translate(141.329498, 0.471185)">
                        <g id="Fill-15-Clipped">
                            <g>
                                <mask id="mask-7" fill="white">
                                    <use xlink:href="#path-6"></use>
                                </mask>
                                <g id="path-5"></g>
                                <path d="M47.1354258,68.6602407 C70.2373629,45.3070715 70.1789286,-1.57922373 44.9217167,1.00473576 C28.1374799,2.72188056 34.8397595,32.256771 34.8397595,32.256771 C15.5904102,7.87331494 -10.0242023,31.9985125 6.70703591,48.9117018 C25.9631799,68.3772552 47.1354258,68.6602407 47.1354258,68.6602407" id="Fill-15" fill="#EC1D24" fill-rule="nonzero" mask="url(#mask-7)"></path>
                            </g>
                        </g>
                    </g>
                    <path d="M179.026695,314.663762 C261.546814,314.663762 290.106244,290.898478 290.106244,237.466426 C290.106244,147.402869 221.838661,49.382749 179.026695,49.382749 C136.214729,49.382749 67.9471456,147.402869 67.9471456,237.466426 C67.9471456,290.898478 96.5065756,314.663762 179.026695,314.663762" id="Fill-18" fill="#FFE5B8" fill-rule="nonzero"></path>
                    <path d="M156.295748,100.285652 C166.39673,100.285652 175.307283,105.387633 180.684599,113.168359 C185.444957,107.630911 192.443485,104.114198 200.269606,104.114198 C214.607755,104.114198 226.230747,115.86359 226.230747,130.356292 C226.230747,144.848994 214.607755,156.599759 200.269606,156.599759 C192.443485,156.599759 185.444957,153.081673 180.684599,147.545598 C175.307283,155.326324 166.39673,160.428305 156.295748,160.428305 C139.866194,160.428305 126.547247,146.964516 126.547247,130.356292 C126.547247,113.749441 139.866194,100.285652 156.295748,100.285652" id="Fill-20" fill="#FEFEFE" fill-rule="nonzero"></path>
                    <path d="M159.774084,129.300042 C159.774084,133.498117 163.141531,136.900811 167.293085,136.900811 C171.445998,136.900811 174.813445,133.498117 174.813445,129.300042 C174.813445,125.101966 171.445998,121.699272 167.293085,121.699272 C163.141531,121.699272 159.774084,125.101966 159.774084,129.300042" id="Fill-22" fill="#231F20" fill-rule="nonzero"></path>
                    <path d="M186.25135,129.300042 C186.25135,133.498117 189.618797,136.900811 193.77171,136.900811 C197.923264,136.900811 201.290711,133.498117 201.290711,129.300042 C201.290711,125.101966 197.923264,121.699272 193.77171,121.699272 C189.618797,121.699272 186.25135,125.101966 186.25135,129.300042" id="Fill-24" fill="#231F20" fill-rule="nonzero"></path>
                    <path d="M156.259192,169.645526 C153.743799,179.136529 158.508234,184.880035 165.743217,186.838954 C172.979559,188.799246 179.945473,186.233145 182.460866,176.743516 C184.976259,167.251139 182.089876,154.426128 174.854893,152.465836 C167.618551,150.506917 158.775945,160.15315 156.259192,169.645526" id="Fill-26" fill="#EC1D24" fill-rule="nonzero"></path>
                    <path d="M208.434374,170.811261 C211.164479,181.11413 205.993722,187.349426 198.139063,189.474565 C190.284405,191.602451 182.723277,188.817929 179.991812,178.51506 C177.261707,168.210817 180.394058,154.290955 188.248716,152.163069 C196.103375,150.035183 205.702909,160.508393 208.434374,170.811261" id="Fill-28" fill="#EC1D24" fill-rule="nonzero"></path>
                    <path d="M166.832134,155.843254 C166.832134,169.720531 178.239055,179.608538 180.990903,179.608538 C183.738675,179.608538 195.148314,169.720531 195.148314,155.843254 C195.148314,148.106486 188.80887,145.229925 180.990903,145.229925 C173.170218,145.229925 166.832134,148.106486 166.832134,155.843254" id="Fill-30" fill="#FFCA05" fill-rule="nonzero"></path>
                    <path d="M179.026695,216.389367 C245.1689,216.389367 268.06156,235.438685 268.06156,278.265649 C268.06156,283.782492 267.738133,289.335052 267.132047,294.887611 C249.794723,308.341784 221.588617,314.663624 179.026695,314.663624 C136.464773,314.663624 108.258667,308.341784 90.9213426,294.887611 C90.3152564,289.335052 89.9918293,283.782492 89.9918293,278.265649 C89.9918293,235.438685 112.883131,216.389367 179.026695,216.389367" id="Fill-32" fill="#FFECCD" fill-rule="nonzero"></path>
                </g>
            </g>
            <g id="pi-logo" transform="translate(266.645570, 232.519481)">
                <g id="raspberry-pi" fill-rule="nonzero">
                    <path d="M34.9770176,0.00214781544 C34.2569871,0.024055533 33.4816366,0.28651858 32.6017445,0.970812579 C30.4477513,0.15163577 28.3577897,-0.133164558 26.4895436,1.53482892 C23.60463,1.16583422 22.66724,1.92744958 21.9567925,2.81664517 C21.3234444,2.80375828 17.2180073,2.17444835 15.3349511,4.94427113 C10.6035709,4.39228258 9.10818995,7.68874971 10.8026356,10.7631327 C9.83606109,12.2382524 8.83463933,13.6957599 11.094481,16.508539 C10.2951731,18.0747261 10.7908747,19.7740776 12.6739309,21.8303962 C12.1773581,24.0327661 13.1539513,25.5860662 14.9063304,26.7970046 C14.578331,29.8103897 17.7084818,31.5625775 18.6428227,32.1867326 C19.0017489,33.942357 19.7496572,35.5996114 23.3245456,36.5154399 C23.9143346,39.1323382 26.0626652,39.5842386 28.1434794,40.1332202 C21.2668177,44.0753207 15.3697983,49.2614357 15.4098726,61.9872424 L14.4023526,63.75919 C6.51729977,68.4878205 -0.576721352,83.686622 10.5168885,96.0399969 C11.2412749,99.9069242 12.4565714,102.684479 13.5385774,105.758432 C15.1567947,118.145313 25.718549,123.945704 28.5045836,124.631716 C32.5864988,127.697937 36.9341241,130.607368 42.8180758,132.645645 C48.3635739,138.286238 54.3721044,140.436201 60.413304,140.432773 C60.5021648,140.432773 72.7304865,138.286668 78.2768559,132.645645 C84.1599366,130.607368 88.5075616,127.697937 92.5903484,124.631716 C95.3755118,123.945704 105.937266,118.145313 107.555483,105.758432 C108.637489,102.684479 109.852786,99.9069242 110.577608,96.0399969 C121.670346,83.685333 114.576761,68.4861023 106.692144,63.7574718 L105.682882,61.9855241 C105.722955,49.2610065 99.8259364,44.0744616 92.9492747,40.131502 C95.0296531,39.5825204 97.1788547,39.13062 97.767773,36.5137217 C101.342661,35.5974636 102.091005,33.9406388 102.449496,32.1850144 C103.384272,31.5608592 106.513987,29.8086714 106.186859,26.7952864 C107.938367,25.584348 108.915396,24.0306183 108.418387,21.8286779 C110.301879,19.7723594 110.797145,18.0730078 109.997838,16.5063912 C112.25855,13.6953304 111.255386,12.2378228 110.290118,10.7627032 C111.983693,7.68832018 110.489183,4.39142345 105.756061,4.9438416 C103.874311,2.17401879 99.7693096,2.80289915 99.134219,2.81578604 C98.4242073,1.92702001 97.4868172,1.16540466 94.6019037,1.53439935 C92.7336573,-0.13359412 90.6445673,0.150776644 88.4897027,0.970383018 C85.931046,-1.0206419 84.238343,0.575184975 82.3043225,1.17872111 C79.2064057,0.180416497 78.4977005,1.54771581 76.9757482,2.10485913 C73.597311,1.40080523 72.5706252,2.93348633 70.9515364,4.55122092 L69.0671735,4.5142785 C63.9716401,7.47568644 61.4399903,13.5058931 60.5426746,16.6060499 C59.6453589,13.5054635 57.1193716,7.47525686 52.024709,4.5142785 L50.1407819,4.55122092 C48.5190795,2.93348633 47.4928293,1.40080523 44.1143921,2.10485913 C42.5920045,1.54771581 41.8863485,0.180416497 38.7858178,1.17872111 C37.5165081,0.782663948 36.3491265,-0.0403789303 34.9748396,0.00171825235 L0,60.5683954" id="Path" fill="#333333"></path>
                    <path d="M24.8321231,13.0303667 C38.3510988,19.9038057 46.2104519,25.4640703 50.5162606,30.1995738 C48.3113031,38.9149793 36.8082386,39.3127547 32.6021801,39.0683333 C33.4633418,38.6731353 34.1820655,38.1993272 34.4368858,37.4720769 C33.3814509,36.7323693 29.6392959,37.3938964 27.0266262,35.9466984 C28.0302259,35.7413672 28.4997921,35.5416204 28.9689227,34.8113631 C26.5008689,34.0351426 23.8420267,33.3658834 22.278258,32.0797715 C23.1219961,32.0900809 23.9099787,32.2662018 25.0120218,31.5123186 C22.8014018,30.3374636 20.4422456,29.4061708 18.6092822,27.6101675 C19.7522708,27.5826755 20.9845553,27.5989989 21.343046,27.1844705 C19.3197297,25.9481879 17.6122164,24.573586 16.199162,23.0696857 C17.798649,23.2599821 18.4742493,23.0963186 18.8610534,22.8213982 C17.3312607,21.2762598 15.3954981,19.9716767 14.4724826,18.0678531 C15.6599013,18.4716423 16.7466988,18.6262851 17.5298898,18.0326289 C17.0102308,16.8762451 14.783494,16.1940989 13.5011166,13.4917175 C14.7516959,13.6115656 16.0776323,13.760624 16.3429067,13.4917175 C15.7627006,11.160049 14.7669416,9.84902247 13.7903485,8.49074399 C16.4661787,8.45165378 20.5206518,8.50105351 20.3372683,8.2781103 L18.6824614,6.61097595 C21.2964378,5.91680197 23.9709614,6.72223279 25.9128222,7.32018458 C26.7844381,6.64190448 25.897141,5.78406697 24.8334298,4.90818783 C27.0549396,5.2007203 29.062139,5.70416824 30.8768075,6.39791263 C31.8459956,5.53492041 30.2473798,4.67149859 29.4737717,3.80850634 C32.9057865,4.45027359 34.3597864,5.35278567 35.8046388,6.25615684 C36.8531043,5.26515479 35.8647503,4.42278156 35.1573519,3.56021888 C37.7451929,4.50525767 39.0780988,5.7256464 40.4811347,6.93014129 C40.9567991,6.29696532 41.6898973,5.83260764 40.8047782,4.30508127 C42.6420974,5.34934913 44.0259673,6.58004737 45.0496042,7.9589449 C46.1864944,7.24501104 45.7269468,6.2690437 45.7330451,5.36910902 C47.6426722,6.90093103 48.8544842,8.53112293 50.3376687,10.1226542 C50.6364833,9.90787262 50.8978372,9.18062231 51.1291357,8.0298228 C55.6841019,12.3877403 62.1208174,23.3652251 52.7835072,27.7175583 C44.8370361,21.2543521 35.346398,16.5562205 24.8290739,13.032085 L24.8321231,13.0303667 M96.5642372,13.0303667 C83.0470036,19.9046648 75.1876507,25.4632112 70.8822778,30.1995738 C73.087235,38.9149793 84.5898643,39.3127547 88.7959223,39.0683333 C87.9347609,38.6731353 87.2160371,38.1993272 86.9616524,37.4720769 C88.0170875,36.7323693 91.7592423,37.3938964 94.3714763,35.9466984 C93.3678767,35.7413672 92.8987463,35.5416204 92.4291801,34.8113631 C94.8976694,34.0351426 97.5565116,33.3658834 99.1198444,32.0797715 C98.2761066,32.0900809 97.4881238,32.2662018 96.3860811,31.5123186 C98.5971362,30.3374636 100.956293,29.4061708 102.789256,27.6101675 C101.645832,27.5826755 100.413547,27.5989989 100.055492,27.1844705 C102.078808,25.9481879 103.786322,24.573586 105.199376,23.0696857 C103.599454,23.2599821 102.924289,23.0963186 102.537485,22.8213982 C104.066842,21.2762598 106.00304,19.9716767 106.926055,18.0678531 C105.738201,18.4716423 104.651404,18.6262851 103.868213,18.0326289 C104.387872,16.8762451 106.615044,16.1940989 107.896986,13.4917175 C106.646843,13.6115656 105.32047,13.760624 105.055196,13.4917175 C105.636709,11.1591899 106.632468,9.84816336 107.609061,8.48988487 C104.933231,8.45079462 100.878758,8.5001944 101.062141,8.27725114 L102.716948,6.60968726 C100.102971,5.91594286 97.428448,6.72137363 95.4865871,7.31932547 C94.6149713,6.64104537 95.501833,5.78320786 96.5655442,4.90732872 C94.34447,5.19943161 92.3368349,5.70330912 90.5226017,6.39705352 C89.5529781,5.53406125 91.1520297,4.67063946 91.9256379,3.80764722 C88.4936229,4.44941447 87.039623,5.35192651 85.5943352,6.25529768 C84.5458693,5.26429563 85.5346589,4.42192243 86.2420575,3.55935975 C83.6542167,4.50439854 82.3213107,5.72478729 80.9182746,6.92928218 C80.4421746,6.2961062 79.709512,5.83174848 80.5941955,4.30422215 C78.757312,5.34849002 77.3734423,6.57918826 76.3498055,7.95808579 C75.2129151,7.24415192 75.6724627,6.26775501 75.6663643,5.36824991 C73.756737,6.90007187 72.5449254,8.52983424 71.061741,10.121795 C70.7629258,9.9070135 70.501572,9.1797632 70.2702734,8.02853411 C65.7153073,12.3868812 59.2785918,23.3643659 68.615902,27.7166991 C76.5580174,21.2517747 86.0482197,16.5545023 96.5659796,13.0303667 L96.5642372,13.0303667" id="Shape" fill="#75A928"></path>
                    <path d="M77.0707271,101.777671 C77.1173152,109.910589 69.9052492,116.538318 60.9621478,116.581262 C52.0186111,116.623801 44.7303165,110.065662 44.6830278,101.932743 C44.6830278,101.881054 44.6830278,101.829361 44.6830278,101.777671 C44.6362291,93.6451828 51.8478595,87.0174539 60.7913962,86.9740798 C69.7349335,86.9315413 77.0227922,93.4896811 77.0707271,101.622599 L77.0707271,101.777671 M51.5067927,59.7109876 C58.216623,64.0465676 59.4262567,73.8732531 54.2083224,81.6595138 C48.9903881,89.4462036 39.3211581,92.2443775 32.6113275,87.9092271 C25.9014969,83.5736466 24.6922987,73.7469616 29.9097974,65.9607009 C35.1277318,58.174011 44.7969618,55.3758367 51.5067927,59.7109876 M69.6168885,58.9261757 C62.9074935,63.2613266 61.6978593,73.0884412 66.9153583,80.8747019 C72.1332926,88.6613918 81.8025227,91.4595661 88.5123535,87.1239856 C95.2221838,82.7888347 96.4318176,72.9621497 91.2138833,65.1754594 C85.9963848,57.3891992 76.3271547,54.5910249 69.6168885,58.9261757 L74.1816473,68.4561571 M17.9715783,66.7987786 C25.215878,64.8837865 20.417417,96.3540077 14.5230111,93.771904 C8.03925174,88.6291748 5.95103257,73.5682631 17.9715783,66.7987786 M101.689826,66.4065875 C94.4446555,64.4920246 99.2439878,95.9635348 105.138394,93.3814312 C111.622153,88.2382722 113.710372,73.1756423 101.689826,66.4065875 M77.0759342,42.970914 C89.5778066,40.8892513 99.980571,48.2141611 99.5606619,61.5830237 C99.1494649,66.7085703 72.4700039,43.7342476 77.0759342,42.970914 M42.5336355,42.5787229 C30.0308915,40.4966306 19.6289988,47.8232586 20.0489077,61.1912618 C20.4601048,66.3163792 47.1400012,43.3420565 42.5336355,42.5787229 M60.4921462,39.460954 C53.0304869,39.2693688 45.8693848,44.9219895 45.8518556,48.2008446 C45.8314884,52.1846125 51.7515941,56.2637439 60.5431099,56.3672683 C69.5206232,56.4304143 75.2495047,53.1021595 75.2784526,48.9908111 C75.3113582,44.332629 67.1131162,39.3887874 60.4921462,39.4605244 L60.4921462,39.460954 M60.9477732,121.155262 C67.4533123,120.875187 76.1825387,123.221461 76.1999623,126.334504 C76.3079887,129.35691 68.2831114,136.186104 60.516539,136.054228 C52.4729315,136.39659 44.5857006,129.556657 44.6889355,127.185898 C44.568277,123.709874 54.4827443,120.995894 60.9477732,121.155262 M36.9188784,102.707675 C41.5505085,108.210378 43.6622495,117.878125 39.7968226,120.728276 C36.1400433,122.904013 27.259667,122.007945 20.9479657,113.06573 C16.6909432,105.562122 17.2393512,97.9266382 20.2283708,95.6834598 C24.6979613,92.9986905 31.6038075,96.6254916 36.919314,102.707675 L36.9188784,102.707675 M84.0497325,100.96322 C79.0382677,106.751582 76.2478771,117.309384 79.9033498,120.709805 C83.3989607,123.351618 92.7824438,122.982194 99.713554,113.49787 C104.746363,107.12788 103.060193,96.4897496 100.185298,93.6649426 C95.9147724,90.4075661 89.7838408,94.5764757 84.0497325,100.961501 L84.0497325,100.96322" id="Shape" fill="#BC1142"></path>
                </g>
            </g>
        </g>
    </g>
</svg>