<?xml version="1.0" encoding="UTF-8"?>
<svg width="512px" height="512px" viewBox="0 0 512 512" version="1.1" xmlns="http://www.w3.org/2000/svg" xmlns:xlink="http://www.w3.org/1999/xlink">
    <!-- Generator: Sketch 60.1 (88133) - https://sketch.com -->
    <title>IconMarkDown</title>
    <desc>Created with Sketch.</desc>
    <defs>
        <linearGradient x1="50%" y1="0%" x2="50%" y2="100%" id="linearGradient-1">
            <stop stop-color="#333333" offset="0%"></stop>
            <stop stop-color="#212121" offset="99.9102618%"></stop>
        </linearGradient>
        <path d="M146.141456,-5.90428975e-15 L365.858544,5.90428975e-15 C416.675112,-3.43056238e-15 435.102427,5.29105984 453.680205,15.2265641 C472.257983,25.1620684 486.837932,39.7420171 496.773436,58.3197949 C506.70894,76.8975727 512,95.3248882 512,146.141456 L512,365.858544 C512,416.675112 506.70894,435.102427 496.773436,453.680205 C486.837932,472.257983 472.257983,486.837932 453.680205,496.773436 C435.102427,506.70894 416.675112,512 365.858544,512 L146.141456,512 C95.3248882,512 76.8975727,506.70894 58.3197949,496.773436 C39.7420171,486.837932 25.1620684,472.257983 15.2265641,453.680205 C5.29105984,435.102427 2.28704159e-15,416.675112 -3.93619317e-15,365.858544 L3.93619317e-15,146.141456 C-2.28704159e-15,95.3248882 5.29105984,76.8975727 15.2265641,58.3197949 C25.1620684,39.7420171 39.7420171,25.1620684 58.3197949,15.2265641 C76.8975727,5.29105984 95.3248882,3.43056238e-15 146.141456,-5.90428975e-15 Z" id="path-2"></path>
    </defs>
    <g id="IconMarkDown" stroke="none" stroke-width="1" fill="none" fill-rule="evenodd">
        <g id="Path">
            <use fill="#854D4D" xlink:href="#path-2"></use>
            <use fill="url(#linearGradient-1)" xlink:href="#path-2"></use>
        </g>
        <g id="pi-logo" transform="translate(93.000000, 69.000000)">
            <g id="raspberry-pi">
                <path d="M91.9859033,0.00573339844 C90.0922982,0.0642140625 88.0532075,0.764835352 85.7391832,2.59149609 C80.0744058,0.40477793 74.5780253,-0.355470703 69.6647331,4.09708652 C62.0777118,3.11208867 59.612474,5.14515176 57.7440712,7.51877871 C56.0784319,7.48437832 45.281561,5.80449258 40.3293198,13.1982832 C27.8862841,11.7247998 23.9535884,20.5244197 28.4098035,28.7312062 C25.8678134,32.6689043 23.2341788,36.5595885 29.1773264,44.0680471 C27.0752301,48.2488412 28.3788735,52.7851061 33.3311146,58.2742617 C32.0251801,64.1532885 34.593518,68.2996822 39.2020922,71.5321723 C38.339488,79.5761303 46.5714577,84.2534367 49.0286766,85.9195623 C49.9726152,90.6060422 51.9395359,95.0299324 61.3411189,97.4746535 C62.8922025,104.460226 68.5420876,105.666533 74.0144115,107.13199 C55.9295095,117.655069 40.4209644,131.498933 40.5263556,165.469319 L37.8766832,170.199373 C17.1398177,182.822023 -1.51671693,223.393843 27.6583184,256.370058 C29.563379,266.692468 32.7594819,274.106899 35.6050445,282.312539 C39.8607872,315.378195 67.6370979,330.86181 74.9640779,332.693058 C85.6990887,340.878057 97.1328891,348.644519 112.607068,354.085514 C127.191148,369.142565 142.992956,374.881697 158.880681,374.872534 C159.114374,374.872534 191.273584,369.143712 205.859956,354.085514 C221.331844,348.644519 232.765644,340.878057 243.502946,332.693058 C250.827635,330.86181 278.603946,315.378195 282.859688,282.312539 C285.705251,274.106899 288.901354,266.692468 290.80756,256.370058 C319.980304,223.390403 301.324915,182.817436 280.589195,170.194786 L277.934941,165.464732 C278.040332,131.497787 262.531787,117.652776 244.446885,107.127403 C249.918063,105.661946 255.570239,104.455639 257.119032,97.4700668 C266.520615,95.024199 268.488681,90.6014555 269.431474,85.9149756 C271.889838,84.24885 280.120663,79.5715436 279.26035,71.5275855 C283.866633,68.2950955 286.436116,64.1475551 285.129036,58.269675 C290.082423,52.7805193 291.384921,48.2442545 289.282824,44.0623137 C295.228263,36.5584418 292.590046,32.6677576 290.051493,28.7300596 C294.505417,20.523273 290.575012,11.7225064 278.127394,13.1971365 C273.17859,5.8033459 262.382864,7.48208496 260.712643,7.51648535 C258.845385,5.14400508 256.380148,3.11094199 248.793126,4.09593984 C243.879834,-0.356617383 238.385745,0.40248457 232.718676,2.59034941 C225.989677,-2.72451094 221.538044,1.5354041 216.451773,3.14648906 C208.304574,0.481605469 206.440754,4.13148691 202.438179,5.61873047 C193.553242,3.73932246 190.853165,7.83067559 186.595131,12.1490713 L181.639453,12.0504568 C168.238732,19.9556666 161.580757,36.0527561 159.220911,44.3283434 C156.861064,36.0516094 150.217982,19.9545199 136.819552,12.0504568 L131.865019,12.1490713 C127.600112,7.83067559 124.901181,3.73932246 116.016244,5.61873047 C112.012524,4.13148691 110.156722,0.481605469 102.00265,3.14648906 C98.6644982,2.08925039 95.5944066,-0.107787891 91.9801755,0.00458671875 L0,161.681836" id="Path" fill="#F1DD3F" fill-rule="nonzero"></path>
                <path d="M65.3058902,34.7833816 C100.859385,53.1314033 121.528662,67.9740252 132.852489,80.6150221 C127.053682,103.880006 96.8018232,104.941832 85.7403287,104.289371 C88.0050941,103.234426 89.8952625,101.969638 90.5654131,100.028309 C87.7897295,98.0537268 77.9482528,99.8196135 71.0772044,95.9564496 C73.7165667,95.4083367 74.9514768,94.8751307 76.1852412,92.9257752 C69.6945175,90.853725 62.7020401,89.067198 58.5894919,85.6340391 C60.8084351,85.6615594 62.8807469,86.131698 65.7790051,84.1192752 C59.9653054,80.9831063 53.7609709,78.4971047 48.9404688,73.7028369 C51.9464093,73.6294494 55.1871889,73.6730232 56.1299819,72.5664773 C50.8088716,69.2663332 46.3182897,65.5969582 42.6021041,61.5824326 C46.8085879,62.0904117 48.5853462,61.6535268 49.6026005,60.9196518 C45.5794057,56.7950449 40.4885522,53.3125787 38.0611178,48.2304943 C41.1839051,49.3083732 44.0420688,49.7211779 46.1017795,48.1364666 C44.7351305,45.0496049 38.8790452,43.2286775 35.5065266,36.0149156 C38.7954196,36.3348393 42.2824938,36.7327371 42.9801378,36.0149156 C41.4542564,29.7907383 38.8355141,26.2910719 36.2671762,22.6652707 C43.3043303,22.5609229 53.9671711,22.692791 53.4848918,22.0976643 L49.1329223,17.6474004 C56.0074074,15.794366 63.0411249,17.9443904 68.1480161,19.5405686 C70.4402749,17.7299613 68.1067761,15.440042 65.3093269,13.1019621 C71.1516655,13.882851 76.4303903,15.2267596 81.2027791,17.0786473 C83.7516425,14.7749678 79.5474498,12.4701416 77.5129413,10.1664621 C86.5387817,11.8796016 90.3626496,14.2887756 94.1624608,16.700243 C96.9198155,14.0548529 94.3205476,11.8062141 92.4601637,9.50368125 C99.2659154,12.0263766 102.771319,15.2840936 106.461156,18.4993834 C107.712104,16.8091775 109.640076,15.5696168 107.312305,11.4920238 C112.144263,14.2796021 115.783696,17.5648395 118.475754,21.2456812 C121.465657,19.3398996 120.257094,16.7346434 120.273132,14.3323494 C125.295252,18.4214092 128.482191,22.7730586 132.382811,27.0215068 C133.168663,26.448167 133.855997,24.5068383 134.464287,21.4348834 C146.443373,33.0679488 163.371262,62.3713482 138.815111,73.9895068 C117.916722,56.7365643 92.9573353,44.1953285 65.2978713,34.7879684 L65.3058902,34.7833816 M253.953859,34.7833816 C218.404947,53.1336967 197.735669,67.9717318 186.412988,80.6150221 C192.211795,103.880006 222.462508,104.941832 233.524003,104.289371 C231.259237,103.234426 229.369069,101.969638 228.700064,100.028309 C231.475747,98.0537268 241.317224,99.8196135 248.187127,95.9564496 C245.547765,95.4083367 244.314,94.8751307 243.07909,92.9257752 C249.570959,90.853725 256.563437,89.067198 260.674839,85.6340391 C258.455896,85.6615594 256.383584,86.131698 253.485326,84.1192752 C259.300171,80.9831063 265.504506,78.4971047 270.325008,73.7028369 C267.317922,73.6294494 264.077142,73.6730232 263.135495,72.5664773 C268.456605,69.2663332 272.947187,65.5969582 276.663373,61.5824326 C272.455743,62.0904117 270.680131,61.6535268 269.662876,60.9196518 C273.684926,56.7950449 278.776925,53.3125787 281.204359,48.2304943 C278.080426,49.3083732 275.222263,49.7211779 273.162552,48.1364666 C274.529201,45.0496049 280.386432,43.2286775 283.757805,36.0149156 C280.470057,36.3348393 276.981837,36.7327371 276.284193,36.0149156 C277.813512,29.7884449 280.432254,26.2887785 283.000592,22.6629773 C275.963438,22.5586295 265.300597,22.6904977 265.782876,22.0953709 L270.134846,17.6439604 C263.260361,15.7920727 256.226643,17.9420971 251.119752,19.5382752 C248.827493,17.727668 251.159846,15.4377486 253.957296,13.0996687 C248.116102,13.8794109 242.836232,15.2244662 238.064989,17.0763539 C235.51498,14.7726744 239.720318,12.4678482 241.754827,10.1641687 C232.728986,11.8773082 228.905118,14.2864822 225.104162,16.6979496 C222.346807,14.0525596 224.94722,11.8039207 226.807604,9.50138789 C220.001853,12.0240832 216.496449,15.2818002 212.806612,18.49709 C211.554518,16.8068842 209.627692,15.5673234 211.954317,11.4897305 C207.123505,14.2773088 203.484072,17.5625461 200.792014,21.2433879 C197.802111,19.3376063 199.010674,16.7312033 198.994636,14.3300561 C193.972516,18.4191158 190.785577,22.7696186 186.884957,27.0192135 C186.099105,26.4458736 185.411771,24.5045449 184.803481,21.4314434 C172.824395,33.0656555 155.896506,62.3690549 180.452657,73.9872135 C201.33959,56.7296842 226.297832,44.1907418 253.958441,34.7833816 L253.953859,34.7833816" id="Shape" fill="#333333" fill-rule="nonzero"></path>
                <path d="M202.687366,271.686258 C202.810485,293.396345 183.843504,311.088466 160.324082,311.202547 C136.803514,311.316655 117.636061,293.810296 117.512341,272.10021 C117.511482,271.962228 117.511482,271.82424 117.512341,271.686258 C117.388621,249.977319 136.354456,232.285198 159.875024,232.16997 C183.395592,232.055862 202.561899,249.562221 202.687366,271.272307 L202.687366,271.686258 M135.457485,159.393063 C153.103639,170.966501 156.284849,197.197946 142.562227,217.982662 C128.839604,238.768525 103.410539,246.237996 85.7643854,234.665705 C68.1182317,223.092267 64.9381666,196.860822 78.6596434,176.076106 C92.3822659,155.290243 117.811331,147.820772 135.457485,159.393063 M183.085146,157.298079 C165.440138,168.870371 162.258927,195.102962 175.980404,215.887678 C189.703026,236.673541 215.132091,244.143012 232.778245,232.569574 C250.424399,220.997283 253.60561,194.765838 239.882987,173.979976 C226.16151,153.19526 200.732445,145.725788 183.085146,157.298079 M47.2633739,178.313278 C66.3151256,173.20138 53.6956742,257.208281 38.1940024,250.315589 C21.1423925,236.58754 15.6505942,196.383803 47.2633739,178.313278 M267.433623,177.26636 C248.37958,172.155608 261.001323,256.165949 276.502995,249.273257 C293.554605,235.544061 299.046403,195.335738 267.433623,177.26636 M202.701657,114.706956 C235.580277,109.150146 262.938459,128.703328 261.834143,164.390293 C260.752737,178.072475 190.588541,116.744606 202.701657,114.706956 M111.859019,113.660037 C78.9781082,108.102081 51.6222167,127.65985 52.7265333,163.344521 C53.8079387,177.025557 123.97328,115.697687 111.859019,113.660037 M159.088026,105.337436 C139.464642,104.826017 120.631691,119.915175 120.58573,128.667781 C120.532028,139.302088 136.101288,150.190959 159.222056,150.467309 C182.831978,150.635871 197.898338,141.751396 197.974208,130.776525 C198.061007,118.34193 176.500486,105.144794 159.088026,105.336289 L159.088026,105.337436 M160.286278,323.412979 C177.395166,322.665344 200.35212,328.928508 200.397943,337.238496 C200.682041,345.306534 179.577451,363.536448 159.152177,363.184417 C137.998329,364.098321 117.255736,345.83974 117.527233,339.511215 C117.209914,330.232283 143.283928,322.987561 160.286278,323.412979 M97.0927946,274.16882 C109.273498,288.857787 114.827156,314.66496 104.661487,322.273179 C95.0445394,328.081112 71.6900771,325.689138 55.0909621,301.818707 C43.8954375,281.788506 45.3376933,261.406275 53.1985026,255.418314 C64.9530588,248.251566 83.114713,257.932982 97.0939401,274.16882 L97.0927946,274.16882 M221.042018,269.512154 C207.862389,284.963662 200.523954,313.146756 210.137465,322.223872 C219.330556,329.275952 244.008136,328.289808 262.236233,302.972267 C275.471994,285.968154 271.037544,257.570631 263.476871,250.030066 C252.245834,241.334794 236.122125,252.46332 221.042018,269.507567 L221.042018,269.512154" id="Shape" fill="#333333" fill-rule="nonzero"></path>
            </g>
        </g>
    </g>
</svg>