<?xml version="1.0" encoding="UTF-8"?>
<svg width="119px" height="112px" viewBox="0 0 119 112" version="1.1" xmlns="http://www.w3.org/2000/svg" xmlns:xlink="http://www.w3.org/1999/xlink">
    <!-- Generator: Sketch 57.1 (83088) - https://sketch.com -->
    <title>pullet</title>
    <desc>Created with Sketch.</desc>
    <defs>
        <polygon id="path-1" points="0 0.67951119 27.6599167 0.67951119 27.6599167 21.693186 0 21.693186"></polygon>
        <polygon id="path-3" points="0.460700559 0.880996994 25.751617 0.880996994 25.751617 7 0.460700559 7"></polygon>
    </defs>
    <g id="chucken" stroke="none" stroke-width="1" fill="none" fill-rule="evenodd">
        <g id="pullet">
            <g id="Group-3" transform="translate(0.000000, 34.040000)">
                <mask id="mask-2" fill="white">
                    <use xlink:href="#path-1"></use>
                </mask>
                <g id="Clip-2"></g>
                <path d="M1.0898,4.5972 C-1.2002,8.5632 -0.0172,13.5312 5.9358,16.9682 C13.1638,21.1412 24.9758,23.6752 27.2648,19.7092 C29.5548,15.7442 21.4538,6.7812 14.2258,2.6082 C8.2728,-0.8288 3.3798,0.6312 1.0898,4.5972" id="Fill-1" fill="#FFDEA3" mask="url(#mask-2)"></path>
            </g>
            <path d="M117.6421,38.6372 C119.9321,42.6032 118.7491,47.5712 112.7961,51.0082 C105.5681,55.1812 93.7561,57.7152 91.4671,53.7492 C89.1781,49.7842 97.2781,40.8212 104.5061,36.6482 C110.4591,33.2112 115.3521,34.6712 117.6421,38.6372" id="Fill-4" fill="#FFDEA3"></path>
            <path d="M60.4766,20.3061 C67.4756,13.3071 67.4566,-0.7439 59.8056,0.0311 C54.7216,0.5451 56.7516,9.3961 56.7516,9.3961 C50.9196,2.0891 43.1606,9.3191 48.2286,14.3881 C54.0626,20.2221 60.4766,20.3061 60.4766,20.3061" id="Fill-6" fill="#EC1D24"></path>
            <path d="M71.7715,101.6035 C71.7755,101.0895 71.7485,100.6015 71.6675,100.1565 C70.7225,94.8985 68.1155,94.4415 66.9415,90.0545 C66.6055,88.7985 72.2745,90.0545 72.2745,90.0545 C74.1295,92.5945 75.6885,97.3155 76.2085,101.5575 C86.1935,102.0225 86.1455,106.5825 83.9565,108.0145 C81.4965,109.6225 79.2635,106.9145 76.3355,105.7705 C76.1045,108.4025 75.1635,110.2585 73.2045,110.2585 C71.1695,110.2585 71.1315,108.2385 71.3805,105.8225 C67.8615,107.0585 64.2585,109.8975 63.0285,107.8245 C61.6255,105.4595 63.2735,102.1765 71.7715,101.6035" id="Fill-8" fill="#FFCA05"></path>
            <path d="M71.8164,109.3217 C71.8164,110.9087 73.1354,112.0397 73.4534,112.0397 C73.7714,112.0397 75.0904,110.9087 75.0904,109.3217 C75.0904,108.4367 74.3574,108.1077 73.4534,108.1077 C72.5484,108.1077 71.8164,108.4367 71.8164,109.3217 M61.0114,109.2697 C61.1534,109.4807 62.6844,109.7227 63.9984,108.8317 C64.7314,108.3347 64.6724,107.6627 64.2654,107.0617 C63.8574,106.4607 63.2554,106.1587 62.5224,106.6557 C61.2084,107.5467 60.8674,109.0577 61.0114,109.2697 M83.1954,106.6617 C82.8074,107.3277 82.7484,108.0657 83.4344,108.5937 C84.6644,109.5417 86.1064,109.2437 86.2424,109.0097 C86.3784,108.7757 86.0674,107.1277 84.8384,106.1797 C84.1514,105.6507 83.5834,105.9947 83.1954,106.6617" id="Fill-10" fill="#FFF584"></path>
            <path d="M46.9609,101.6035 C46.9569,101.0895 46.9839,100.6015 47.0649,100.1565 C48.0099,94.8985 50.6169,94.4415 51.7909,90.0545 C52.1269,88.7985 46.4579,90.0545 46.4579,90.0545 C44.6029,92.5945 43.0439,97.3155 42.5239,101.5575 C32.5389,102.0225 32.5869,106.5825 34.7759,108.0145 C37.2359,109.6225 39.4689,106.9145 42.3969,105.7705 C42.6279,108.4025 43.5689,110.2585 45.5279,110.2585 C47.5629,110.2585 47.6009,108.2385 47.3519,105.8225 C50.8709,107.0585 54.4749,109.8975 55.7039,107.8245 C57.1069,105.4595 55.4589,102.1765 46.9609,101.6035" id="Fill-12" fill="#FFCA05"></path>
            <g id="Group-16" transform="translate(32.000000, 105.040000)">
                <mask id="mask-4" fill="white">
                    <use xlink:href="#path-3"></use>
                </mask>
                <g id="Clip-15"></g>
                <path d="M13.2793,3.0674 C12.3753,3.0674 11.6423,3.3964 11.6423,4.2814 C11.6423,5.8694 12.9613,7.0004 13.2793,7.0004 C13.5973,7.0004 14.9163,5.8694 14.9163,4.2814 C14.9163,3.3964 14.1833,3.0674 13.2793,3.0674 M24.2103,1.6154 C23.4773,1.1184 22.8753,1.4214 22.4673,2.0224 C22.0603,2.6224 22.0013,3.2944 22.7343,3.7914 C24.0483,4.6824 25.5783,4.4404 25.7213,4.2294 C25.8643,4.0184 25.5243,2.5064 24.2103,1.6154 M1.8943,1.1394 C0.6643,2.0874 0.3543,3.7354 0.4903,3.9694 C0.6263,4.2044 2.0683,4.5024 3.2983,3.5544 C3.9843,3.0254 3.9253,2.2884 3.5373,1.6224 C3.1493,0.9544 2.5803,0.6104 1.8943,1.1394" id="Fill-14" fill="#FFF584" mask="url(#mask-4)"></path>
            </g>
            <path d="M17.2651,57.3095 C17.2651,91.2295 36.1141,99.4105 59.3661,99.4105 C82.6181,99.4105 101.4671,91.2295 101.4671,57.3095 C101.4671,26.0585 82.6181,15.2085 59.3661,15.2085 C36.1141,15.2085 17.2651,26.0585 17.2651,57.3095" id="Fill-17" fill="#FFE5B8"></path>
            <path d="M46.4619,32.3476 C52.4459,32.3476 57.7259,35.3376 60.9109,39.8976 C63.7309,36.6526 67.8789,34.5916 72.5149,34.5916 C81.0089,34.5916 87.8959,41.4786 87.8959,49.9716 C87.8959,58.4666 81.0089,65.3526 72.5149,65.3526 C67.8789,65.3526 63.7309,63.2906 60.9109,60.0456 C57.7259,64.6066 52.4459,67.5966 46.4619,67.5966 C36.7279,67.5966 28.8369,59.7056 28.8369,49.9716 C28.8369,40.2386 36.7279,32.3476 46.4619,32.3476" id="Fill-19" fill="#FEFEFE"></path>
            <path d="M48.5225,49.3525 C48.5225,51.8135 50.5175,53.8075 52.9775,53.8075 C55.4375,53.8075 57.4325,51.8135 57.4325,49.3525 C57.4325,46.8925 55.4375,44.8975 52.9775,44.8975 C50.5175,44.8975 48.5225,46.8925 48.5225,49.3525" id="Fill-21" fill="#231F20"></path>
            <path d="M64.209,49.3525 C64.209,51.8135 66.204,53.8075 68.665,53.8075 C71.125,53.8075 73.12,51.8135 73.12,49.3525 C73.12,46.8925 71.125,44.8975 68.665,44.8975 C66.204,44.8975 64.209,46.8925 64.209,49.3525" id="Fill-23" fill="#231F20"></path>
            <path d="M52.7036,64.9096 C52.7036,73.0436 59.4626,78.8376 61.0926,78.8376 C62.7206,78.8376 69.4806,73.0436 69.4806,64.9096 C69.4806,60.3746 65.7246,58.6896 61.0926,58.6896 C56.4596,58.6896 52.7036,60.3746 52.7036,64.9096" id="Fill-25" fill="#FFCA05"></path>
        </g>
    </g>
</svg>