<?xml version="1.0" encoding="UTF-8"?>
<svg width="264px" height="267px" viewBox="0 0 264 267" version="1.1" xmlns="http://www.w3.org/2000/svg" xmlns:xlink="http://www.w3.org/1999/xlink">
    <!-- Generator: Sketch 57.1 (83088) - https://sketch.com -->
    <title>layer</title>
    <desc>Created with Sketch.</desc>
    <defs>
        <polygon id="path-1" points="0 0.524011212 91.2617 0.524011212 91.2617 89.5339612 0 89.5339612"></polygon>
        <polygon id="path-3" points="0.2187 0.524011212 91.48 0.524011212 91.48 89.5339612 0.2187 89.5339612"></polygon>
        <polygon id="path-5" points="0.948826904 0.657 47.2231173 0.657 47.2231173 49.9814 0.948826904 49.9814"></polygon>
    </defs>
    <g id="chucken" stroke="none" stroke-width="1" fill="none" fill-rule="evenodd">
        <g id="layer" transform="translate(0.000000, -1.000000)">
            <path d="M172.7993,245.261 C172.8093,244.174 172.7493,243.141 172.5803,242.199 C170.5803,231.074 165.0643,230.108 162.5803,220.824 C161.8703,218.168 173.8633,220.824 173.8633,220.824 C177.7883,226.198 181.0873,236.188 182.1893,245.162 C203.3153,246.147 203.2123,255.796 198.5803,258.824 C193.3763,262.227 188.6513,256.498 182.4563,254.078 C181.9663,259.646 179.9753,263.574 175.8303,263.574 C171.5253,263.574 171.4453,259.299 171.9733,254.188 C164.5273,256.803 156.9023,262.81 154.2993,258.424 C151.3313,253.42 154.8193,246.474 172.7993,245.261" id="Fill-1" fill="#FFCA05"></path>
            <path d="M172.894,261.5915 C172.894,264.9505 175.685,267.3425 176.358,267.3425 C177.03,267.3425 179.822,264.9505 179.822,261.5915 C179.822,259.7185 178.27,259.0225 176.358,259.0225 C174.444,259.0225 172.894,259.7185 172.894,261.5915 M150.032,261.4815 C150.334,261.9275 153.572,262.4405 156.352,260.5545 C157.902,259.5025 157.779,258.0815 156.916,256.8105 C156.054,255.5385 154.78,254.8995 153.229,255.9505 C150.45,257.8365 149.728,261.0335 150.032,261.4815 M196.971,255.9635 C196.151,257.3735 196.025,258.9335 197.477,260.0525 C200.079,262.0575 203.129,261.4275 203.417,260.9315 C203.706,260.4355 203.049,256.9485 200.447,254.9435 C198.995,253.8235 197.791,254.5515 196.971,255.9635" id="Fill-3" fill="#FFF584"></path>
            <path d="M90.6812,245.261 C90.6712,244.174 90.7312,243.141 90.9002,242.199 C92.9002,231.074 98.4162,230.108 100.9002,220.824 C101.6102,218.168 89.6172,220.824 89.6172,220.824 C85.6922,226.198 82.3932,236.188 81.2912,245.162 C60.1652,246.147 60.2682,255.796 64.9002,258.824 C70.1042,262.227 74.8292,256.498 81.0242,254.078 C81.5142,259.646 83.5052,263.574 87.6502,263.574 C91.9552,263.574 92.0352,259.299 91.5072,254.188 C98.9532,256.803 106.5782,262.81 109.1812,258.424 C112.1492,253.42 108.6612,246.474 90.6812,245.261" id="Fill-5" fill="#FFCA05"></path>
            <path d="M87.1226,259.0227 C85.2096,259.0227 83.6586,259.7187 83.6586,261.5917 C83.6586,264.9507 86.4506,267.3427 87.1226,267.3427 C87.7956,267.3427 90.5866,264.9507 90.5866,261.5917 C90.5866,259.7187 89.0366,259.0227 87.1226,259.0227 M110.2516,255.9507 C108.7006,254.8987 107.4266,255.5387 106.5636,256.8107 C105.7016,258.0817 105.5786,259.5027 107.1286,260.5547 C109.9086,262.4397 113.1466,261.9277 113.4486,261.4807 C113.7526,261.0337 113.0306,257.8367 110.2516,255.9507 M63.0336,254.9427 C60.4316,256.9487 59.7746,260.4357 60.0626,260.9317 C60.3516,261.4277 63.4016,262.0577 66.0036,260.0527 C67.4556,258.9337 67.3296,257.3737 66.5096,255.9637 C65.6886,254.5517 64.4856,253.8237 63.0336,254.9427" id="Fill-7" fill="#FFF584"></path>
            <g id="Group-11" transform="translate(0.000000, 101.343000)">
                <mask id="mask-2" fill="white">
                    <use xlink:href="#path-1"></use>
                </mask>
                <g id="Clip-10"></g>
                <path d="M91.2617,46.9814 C91.2617,46.9814 76.2617,9.4594 37.2617,1.4814 C20.0787,-2.0336 9.5507,4.7524 5.7377,11.7314 C1.9227,18.7124 6.1357,29.4034 15.5117,29.4034 C-3.4883,33.4814 -6.2383,55.7314 14.0117,60.2314 C-2.4883,76.7314 13.7617,95.4814 42.0117,87.7314 C70.2617,79.9814 91.2617,46.9814 91.2617,46.9814" id="Fill-9" fill="#FFDEA3" mask="url(#mask-2)"></path>
            </g>
            <g id="Group-14" transform="translate(172.000000, 101.343000)">
                <mask id="mask-4" fill="white">
                    <use xlink:href="#path-3"></use>
                </mask>
                <g id="Clip-13"></g>
                <path d="M0.2187,46.9814 C0.2187,46.9814 15.2187,9.4594 54.2187,1.4814 C71.4017,-2.0336 81.9297,4.7524 85.7427,11.7314 C89.5577,18.7124 85.3447,29.4034 75.9687,29.4034 C94.9687,33.4814 97.7187,55.7314 77.4687,60.2314 C93.9687,76.7314 77.7187,95.4814 49.4687,87.7314 C21.2187,79.9814 0.2187,46.9814 0.2187,46.9814" id="Fill-12" fill="#FFDEA3" mask="url(#mask-4)"></path>
            </g>
            <g id="Group-17" transform="translate(104.000000, 0.343000)">
                <mask id="mask-6" fill="white">
                    <use xlink:href="#path-5"></use>
                </mask>
                <g id="Clip-16"></g>
                <path d="M34.6855,49.9814 C51.6855,32.9814 51.6425,-1.1496 33.0565,0.7314 C20.7055,1.9814 25.6375,23.4814 25.6375,23.4814 C11.4725,5.7314 -7.3765,23.2934 4.9355,35.6054 C19.1055,49.7754 34.6855,49.9814 34.6855,49.9814" id="Fill-15" fill="#EC1D24" mask="url(#mask-6)"></path>
            </g>
            <path d="M131.7402,229.0603 C192.4642,229.0603 213.4802,211.7603 213.4802,172.8643 C213.4802,107.3023 163.2442,35.9483 131.7402,35.9483 C100.2362,35.9483 50.0002,107.3023 50.0002,172.8643 C50.0002,211.7603 71.0162,229.0603 131.7402,229.0603" id="Fill-18" fill="#FFE5B8"></path>
            <path d="M115.0132,73.0032 C122.4462,73.0032 129.0032,76.7172 132.9602,82.3812 C136.4632,78.3502 141.6132,75.7902 147.3722,75.7902 C157.9232,75.7902 166.4762,84.3432 166.4762,94.8932 C166.4762,105.4432 157.9232,113.9972 147.3722,113.9972 C141.6132,113.9972 136.4632,111.4362 132.9602,107.4062 C129.0032,113.0702 122.4462,116.7842 115.0132,116.7842 C102.9232,116.7842 93.1222,106.9832 93.1222,94.8932 C93.1222,82.8042 102.9232,73.0032 115.0132,73.0032" id="Fill-20" fill="#FEFEFE"></path>
            <path d="M117.5728,94.1243 C117.5728,97.1803 120.0508,99.6573 123.1058,99.6573 C126.1618,99.6573 128.6398,97.1803 128.6398,94.1243 C128.6398,91.0683 126.1618,88.5913 123.1058,88.5913 C120.0508,88.5913 117.5728,91.0683 117.5728,94.1243" id="Fill-22" fill="#231F20"></path>
            <path d="M137.0566,94.1243 C137.0566,97.1803 139.5346,99.6573 142.5906,99.6573 C145.6456,99.6573 148.1236,97.1803 148.1236,94.1243 C148.1236,91.0683 145.6456,88.5913 142.5906,88.5913 C139.5346,88.5913 137.0566,91.0683 137.0566,94.1243" id="Fill-24" fill="#231F20"></path>
            <path d="M114.9863,123.4939 C113.1353,130.4029 116.6413,134.5839 121.9653,136.0099 C127.2903,137.4369 132.4163,135.5689 134.2673,128.6609 C136.1183,121.7509 133.9943,112.4149 128.6703,110.9879 C123.3453,109.5619 116.8383,116.5839 114.9863,123.4939" id="Fill-26" fill="#EC1D24"></path>
            <path d="M153.3804,124.3425 C155.3894,131.8425 151.5844,136.3815 145.8044,137.9285 C140.0244,139.4775 134.4604,137.4505 132.4504,129.9505 C130.4414,122.4495 132.7464,112.3165 138.5264,110.7675 C144.3064,109.2185 151.3704,116.8425 153.3804,124.3425" id="Fill-28" fill="#EC1D24"></path>
            <path d="M122.7666,113.4465 C122.7666,123.5485 131.1606,130.7465 133.1856,130.7465 C135.2076,130.7465 143.6036,123.5485 143.6036,113.4465 C143.6036,107.8145 138.9386,105.7205 133.1856,105.7205 C127.4306,105.7205 122.7666,107.8145 122.7666,113.4465" id="Fill-30" fill="#FFCA05"></path>
            <path d="M131.7402,157.5212 C180.4122,157.5212 197.2582,171.3882 197.2582,202.5642 C197.2582,206.5802 197.0202,210.6222 196.5742,214.6642 C183.8162,224.4582 163.0602,229.0602 131.7402,229.0602 C100.4202,229.0602 79.6642,224.4582 66.9062,214.6642 C66.4602,210.6222 66.2222,206.5802 66.2222,202.5642 C66.2222,171.3882 83.0672,157.5212 131.7402,157.5212" id="Fill-32" fill="#FFECCD"></path>
        </g>
    </g>
</svg>