<?xml version="1.0" encoding="UTF-8"?>
<svg width="473px" height="169px" viewBox="0 0 473 169" version="1.1" xmlns="http://www.w3.org/2000/svg" xmlns:xlink="http://www.w3.org/1999/xlink">
    <!-- Generator: Sketch 59.1 (86144) - https://sketch.com -->
    <title>AntEater</title>
    <desc>Created with Sketch.</desc>
    <defs>
        <linearGradient x1="49.99983%" y1="97.6970757%" x2="49.99983%" y2="21.2490864%" id="linearGradient-1">
            <stop stop-color="#332B2C" offset="0%"></stop>
            <stop stop-color="#705F60" offset="100%"></stop>
        </linearGradient>
        <path d="M134.16,6.247 L61.701,38.653 C60.047,37.409 58.443,36.174 56.889,34.953 C37.299,49.861 20.749,56.59 7.832,59.59 C5.103,60.222 2.537,60.687 0.141,61.032 C4.477,51.855 16.239,30.236 41.418,15.099 C71.204,-2.805 100.624,-0.135 109.624,0.813 C119.849,1.891 128.229,4.216 134.16,6.247 Z" id="path-2"></path>
        <path d="M65.606,0.883 L0.627,29.455 C7.471,39.213 15.361,52.442 21.826,69.088 C29.659,89.255 32.656,107.375 33.808,120.703 C35.651,120.703 37.495,120.703 39.337,120.703 C43.716,113.609 47.976,105.633 51.78,96.739 C67.793,59.312 67.924,23.973 65.606,0.883 Z" id="path-4"></path>
    </defs>
    <g id="Page-1" stroke="none" stroke-width="1" fill="none" fill-rule="evenodd">
        <g id="AntEater">
            <g id="Group">
                <path d="M461.523,143.346 L2.521,143.344 C2.521,143.344 214.207,199.83 461.523,143.346 Z" id="Path" fill="#231F20" fill-rule="nonzero" opacity="0.1"></path>
                <path d="M94.69,20.519 C93.976,20.07 90.79,18.236 88.007,19.828 C85.032,21.53 85.216,25.608 85.242,26.05 C85.527,30.765 90.34,33.099 90.542,33.193 C93.23,31.734 95.918,30.275 98.606,28.815 C98.621,28.469 98.753,23.073 94.69,20.519 Z" id="Path" fill="#804245" fill-rule="nonzero"></path>
                <path d="M111.742,11.763 C111.028,11.314 107.842,9.479 105.059,11.072 C102.083,12.774 102.267,16.852 102.293,17.294 C102.578,22.009 107.392,24.343 107.593,24.437 C110.281,22.978 112.97,21.518 115.658,20.059 C115.673,19.713 115.805,14.317 111.742,11.763 Z" id="Path" fill="#804245" fill-rule="nonzero"></path>
                <path d="M160.439,81.811 C154.111,104.144 147.784,126.477 141.461,148.805 C141.027,150.334 140.595,151.865 140.161,153.395 L135.856,153.395 C135.276,152.215 134.681,150.975 134.086,149.671 C129.745,140.246 125.081,127.609 122.339,112.227 C119.1,94.051 119.694,78.498 120.957,67.525 C124.27,55.018 137.114,48.161 147.838,51.396 C159.301,54.852 166.214,69.188 160.439,81.811 Z" id="Path" fill="#91897E" fill-rule="nonzero"></path>
                <path d="M150.14,118.168 C141.275,118.197 132.41,118.227 123.543,118.256 C124.249,121.468 125.033,124.544 125.871,127.481 C133.183,127.123 140.495,126.764 147.807,126.406 C148.585,123.659 149.362,120.914 150.14,118.168 Z" id="Path" fill="#3B3232" fill-rule="nonzero"></path>
                <path d="M238.884,153.934 L257.69,32.58 C253.81,34.207 224.799,46.958 215.201,79.737 C204.4,116.622 227.897,145.681 229.822,147.978 C228.134,148.084 225.685,148.435 222.959,149.555 C219.605,150.931 217.308,152.864 215.986,154.163 C219.802,154.124 223.619,154.065 227.435,154.048 C231.575,154.029 235.716,154.011 238.884,153.934 Z" id="Path" fill="#3B3232" fill-rule="nonzero"></path>
                <path d="M12.018,152.99 C10.758,152.99 9.52,152.767 8.372,152.311 C4.989,150.967 2.324,147.587 1.06,143.039 C-1.338,134.404 1.65,124.715 8.496,118.93 L10.281,121.042 C4.338,126.063 1.642,134.805 3.724,142.3 C4.754,146.007 6.821,148.72 9.392,149.742 C11.775,150.688 14.86,150.197 17.253,148.489 C17.832,148.075 18.355,147.614 18.825,147.123 C17.523,145.894 16.498,144.369 15.889,142.653 C15.034,140.242 15.167,137.826 16.256,136.024 C17.531,133.912 20.534,132.582 22.972,133.971 C25.85,135.611 25.759,139.452 24.806,142.244 C24.266,143.827 23.577,145.272 22.757,146.556 C23.969,147.201 25.319,147.576 26.685,147.593 C26.724,147.594 26.764,147.594 26.804,147.594 C30.308,147.594 33.555,145.598 37.13,143.187 L38.676,145.48 C35.448,147.656 31.44,150.359 26.803,150.36 C26.752,150.36 26.7,150.359 26.649,150.359 C24.666,150.334 22.739,149.765 21.052,148.787 C20.376,149.525 19.643,150.179 18.859,150.739 C16.788,152.219 14.363,152.99 12.018,152.99 Z M20.813,136.179 C20.009,136.179 19.097,136.67 18.625,137.453 C17.966,138.544 17.919,140.102 18.496,141.729 C18.92,142.923 19.631,144.005 20.53,144.907 C21.297,143.671 21.828,142.413 22.19,141.352 C22.83,139.479 22.919,137.123 21.605,136.373 C21.372,136.241 21.1,136.179 20.813,136.179 Z" id="Shape" fill="#804245" fill-rule="nonzero"></path>
                <path d="M437.1,122.826 L396.084,120.522 L406.684,136.19 L366.59,126.973 L372.58,143.103 L328.339,124.208 L331.105,140.337 L296.542,120.061 L296.542,134.347 L267.048,103.47 C268.582,109.309 270.122,115.144 271.656,120.982 C249.682,117.715 219.778,110.701 187.353,94.752 C173.043,87.715 160.592,80.088 149.942,72.636 C147.061,70.626 144.315,68.626 141.702,66.654 C140.048,65.41 138.444,64.175 136.89,62.954 C117.3,77.862 100.75,84.591 87.833,87.591 C85.104,88.223 82.538,88.688 80.142,89.033 C79.764,89.084 79.391,89.139 79.022,89.185 C72.787,89.997 63.727,90.568 51.833,95.176 C38.408,100.379 29.509,107.513 23.721,112.227 C17.016,117.688 11.984,122.969 8.513,126.974 C7.823,126.389 7.126,125.799 6.435,125.213 C5.131,124.112 3.827,123.011 2.523,121.904 C10.919,106.89 39.828,58.593 95.277,27.532 C107.775,20.527 121.629,14.403 136.891,9.73 C140.638,8.582 144.362,7.559 148.048,6.646 C203.861,-7.165 252.111,4.817 271.656,9.918 C277.61,11.471 292.325,15.54 331.515,34.712 C338.801,38.274 346.935,42.361 356.014,47.053 C387.581,63.358 427.643,85.428 473.045,114.07 C457.528,113.148 442.016,112.226 426.5,111.304 L437.1,122.826 Z" id="Path" fill="url(#linearGradient-1)" fill-rule="nonzero"></path>
                <path d="M95.275,27.532 C94.607,36.689 91.418,45.933 86.422,53.584 C75.463,70.359 57.955,81.48 41.481,92.881 C28.36,101.964 15.129,112.103 6.433,125.213 C5.129,124.112 3.825,123.011 2.521,121.904 C10.918,106.891 39.826,58.594 95.275,27.532 Z" id="Path" fill="#FFFFFF" fill-rule="nonzero" opacity="0.05"></path>
                <g id="Clipped" transform="translate(80.000000, 28.000000)">
                    <mask id="mask-3" fill="white">
                        <use xlink:href="#path-2"></use>
                    </mask>
                    <g id="Path"></g>
                    <path d="M134.16,6.247 L61.701,38.653 C60.047,37.409 58.443,36.174 56.889,34.953 C37.299,49.861 20.749,56.59 7.832,59.59 C5.103,60.222 2.537,60.687 0.141,61.032 C4.477,51.855 16.239,30.236 41.418,15.099 C71.204,-2.805 100.624,-0.135 109.624,0.813 C119.849,1.891 128.229,4.216 134.16,6.247 Z" id="Path" fill="#D4C8B8" fill-rule="nonzero" mask="url(#mask-3)"></path>
                </g>
                <path d="M426.5,111.305 C430.124,111.521 433.748,111.736 437.373,111.951 C394.316,89.044 344.627,78.313 296.541,77.663 C262.438,77.202 228.336,81.81 196.076,95.176 C194.69,95.753 193.308,96.346 191.928,96.946 C222.583,111.35 250.72,117.871 271.656,120.983 C270.122,115.145 268.582,109.31 267.048,103.471 L296.542,134.348 L296.542,120.062 L331.105,140.338 L328.339,124.209 L372.58,143.104 L366.59,126.974 L406.684,136.191 L396.084,120.523 L437.1,122.827 L426.5,111.305 Z" id="Path" fill="#231F20" fill-rule="nonzero" opacity="0.1"></path>
                <path d="M426.5,111.305 C442.016,112.227 457.528,113.149 473.045,114.071 C445.293,96.564 419.542,81.516 396.501,68.736 C381.611,78.085 365.379,85.245 348.975,91.464 C332.489,97.714 315.477,102.503 298.316,106.498 C290.494,108.319 282.633,109.99 274.748,111.533 L296.542,134.348 L296.542,120.062 L331.105,140.338 L328.339,124.209 L372.58,143.104 L366.59,126.974 L406.684,136.191 L396.084,120.523 L437.1,122.827 L426.5,111.305 Z" id="Path" fill="#231F20" fill-rule="nonzero" opacity="0.1"></path>
                <path d="M129.715,46.787 C124.177,49.691 113.598,55.356 102.973,66.537 C95.594,74.302 90.821,81.963 87.833,87.59 C100.75,84.59 117.3,77.861 136.89,62.953 L201.607,33.883 C190.62,33.041 158.53,31.669 129.715,46.787 Z" id="Path" fill="#3B3232" fill-rule="nonzero"></path>
                <path d="M271.886,153.934 L259.932,32.54 C256.692,34.518 230.934,50.837 227.444,82.31 C224.58,108.143 237.859,133.9 261.315,147.977 C258.541,150.116 255.766,152.255 252.992,154.395 C259.289,154.24 265.588,154.087 271.886,153.934 Z" id="Path" fill="#6E5D5E" fill-rule="nonzero"></path>
                <path d="M230.15,109.001 C235.172,124.796 246.098,138.845 261.314,147.977 C258.54,150.116 255.765,152.255 252.991,154.395 C259.289,154.241 265.588,154.087 271.886,153.934 L266.965,103.966 C255.625,109.2 242.584,111.001 230.15,109.001 Z" id="Path" fill="#231F20" fill-rule="nonzero" opacity="0.2"></path>
                <path d="M144.496,147.251 C144.392,147.661 144.289,148.071 144.185,148.481 C143.277,148.587 142.369,148.693 141.461,148.804 C139,149.089 136.543,149.379 134.087,149.67 C134.682,150.974 135.276,152.214 135.857,153.394 L150.328,153.394 C150.632,152.832 151.876,150.427 151.665,147.25 C149.259,147.251 146.963,147.251 144.496,147.251 Z" id="Path" fill="#91897E" fill-rule="nonzero"></path>
                <path d="M151.259,144.947 C150.162,141.163 147.406,139.222 146.651,138.725 C145.934,141.568 145.214,144.409 144.497,147.25 C146.964,147.25 149.26,147.25 151.666,147.25 C151.617,146.52 151.491,145.747 151.259,144.947 Z" id="Path" fill="#3B3232" fill-rule="nonzero"></path>
                <path d="M69.911,59.352 C66.739,59.352 62.144,54.064 59.493,50.627 L61.682,48.938 C65.857,54.351 68.764,56.354 69.701,56.575 C70.017,55.609 69.741,51.833 66.914,45.013 L69.469,43.954 C71.086,47.856 74.484,57.14 71.099,59.052 C70.734,59.257 70.335,59.352 69.911,59.352 Z" id="Path" fill="#231F20" fill-rule="nonzero"></path>
                <path d="M81.803,50.544 C78.631,50.544 74.036,45.257 71.385,41.819 L73.575,40.131 C77.749,45.543 80.657,47.546 81.594,47.768 C81.91,46.8 81.634,43.024 78.807,36.205 L81.362,35.146 C82.979,39.048 86.377,48.332 82.993,50.244 C82.627,50.449 82.228,50.544 81.803,50.544 Z" id="Path" fill="#231F20" fill-rule="nonzero"></path>
                <g transform="translate(136.000000, 33.000000)">
                    <path d="M29.451,116.511 C29.597,112.916 29.744,109.321 29.89,105.726 C28.627,106.786 26.039,109.251 24.591,113.33 C24.202,114.423 23.956,115.466 23.804,116.433 C25.642,116.37 27.573,116.571 29.451,116.511 Z" id="Path" fill="#3B3232" fill-rule="nonzero"></path>
                    <path d="M29.43,117.017 C29.438,116.848 29.445,116.679 29.451,116.511 C27.573,116.572 25.641,116.37 23.805,116.432 C23.507,118.309 23.568,119.891 23.67,120.934 C28.893,120.857 34.115,120.78 39.338,120.704 L40.94,117.354 C37.103,117.241 33.267,117.129 29.43,117.017 Z" id="Path" fill="#D4C8B8" fill-rule="nonzero"></path>
                    <g id="Clipped">
                        <mask id="mask-5" fill="white">
                            <use xlink:href="#path-4"></use>
                        </mask>
                        <g id="Path"></g>
                        <path d="M65.606,0.883 L0.889,29.953 C7.733,39.711 15.361,52.442 21.826,69.088 C29.659,89.255 32.656,107.375 33.808,120.703 C35.651,120.703 37.495,120.703 39.337,120.703 C43.716,113.609 47.976,105.633 51.78,96.739 C67.793,59.312 67.924,23.973 65.606,0.883 Z" id="Path" fill="#D4C8B8" fill-rule="nonzero" mask="url(#mask-5)"></path>
                    </g>
                    <path d="M23.545,73.701 C29.492,90.299 32.212,105.306 33.461,117.135 C32.117,117.095 30.774,117.056 29.43,117.017 C29.438,116.848 29.445,116.679 29.451,116.511 C27.573,116.572 25.641,116.37 23.805,116.432 C23.507,118.309 23.568,119.891 23.67,120.934 C28.893,120.857 34.115,120.78 39.338,120.704 C43.717,113.61 47.977,105.634 51.781,96.74 C55.26,88.605 57.989,80.571 60.106,72.738 C48.394,76.479 35.587,76.849 23.545,73.701 Z" id="Path" fill="#231F20" fill-rule="nonzero" opacity="0.1"></path>
                    <path d="M27.952,87.713 C28.822,90.917 29.577,94.033 30.232,97.049 C37.228,97.371 44.224,97.694 51.219,98.016 C51.406,97.589 51.596,97.17 51.781,96.74 C52.884,94.163 53.904,91.597 54.86,89.044 C45.891,88.6 36.922,88.156 27.952,87.713 Z" id="Path" fill="#3B3232" fill-rule="nonzero"></path>
                </g>
                <path d="M331.515,34.713 C322.21,36.413 312.385,37.722 302.072,38.491 C235.24,43.482 181.077,23.422 148.048,6.646 C203.861,-7.165 252.111,4.817 271.656,9.918 C277.609,11.472 292.324,15.541 331.515,34.713 Z" id="Path" fill="#FFFFFF" fill-rule="nonzero" opacity="0.05"></path>
            </g>
        </g>
    </g>
</svg>