<?xml version="1.0" encoding="UTF-8"?>
<svg width="54px" height="45px" viewBox="0 0 54 45" version="1.1" xmlns="http://www.w3.org/2000/svg" xmlns:xlink="http://www.w3.org/1999/xlink">
    <!-- Generator: Sketch 58 (84663) - https://sketch.com -->
    <title>AutoUpdate</title>
    <desc>Created with Sketch.</desc>
    <g id="Page-1" stroke="none" stroke-width="1" fill="none" fill-rule="evenodd">
        <g id="AutoUpdate">
            <g id="rotaty-logo">
                <path d="M27,32 C32.5228475,32 37,27.5228475 37,22 C37,16.4771525 32.5228475,12 27,12 C21.4771525,12 17,16.4771525 17,22 C17,27.5228475 21.4771525,32 27,32 Z M21.29,21.29 C21.4777666,21.1006873 21.7333625,20.9942017 22,20.9942017 C22.2666375,20.9942017 22.5222334,21.1006873 22.71,21.29 L25.5,24.09 L31.29,18.29 C31.5436586,18.0363414 31.913374,17.9372765 32.259878,18.030122 C32.6063821,18.1229674 32.8770326,18.3936179 32.969878,18.740122 C33.0627235,19.086626 32.9636586,19.4563414 32.71,19.71 L26.21,26.21 C26.0222334,26.3993127 25.7666375,26.5057983 25.5,26.5057983 C25.2333625,26.5057983 24.9777666,26.3993127 24.79,26.21 L21.29,22.71 C21.1006873,22.5222334 20.9942017,22.2666375 20.9942017,22 C20.9942017,21.7333625 21.1006873,21.4777666 21.29,21.29 Z" id="Shape" fill="#FFFFFF" fill-rule="nonzero"></path>
                <path d="M48,22 L50,22 L47.82,19.28 L47.82,19.28 L46.82,17.98 C46.6302032,17.7434287 46.3432965,17.6057795 46.04,17.6057795 C45.7367035,17.6057795 45.4497968,17.7434287 45.26,17.98 L43.84,19.7 L42,22 L44,22 C44,31.3888407 36.3888407,39 27,39 L1,39 C0.44771525,39 0,39.4477153 0,40 L0,42 C0,42.5522847 0.44771525,43 1,43 L27,43 C38.5979797,43 48,33.5979797 48,22 Z" id="Path" fill="#8265A7" fill-rule="nonzero"></path>
                <path d="M6.18,24.73 L7.18,26.03 C7.36979675,26.2665713 7.65670347,26.4042205 7.96,26.4042205 C8.26329653,26.4042205 8.55020325,26.2665713 8.74,26.03 L10.12,24.31 L12,22 L10,22 C9.99185264,14.0376822 15.5112917,7.13644858 23.2807189,5.39444607 C31.0501461,3.65244356 38.9877675,7.53643629 42.38,14.74 C42.5221245,15.0345138 42.7992697,15.2409303 43.1221511,15.2927508 C43.4450325,15.3445713 43.772852,15.2352479 44,15 L45.5,13.5 C45.80789,13.1952967 45.8845927,12.7270065 45.69,12.34 C41.2596549,3.69192159 31.4749298,-0.787383503 22.0336894,1.51048453 C12.592449,3.80835256 5.96059304,12.2832277 6,22 L4,22 L6.18,24.72 L6.18,24.73 Z" id="Path" fill="#8265A7" fill-rule="nonzero"></path>
                <path d="M53,40.22 L49,37 L49,39 L42.48,39 C41.8457444,39.5788295 41.1779194,40.1197678 40.48,40.62 C39.2019069,41.5569523 37.8274547,42.354805 36.38,43 L49,43 L49,45 L53,41.78 C53.2365713,41.5902032 53.3742205,41.3032965 53.3742205,41 C53.3742205,40.6967035 53.2365713,40.4097968 53,40.22 Z" id="Path" fill="#8265A7" fill-rule="nonzero"></path>
                <path d="M11.06,27.94 L8,31 C9.06598999,33.2392854 10.522029,35.2709677 12.3,37 L19,37 C15.3361441,35.050452 12.5120166,31.827959 11.06,27.94 L11.06,27.94 Z" id="Path" fill="#8265A7" fill-rule="nonzero"></path>
            </g>
        </g>
    </g>
</svg>