<?xml version="1.0" encoding="UTF-8"?>
<svg width="1200px" height="800px" viewBox="0 0 1200 800" version="1.1" xmlns="http://www.w3.org/2000/svg" xmlns:xlink="http://www.w3.org/1999/xlink">
    <!-- Generator: Sketch 59.1 (86144) - https://sketch.com -->
    <title>PWA</title>
    <desc>Created with Sketch.</desc>
    <g id="PWA" stroke="none" stroke-width="1" fill="none" fill-rule="evenodd">
        <rect id="GreenBG" fill="#00BC41" x="0" y="0" width="1200" height="800"></rect>
        <rect id="YellowBox" fill="#FFCA05" x="55" y="385" width="288" height="361"></rect>
        <rect id="RedBox" fill="#D7252B" x="830" y="400" width="298" height="346"></rect>
        <rect id="RoostingBar" fill="#509144" x="165" y="565" width="870" height="37"></rect>
        <path d="M406.404687,681.007812 C406.404687,674.976532 408.021859,670.328141 411.25625,667.0625 C414.068764,664.218736 417.646853,662.796875 421.990625,662.796875 C427.803154,662.796875 432.053112,664.703106 434.740625,668.515625 C436.225007,670.656261 437.021874,672.804677 437.13125,674.960938 L429.9125,674.960938 C429.443748,673.304679 428.842191,672.054692 428.107812,671.210938 C426.795306,669.71093 424.850013,668.960938 422.271875,668.960938 C419.646862,668.960938 417.57657,670.019521 416.060937,672.136719 C414.545305,674.253917 413.7875,677.249981 413.7875,681.125 C413.7875,685.000019 414.588273,687.902334 416.189844,689.832031 C417.791414,691.761728 419.82655,692.726562 422.295312,692.726562 C424.826575,692.726562 426.756243,691.898446 428.084375,690.242188 C428.818754,689.351558 429.428123,688.015634 429.9125,686.234375 L437.060937,686.234375 C436.435934,690.000019 434.838294,693.062488 432.267969,695.421875 C429.697643,697.781262 426.404708,698.960938 422.389062,698.960938 C417.420288,698.960938 413.514077,697.367203 410.670312,694.179688 C407.826548,690.976546 406.404687,686.585965 406.404687,681.007812 Z M456.715625,671.796875 C458.293758,671.796875 459.727337,672.070312 461.016406,672.617188 C462.305475,673.164065 463.364058,673.999994 464.192187,675.125 C464.895316,676.07813 465.324999,677.058589 465.48125,678.066406 C465.637501,679.074224 465.715625,680.718739 465.715625,683 L465.715625,698 L458.895312,698 L458.895312,682.460938 C458.895312,681.085931 458.66094,679.976567 458.192187,679.132812 C457.582809,677.945307 456.426571,677.351562 454.723437,677.351562 C452.957804,677.351562 451.617973,677.9414 450.703906,679.121094 C449.789839,680.300787 449.332812,681.984364 449.332812,684.171875 L449.332812,698 L442.676562,698 L442.676562,663.570312 L449.332812,663.570312 L449.332812,675.78125 C450.301567,674.296868 451.42265,673.261722 452.696094,672.675781 C453.969538,672.089841 455.309368,671.796875 456.715625,671.796875 Z M479.20625,672.453125 L479.20625,687.851562 C479.20625,689.304695 479.378123,690.398434 479.721875,691.132812 C480.331253,692.429694 481.526554,693.078125 483.307812,693.078125 C485.589074,693.078125 487.151558,692.156259 487.995312,690.3125 C488.432815,689.312495 488.651562,687.992196 488.651562,686.351562 L488.651562,672.453125 L495.425,672.453125 L495.425,698 L488.932812,698 L488.932812,694.390625 L488.822949,694.544433 C488.739942,694.666503 488.620313,694.849608 488.464062,695.09375 C488.214061,695.484377 487.917189,695.828124 487.573437,696.125 C486.526557,697.062505 485.514849,697.703123 484.538281,698.046875 C483.561714,698.390627 482.417194,698.5625 481.104687,698.5625 C477.323419,698.5625 474.776569,697.203139 473.464062,694.484375 C472.729684,692.984367 472.3625,690.773452 472.3625,687.851562 L472.3625,672.453125 L479.20625,672.453125 Z M517.728125,681.617188 C517.603124,680.664058 517.282815,679.804691 516.767187,679.039062 C516.017187,678.007807 514.853133,677.492188 513.275,677.492188 C511.024989,677.492188 509.485942,678.609364 508.657812,680.84375 C508.22031,682.031256 508.001562,683.609365 508.001562,685.578125 C508.001562,687.453134 508.22031,688.960932 508.657812,690.101562 C509.454691,692.226573 510.954676,693.289062 513.157812,693.289062 C514.72032,693.289062 515.829684,692.867192 516.485937,692.023438 C517.142191,691.179683 517.540624,690.085944 517.68125,688.742188 L524.501562,688.742188 C524.345312,690.773448 523.610944,692.695303 522.298437,694.507812 C520.204677,697.429702 517.103146,698.890625 512.99375,698.890625 C508.884354,698.890625 505.860947,697.671887 503.923437,695.234375 C501.985928,692.796863 501.017187,689.632832 501.017187,685.742188 C501.017187,681.351541 502.087489,677.937512 504.228125,675.5 C506.368761,673.062488 509.321856,671.84375 513.0875,671.84375 C516.290641,671.84375 518.911709,672.562493 520.950781,674 C522.989854,675.437507 524.196873,677.976544 524.571875,681.617188 L517.728125,681.617188 Z M529.695312,663.570312 L536.257812,663.570312 L536.257812,682.179688 L544.578125,672.570312 L552.851562,672.570312 L543.921875,682.34375 L553.203125,698 L545.140625,698 L539.023437,687.078125 L536.257812,689.960938 L536.257812,698 L529.695312,698 L529.695312,663.570312 Z M567.139063,677.28125 C565.59218,677.28125 564.392973,677.76562 563.541406,678.734375 C562.689839,679.70313 562.154689,681.015617 561.935938,682.671875 L572.31875,682.671875 C572.209374,680.906241 571.674224,679.566411 570.713281,678.652344 C569.752339,677.738277 568.560945,677.28125 567.139063,677.28125 Z M567.139063,671.773438 C569.264073,671.773438 571.178116,672.171871 572.88125,672.96875 C574.584384,673.765629 575.990619,675.023429 577.1,676.742188 C578.100005,678.25782 578.748436,680.015615 579.045313,682.015625 C579.217188,683.187506 579.2875,684.874989 579.25625,687.078125 L561.771875,687.078125 C561.865625,689.640638 562.670305,691.437495 564.185938,692.46875 C565.107817,693.109378 566.217181,693.429688 567.514063,693.429688 C568.889069,693.429688 570.006246,693.039066 570.865625,692.257812 C571.334377,691.835935 571.748436,691.250004 572.107813,690.5 L578.928125,690.5 C578.756249,692.015633 577.967195,693.55468 576.560938,695.117188 C574.373427,697.601575 571.310957,698.84375 567.373438,698.84375 C564.123421,698.84375 561.256262,697.796885 558.771875,695.703125 C556.287488,693.609365 555.045313,690.203149 555.045313,685.484375 C555.045313,681.062478 556.166395,677.671887 558.408594,675.3125 C560.650792,672.953113 563.56092,671.773438 567.139063,671.773438 Z M598.5125,671.84375 C601.153138,671.84375 603.313273,672.535149 604.992969,673.917969 C606.672665,675.300788 607.5125,677.593734 607.5125,680.796875 L607.5125,698 L600.66875,698 L600.66875,682.460938 C600.66875,681.117181 600.489064,680.085941 600.129687,679.367188 C599.473434,678.054681 598.223447,677.398438 596.379687,677.398438 C594.114051,677.398438 592.559379,678.359365 591.715625,680.28125 C591.278123,681.29688 591.059375,682.593742 591.059375,684.171875 L591.059375,698 L584.403125,698 L584.403125,672.5 L590.848437,672.5 L590.848437,676.226562 C591.707817,674.914056 592.520309,673.968753 593.285937,673.390625 C594.660944,672.35937 596.403114,671.84375 598.5125,671.84375 Z M638.042187,674.234375 C637.49531,671.874988 636.159386,670.226567 634.034375,669.289062 C632.846869,668.773435 631.52657,668.515625 630.073437,668.515625 C627.292174,668.515625 625.00704,669.566396 623.217969,671.667969 C621.428897,673.769542 620.534375,676.929666 620.534375,681.148438 C620.534375,685.398459 621.503115,688.406241 623.440625,690.171875 C625.378135,691.937509 627.581238,692.820312 630.05,692.820312 C632.471887,692.820312 634.456242,692.121101 636.003125,690.722656 C637.550008,689.324212 638.503123,687.492199 638.8625,685.226562 L630.870312,685.226562 L630.870312,679.460938 L645.260937,679.460938 L645.260937,698 L640.479687,698 L639.753125,693.6875 C638.362493,695.328133 637.112506,696.484372 636.003125,697.15625 C634.096865,698.328131 631.753139,698.914062 628.971875,698.914062 C624.393727,698.914062 620.643765,697.328141 617.721875,694.15625 C614.674985,690.968734 613.151562,686.609403 613.151562,681.078125 C613.151562,675.484347 614.69061,671.000017 617.76875,667.625 C620.84689,664.249983 624.917162,662.5625 629.979687,662.5625 C634.370334,662.5625 637.897643,663.67577 640.561719,665.902344 C643.225795,668.128917 644.753123,670.906233 645.14375,674.234375 L638.042187,674.234375 Z M663.673437,693.289062 C665.626572,693.289062 667.126557,692.593757 668.173437,691.203125 C669.220318,689.812493 669.74375,687.83595 669.74375,685.273438 C669.74375,682.710925 669.220318,680.738288 668.173437,679.355469 C667.126557,677.972649 665.626572,677.28125 663.673437,677.28125 C661.720303,677.28125 660.216412,677.972649 659.161719,679.355469 C658.107026,680.738288 657.579687,682.710925 657.579687,685.273438 C657.579687,687.83595 658.107026,689.812493 659.161719,691.203125 C660.216412,692.593757 661.720303,693.289062 663.673437,693.289062 Z M676.751562,685.273438 C676.751562,689.023456 675.673448,692.230455 673.517187,694.894531 C671.360927,697.558607 668.087522,698.890625 663.696875,698.890625 C659.306228,698.890625 656.032823,697.558607 653.876562,694.894531 C651.720302,692.230455 650.642187,689.023456 650.642187,685.273438 C650.642187,681.585919 651.720302,678.390639 653.876562,675.6875 C656.032823,672.984361 659.306228,671.632812 663.696875,671.632812 C668.087522,671.632812 671.360927,672.984361 673.517187,675.6875 C675.673448,678.390639 676.751562,681.585919 676.751562,685.273438 Z M679.507812,677.445312 L679.507812,672.6875 L683.070312,672.6875 L683.070312,665.5625 L689.679687,665.5625 L689.679687,672.6875 L693.828125,672.6875 L693.828125,677.445312 L689.679687,677.445312 L689.679687,690.945312 C689.679687,691.992193 689.812499,692.64453 690.078125,692.902344 C690.343751,693.160158 691.156243,693.289062 692.515625,693.289062 L692.9375,693.283854 C693.010416,693.282118 693.084635,693.279948 693.160156,693.277344 C693.38672,693.269531 693.609374,693.257813 693.828125,693.242188 L693.828125,698.234375 L690.664062,698.351562 C687.507797,698.460938 685.351568,697.914069 684.195312,696.710938 C683.445309,695.945309 683.070312,694.765633 683.070312,693.171875 L683.070312,677.445312 L679.507812,677.445312 Z M713.975,681.617188 C713.849999,680.664058 713.52969,679.804691 713.014063,679.039062 C712.264063,678.007807 711.100008,677.492188 709.521875,677.492188 C707.271864,677.492188 705.732817,678.609364 704.904688,680.84375 C704.467185,682.031256 704.248438,683.609365 704.248438,685.578125 C704.248438,687.453134 704.467185,688.960932 704.904688,690.101562 C705.701566,692.226573 707.201551,693.289062 709.404688,693.289062 C710.967195,693.289062 712.076559,692.867192 712.732813,692.023438 C713.389066,691.179683 713.787499,690.085944 713.928125,688.742188 L720.748438,688.742188 C720.592187,690.773448 719.857819,692.695303 718.545313,694.507812 C716.451552,697.429702 713.350021,698.890625 709.240625,698.890625 C705.131229,698.890625 702.107822,697.671887 700.170313,695.234375 C698.232803,692.796863 697.264063,689.632832 697.264063,685.742188 C697.264063,681.351541 698.334364,677.937512 700.475,675.5 C702.615636,673.062488 705.568731,671.84375 709.334375,671.84375 C712.537516,671.84375 715.158584,672.562493 717.197656,674 C719.236729,675.437507 720.443748,677.976544 720.81875,681.617188 L713.975,681.617188 Z M740.098437,671.796875 C741.67657,671.796875 743.11015,672.070312 744.399219,672.617188 C745.688288,673.164065 746.746871,673.999994 747.575,675.125 C748.278129,676.07813 748.707812,677.058589 748.864062,678.066406 C749.020313,679.074224 749.098437,680.718739 749.098437,683 L749.098437,698 L742.278125,698 L742.278125,682.460938 C742.278125,681.085931 742.043752,679.976567 741.575,679.132812 C740.965622,677.945307 739.809384,677.351562 738.10625,677.351562 C736.340616,677.351562 735.000786,677.9414 734.086719,679.121094 C733.172652,680.300787 732.715625,681.984364 732.715625,684.171875 L732.715625,698 L726.059375,698 L726.059375,663.570312 L732.715625,663.570312 L732.715625,675.78125 C733.68438,674.296868 734.805462,673.261722 736.078906,672.675781 C737.35235,672.089841 738.69218,671.796875 740.098437,671.796875 Z M762.8,669.40625 L756.026562,669.40625 L756.026562,663.242188 L762.8,663.242188 L762.8,669.40625 Z M756.026562,672.453125 L762.8,672.453125 L762.8,698 L756.026562,698 L756.026562,672.453125 Z" id="ChuckenGotchi" fill="#FFFFFF" fill-rule="nonzero"></path>
        <g id="Chucken" transform="translate(313.000000, 34.000000)" fill-rule="nonzero">
            <path d="M357.38037,504.994754 C357.401052,502.747746 357.276961,500.612366 356.927439,498.665097 C352.791075,475.667896 341.382984,473.671015 336.24562,454.479463 C334.777211,448.989075 359.580916,454.479463 359.580916,454.479463 C367.69853,465.588403 374.521461,486.239373 376.800598,504.790104 C420.493007,506.826261 420.279984,526.772328 410.700166,533.031701 C399.937348,540.066261 390.165189,528.223478 377.352802,523.22094 C376.339393,534.73091 372.221643,542.850731 363.64903,542.850731 C354.745507,542.850731 354.580052,534.013604 355.672052,523.448328 C340.27237,528.853963 324.502484,541.271418 319.119007,532.204836 C312.980643,521.860746 320.194461,507.502224 357.38037,504.994754" id="right-leg" fill="#FFCA05"></path>
            <path d="M357.576227,538.752578 C357.576227,545.696183 363.348523,550.64084 364.740409,550.64084 C366.130227,550.64084 371.904591,545.696183 371.904591,538.752578 C371.904591,534.88078 368.694773,533.442034 364.740409,533.442034 C360.781909,533.442034 357.576227,534.88078 357.576227,538.752578 M310.293455,538.52519 C310.918045,539.447146 317.614818,540.507601 323.364364,536.608929 C326.570045,534.434272 326.315659,531.496832 324.530818,528.869466 C322.748045,526.240034 320.113182,524.919116 316.905432,527.091705 C311.157955,530.990377 309.664727,537.599101 310.293455,538.52519 M407.371841,527.118578 C405.675932,530.03328 405.415341,533.258056 408.418341,535.571213 C413.79975,539.715877 420.107705,538.413563 420.703341,537.38825 C421.301045,536.362937 419.94225,529.154735 414.560841,525.010071 C411.557841,522.694847 409.06775,524.199743 407.371841,527.118578" id="right-toes" fill="#FFF584"></path>
            <path d="M187.545209,504.994754 C187.524527,502.747746 187.648618,500.612366 187.998141,498.665097 C192.134505,475.667896 203.542595,473.671015 208.679959,454.479463 C210.148368,448.989075 185.344664,454.479463 185.344664,454.479463 C177.22705,465.588403 170.404118,486.239373 168.124982,504.790104 C124.432573,506.826261 124.645595,526.772328 134.225414,533.031701 C144.988232,540.066261 154.760391,528.223478 167.572777,523.22094 C168.586186,534.73091 172.703936,542.850731 181.27655,542.850731 C190.180073,542.850731 190.345527,534.013604 189.253527,523.448328 C204.653209,528.853963 220.423095,541.271418 225.806573,532.204836 C231.944936,521.860746 224.731118,507.502224 187.545209,504.994754" id="left-leg" fill="#FFCA05"></path>
            <path d="M180.185377,533.442447 C176.228945,533.442447 173.021195,534.881193 173.021195,538.752992 C173.021195,545.696596 178.795559,550.641253 180.185377,550.641253 C181.577264,550.641253 187.349559,545.696596 187.349559,538.752992 C187.349559,534.881193 184.143877,533.442447 180.185377,533.442447 M228.020355,527.092119 C224.812605,524.917462 222.177741,526.240447 220.3929,528.86988 C218.610127,531.497246 218.355741,534.434686 221.561423,536.609343 C227.310968,540.505947 234.007741,539.447559 234.632332,538.523537 C235.261059,537.599514 233.767832,530.99079 228.020355,527.092119 M130.364945,525.008417 C124.983536,529.155149 123.624741,536.36335 124.220377,537.388663 C124.818082,538.413977 131.126036,539.71629 136.507445,535.571626 C139.510445,533.258469 139.249855,530.033693 137.553945,527.118992 C135.855968,524.200156 133.367945,522.69526 130.364945,525.008417" id="left-toes" fill="#FFF584"></path>
            <path d="M188.745789,304.610887 C188.745789,304.610887 157.723061,227.046752 77.0639705,210.554916 C41.5264023,203.288834 19.7525841,217.31661 11.8666068,231.743349 C3.97649318,246.174222 12.6897432,268.274275 32.0810159,268.274275 C-7.21443864,276.70417 -12.9019386,322.698573 28.9787432,332.000812 C-5.14625682,366.109021 28.4616977,404.868349 86.8878341,388.847827 C145.31397,372.827304 188.745789,304.610887 188.745789,304.610887" id="left-wing" fill="#E74A50"></path>
            <path d="M356.179584,304.610887 C356.179584,304.610887 387.202311,227.046752 467.861402,210.554916 C503.39897,203.288834 525.172789,217.31661 533.058766,231.743349 C540.94888,246.174222 532.23563,268.274275 512.844357,268.274275 C552.139811,276.70417 557.827311,322.698573 515.94663,332.000812 C550.07163,366.109021 516.463675,404.868349 458.037539,388.847827 C399.611402,372.827304 356.179584,304.610887 356.179584,304.610887" id="right-wing" fill="#E74A50"></path>
            <path d="M286.82683,102.028797 C321.98592,66.887006 321.896989,-3.66737463 283.457761,0.220961194 C257.913648,2.80491642 268.11392,47.2489463 268.11392,47.2489463 C238.818125,10.5567821 199.834966,46.8603194 225.29842,72.3112448 C254.604557,101.602961 286.82683,102.028797 286.82683,102.028797" id="comb" fill="#EC1D24"></path>
            <path d="M272.462686,471.505247 C398.050959,471.505247 441.515868,435.743307 441.515868,355.338889 C441.515868,219.811471 337.618686,72.3110381 272.462686,72.3110381 C207.306686,72.3110381 103.409505,219.811471 103.409505,355.338889 C103.409505,435.743307 146.874414,471.505247 272.462686,471.505247" id="body" fill="#D7252B"></path>
            <path d="M237.868209,148.9096 C253.241005,148.9096 266.802073,156.587048 274.985868,168.295466 C282.230709,159.962727 292.881845,154.670787 304.792505,154.670787 C326.613891,154.670787 344.30305,172.351242 344.30305,194.159824 C344.30305,215.968406 326.613891,233.650928 304.792505,233.650928 C292.881845,233.650928 282.230709,228.356921 274.985868,220.026249 C266.802073,231.734667 253.241005,239.412115 237.868209,239.412115 C212.863891,239.412115 192.593641,219.151839 192.593641,194.159824 C192.593641,169.169876 212.863891,148.9096 237.868209,148.9096" id="eyes-whites" fill="#FEFEFE"></path>
            <path d="M243.161927,192.570381 C243.161927,198.887635 248.286882,204.008001 254.605177,204.008001 C260.925541,204.008001 266.050495,198.887635 266.050495,192.570381 C266.050495,186.253128 260.925541,181.132762 254.605177,181.132762 C248.286882,181.132762 243.161927,186.253128 243.161927,192.570381" id="left-pupil" fill="#231F20"></path>
            <path d="M283.457968,192.570381 C283.457968,198.887635 288.582923,204.008001 294.903286,204.008001 C301.221582,204.008001 306.346536,198.887635 306.346536,192.570381 C306.346536,186.253128 301.221582,181.132762 294.903286,181.132762 C288.582923,181.132762 283.457968,186.253128 283.457968,192.570381" id="right-pupil" fill="#231F20"></path>
            <path d="M237.812575,253.282166 C233.98437,267.564204 241.235416,276.207017 252.246416,279.154793 C263.259484,282.104637 273.860984,278.243174 277.689189,263.963204 C281.517393,249.679099 277.124575,230.380054 266.113575,227.430211 C255.100507,224.482435 241.642848,238.998062 237.812575,253.282166" id="left-wattle" fill="#EC1D24"></path>
            <path d="M317.218555,255.036362 C321.373532,270.540093 313.5041,279.922951 301.550009,283.120854 C289.595918,286.322892 278.088555,282.13275 273.931509,266.629019 C269.776532,251.12322 274.543691,230.176646 286.497782,226.974608 C298.451873,223.772571 313.061509,239.532631 317.218555,255.036362" id="right-wattle" fill="#EC1D24"></path>
            <path d="M253.90365,232.512541 C253.90365,253.395034 271.263968,268.274481 275.452036,268.274481 C279.6339,268.274481 296.998355,253.395034 296.998355,232.512541 C296.998355,220.870272 287.350286,216.541631 275.452036,216.541631 C263.54965,216.541631 253.90365,220.870272 253.90365,232.512541" id="beak" fill="#FFCA05"></path>
            <path d="M407.965823,416.733458 C407.965823,425.03519 407.473595,433.390667 406.551186,441.746145 C380.165323,461.991951 337.238141,471.50504 272.462686,471.50504 C207.687232,471.50504 164.76005,461.991951 138.374186,441.746145 C137.451777,433.390667 136.95955,425.03519 136.95955,416.733458 C136.95955,352.287548 171.798073,323.622182 272.462686,323.622182 C373.125232,323.622182 407.965823,352.287548 407.965823,416.733458 Z" id="belly" fill="#B9292E"></path>
        </g>
    </g>
</svg>