<svg viewBox="0 0 356 360" width="356" height="360" xmlns="http://www.w3.org/2000/svg" xmlns:xlink="http://www.w3.org/1999/xlink"><defs><path id="a" d="M0 .706h123.065v119.898H0z"/><path id="c" d="M.295.706h123.064v119.898H.295z"/><path id="e" d="M1.28.885h62.4v66.44H1.28z"/></defs><g fill="none" fill-rule="evenodd"><path d="M233.017 329.37c.014-1.464-.067-2.855-.295-4.124-2.697-14.986-10.135-16.287-13.485-28.793-.957-3.577 15.215 0 15.215 0 5.293 7.24 9.741 20.696 11.228 32.784 28.488 1.327 28.349 14.324 22.103 18.403-7.018 4.584-13.39-3.133-21.743-6.393-.661 7.5-3.346 12.791-8.936 12.791-5.805 0-5.913-5.758-5.2-12.643-10.041 3.522-20.324 11.614-23.834 5.706-4.002-6.74.701-16.097 24.947-17.73" fill="#FFCA05" fill-rule="nonzero"/><path d="M233.145 351.368c0 4.524 3.764 7.746 4.671 7.746.906 0 4.671-3.222 4.671-7.746 0-2.523-2.093-3.46-4.67-3.46-2.582 0-4.672.937-4.672 3.46m-30.83-.149c.408.601 4.775 1.292 8.523-1.248 2.09-1.417 1.925-3.331.76-5.043-1.162-1.714-2.88-2.575-4.971-1.159-3.747 2.54-4.721 6.847-4.311 7.45m63.296-7.432c-1.105 1.899-1.275 4 .683 5.508 3.508 2.7 7.621 1.852 8.01 1.184.39-.668-.497-5.366-4.005-8.066-1.958-1.509-3.582-.528-4.688 1.374" fill="#FFF584" fill-rule="nonzero"/><path d="M122.282 329.37c-.013-1.464.068-2.855.296-4.124 2.697-14.986 10.135-16.287 13.484-28.793.958-3.577-15.215 0-15.215 0-5.292 7.24-9.741 20.696-11.227 32.784-28.488 1.327-28.35 14.324-22.103 18.403 7.017 4.584 13.389-3.133 21.743-6.393.66 7.5 3.345 12.791 8.935 12.791 5.805 0 5.913-5.758 5.201-12.643 10.04 3.522 20.323 11.614 23.833 5.706 4.002-6.74-.701-16.097-24.947-17.73" fill="#FFCA05" fill-rule="nonzero"/><path d="M117.484 347.907c-2.58 0-4.672.938-4.672 3.46 0 4.526 3.765 7.748 4.672 7.748.907 0 4.67-3.222 4.67-7.747 0-2.523-2.09-3.46-4.67-3.46m31.189-4.139c-2.092-1.417-3.81-.555-4.974 1.159-1.162 1.712-1.328 3.626.762 5.043 3.75 2.54 8.115 1.85 8.523 1.247.41-.602-.564-4.908-4.311-7.449M85 342.412c-3.509 2.702-4.395 7.399-4.006 8.067.39.668 4.502 1.517 8.01-1.184 1.959-1.507 1.789-3.609.683-5.508-1.107-1.902-2.73-2.883-4.687-1.375" fill="#FFF584" fill-rule="nonzero"/><g transform="translate(0 135.51)"><mask id="b" fill="#fff"><use xlink:href="#a"/></mask><path d="M123.065 63.285s-20.227-50.543-72.818-61.29C27.076-2.739 12.879 6.402 7.737 15.802c-5.144 9.404.537 23.805 13.18 23.805-25.62 5.493-29.33 35.464-2.022 41.526-22.25 22.225-.338 47.482 37.757 37.043 38.095-10.44 66.413-54.891 66.413-54.891" fill="#FFDEA3" fill-rule="nonzero" mask="url(#b)"/></g><g transform="translate(231.94 135.51)"><mask id="d" fill="#fff"><use xlink:href="#c"/></mask><path d="M.295 63.285s20.227-50.543 72.818-61.29c23.171-4.734 37.368 4.407 42.51 13.807 5.144 9.404-.537 23.805-13.18 23.805 25.62 5.493 29.33 35.464 2.022 41.526 22.25 22.225.337 47.482-37.757 37.043C28.613 107.736.295 63.285.295 63.285" fill="#FFDEA3" fill-rule="nonzero" mask="url(#d)"/></g><g transform="translate(140.242 -.538)"><mask id="f" fill="#fff"><use xlink:href="#e"/></mask><path d="M46.773 67.326C69.697 44.426 69.639-1.55 44.576.986 27.921 2.668 34.572 31.63 34.572 31.63 15.47 7.72-9.948 31.377 6.655 47.96c19.108 19.087 40.118 19.365 40.118 19.365" fill="#EC1D24" fill-rule="nonzero" mask="url(#f)"/></g><path d="M177.65 307.548c81.885 0 110.225-23.304 110.225-75.697 0-88.313-67.743-184.428-110.225-184.428-42.483 0-110.225 96.115-110.225 184.428 0 52.393 28.34 75.697 110.225 75.697" fill="#FFE5B8" fill-rule="nonzero"/><path d="M155.094 97.336c10.023 0 18.865 5.003 24.2 12.633 4.725-5.43 11.67-8.878 19.435-8.878 14.228 0 25.762 11.52 25.762 25.732 0 14.21-11.534 25.733-25.762 25.733-7.766 0-14.71-3.45-19.434-8.878-5.336 7.63-14.178 12.632-24.201 12.632-16.304 0-29.52-13.202-29.52-29.487 0-16.285 13.216-29.487 29.52-29.487" fill="#FEFEFE" fill-rule="nonzero"/><path d="M158.545 125.787c0 4.116 3.342 7.453 7.461 7.453 4.121 0 7.463-3.337 7.463-7.453 0-4.117-3.342-7.453-7.463-7.453-4.12 0-7.46 3.336-7.46 7.453M184.819 125.787c0 4.116 3.341 7.453 7.462 7.453 4.12 0 7.461-3.337 7.461-7.453 0-4.117-3.341-7.453-7.46-7.453-4.122 0-7.463 3.336-7.463 7.453" fill="#231F20" fill-rule="nonzero"/><path d="M155.057 165.348c-2.496 9.307 2.232 14.939 9.411 16.86 7.181 1.922 14.093-.595 16.59-9.9 2.495-9.308-.369-21.883-7.548-23.806-7.18-1.92-15.955 7.538-18.453 16.846" fill="#EC1D24" fill-rule="nonzero"/><path d="M206.831 166.491c2.71 10.103-2.422 16.217-10.216 18.3-7.794 2.087-15.297-.643-18.008-10.746-2.709-10.104.4-23.753 8.194-25.84 7.794-2.086 17.32 8.184 20.03 18.286" fill="#EC1D24" fill-rule="nonzero"/><path d="M165.549 151.814c0 13.608 11.32 23.303 14.05 23.303 2.726 0 14.048-9.695 14.048-23.303 0-7.586-6.29-10.407-14.048-10.407-7.76 0-14.05 2.82-14.05 10.407" fill="#FFCA05" fill-rule="nonzero"/><path d="M177.65 211.183c65.633 0 88.35 18.68 88.35 60.674 0 5.41-.321 10.854-.923 16.299-17.204 13.193-45.193 19.392-87.427 19.392-42.235 0-70.224-6.2-87.428-19.392a148.543 148.543 0 01-.922-16.299c0-41.995 22.715-60.674 88.35-60.674" fill="#FFECCD" fill-rule="nonzero"/></g></svg>