<?xml version="1.0" encoding="UTF-8"?>
<svg width="1363px" height="2500px" viewBox="0 0 1363 2500" version="1.1" xmlns="http://www.w3.org/2000/svg" xmlns:xlink="http://www.w3.org/1999/xlink">
    <!-- Generator: Sketch 60 (88103) - https://sketch.com -->
    <title>Milky</title>
    <desc>Created with Sketch.</desc>
    <g id="Milky" stroke="none" stroke-width="1" fill="none" fill-rule="evenodd">
        <g transform="translate(133.000000, 264.000000)" fill-rule="nonzero">
            <path d="M257.131354,369.345844 C263.265939,397.436628 266.682448,428.610404 266.682448,461.44515 C266.682448,584.916385 218.397331,685 158.838314,685 C99.279297,685 51,584.916385 51,461.44515 C51,316.666883 148.600426,369.345844 257.131354,369.345844 Z M752.862826,369.345844 C746.728241,397.436628 743.311732,428.610404 743.311732,461.44515 C743.311732,584.916385 791.596849,685 851.155866,685 C910.714883,685 959,584.916385 959,461.44515 C959,316.666883 861.399574,369.345844 752.862826,369.345844 L752.862826,369.345844 Z" id="Fill-242" fill="#F49A6A"></path>
            <path d="M1009.24084,1487.90088 C1009.24084,1243.29411 783.486168,1045 505.00031,1045 C226.514453,1045 0.753962814,1243.29411 0.753962814,1487.90088 C0.753962814,1506.92185 -0.433361941,1725.75603 0.171940876,1746.76756 C1.94710779,1808.1317 19.0818337,1868 126.045826,1868 L883.657964,1868 C990.930427,1868 1008.06515,1808.23646 1009.82868,1746.82576 C1010.43398,1725.82006 1009.24084,1506.96841 1009.24084,1487.90088" id="Fill-243" fill="#75A928"></path>
            <path d="M761,1104.87292 C686.172126,1066.19982 599.034048,1044 506.002912,1044 C412.965952,1044 325.827874,1066.19982 251,1104.87292 C285.700335,1212.8599 386.738345,1291 506.002912,1291 C625.261655,1291 726.299665,1212.8599 761,1104.87292" id="Fill-244" fill="#000000"></path>
            <path d="M722,590 C714.878232,754.56424 707.756464,919.12848 700.640524,1083.6869 C697.493425,1156.49453 611.676703,1235.22626 510.211906,1233.98552 C411.11909,1232.76808 313.221005,1152.63833 310.237089,1083.29661 C303.161945,918.866352 296.080972,754.430263 289,590 C433.341104,590 577.670552,590 722,590" id="Fill-245" fill="#F49A6A"></path>
            <path d="M505,985 C399.041409,984.970895 292.617603,937.779805 223.544767,846.197541 C105.257972,689.361531 122.936152,488.4545 122.936152,315.086765 C122.936152,97.5490546 312.970771,-1.18725533 505,2.07834247 C697.029229,-1.18725533 887.063848,97.5490546 887.063848,315.086765 C887.063848,488.4545 904.742028,689.361531 786.455233,846.197541 C717.382397,937.779805 610.958591,984.970895 505,985" id="Fill-246" fill="#FAB385"></path>
            <path d="M128.542915,583 C118.622111,492.291693 122.931206,399.658262 122.931206,313.768596 C122.931206,95.7571386 312.967513,-3.19419644 504.998448,0.0785130866 C697.029384,-3.19419644 887.065691,95.7571386 887.065691,313.768596 C887.065691,398.129831 891.229404,489.001482 881.977354,578.163857 C828.663211,547.484393 818.480722,370.950591 818.480722,289.792061 C818.480722,96.1713318 639.900442,247.876878 615.871861,256.854953 C580.457034,270.091633 543.297635,281.041501 504.998448,281.041501 C464.442948,281.041501 425.038865,267.454798 387.321203,252.69552 C339.380344,233.940152 202.065025,127.48667 202.065025,289.792061 C202.065025,373.575759 186.887242,560.318548 128.542915,583" id="Fill-247" fill="#000000"></path>
            <path d="M167.357526,1183.47966 C239.404231,1436.84415 268.348861,1597.77483 278.488811,1868 L364.004914,1868 C366.733779,1664.18087 310.197291,1289.55343 245.759921,1141.98899 C235.188484,1117.22505 208.593711,1129.86328 192.961045,1141.74438 C178.902725,1152.43155 160.885218,1159.93877 167.357526,1183.47966 Z M793.865318,1158.72736 C721.824443,1412.09185 729.136403,1597.77483 719.002284,1868 L636.576562,1868 C633.847696,1664.18087 657.591156,1264.80114 722.028525,1117.23669 C732.594131,1092.47275 747.900266,1105.11098 763.527101,1116.99208 C777.585421,1127.67343 800.343457,1135.18648 793.865318,1158.72736 L793.865318,1158.72736 Z" id="Fill-249" fill="#000000"></path>
            <path d="M700.070353,1079 C881.690188,1146.01847 1009.24604,1303.77305 1009.24604,1487.7201 C1009.24604,1506.75011 1010.43336,1725.68838 1009.82806,1746.7099 C1008.05289,1808.0974 990.918178,1868 883.954252,1868 L788.205881,1868 C775.063834,1799.78196 783.741776,1522.30953 769.56373,1361.59679 C764.226592,1301.05365 769.156315,1329.61613 783.84072,1284.88862 C786.651884,1191.65439 745.904553,1144.02114 698.958692,1093.24339 C699.424309,1089.97079 699.738601,1086.70401 699.878286,1083.44888 L700.070353,1079 Z M309.819063,1079.04076 C128.25743,1146.08253 0.753962351,1303.80799 0.753962351,1487.7201 C0.753962351,1506.75011 -0.433361675,1725.68838 0.17194077,1746.7099 C1.94710659,1808.0974 19.0818219,1868 126.039928,1868 L246.821047,1868 C253.816946,1767.37621 287.591658,1437.24515 323.630435,1351.43542 C335.521136,1323.11169 336.917987,1324.7014 316.174738,1304.19814 C304.522666,1292.67998 290.664732,1281.84895 296.461667,1263.59341 C303.428466,1241.66931 315.901188,1227.14641 309.254502,1214.83047 C265.276951,1133.34151 302.386647,1098.56574 310.401084,1088.19473 C310.069332,1085.12012 309.952928,1082.1212 309.819063,1079.04076 L309.819063,1079.04076 Z" id="Fill-250" fill="#BC1142"></path>
            <path d="M269.262225,1325.31451 C227.76148,1501.36782 202.754546,1682.60259 191,1868 L209.951207,1868 C216.984042,1767.39811 250.94292,1437.33891 287.171964,1351.54785 C290.711785,1343.15854 290.401685,1335.20587 291.788359,1330.71721 C294.315966,1322.50837 273.451501,1307.56946 269.262225,1325.31451" id="Fill-251" fill="#BC1142"></path>
            <path d="M1009.24084,1487.63311 C1009.24084,1382.98489 967.952201,1286.82875 898.94768,1211.00582 C874.246669,1285.65221 860.441109,1368.83144 860.441109,1456.5421 C860.441109,1468.87832 860.20248,1678.74556 860.022053,1868 L883.657964,1868 C990.930427,1868 1008.06515,1808.19436 1009.82868,1746.7404 C1010.43398,1725.71989 1009.24084,1506.71407 1009.24084,1487.63311 Z M111.04712,1211 C42.0425992,1286.82293 0.753962814,1382.98489 0.753962814,1487.63311 C0.753962814,1506.66747 -0.433361941,1725.65582 0.171940876,1746.68215 C1.94710779,1808.0837 19.0818337,1868 126.040005,1868 L149.978568,1868 C149.792321,1678.74556 149.559512,1468.87832 149.559512,1456.5421 C149.559512,1368.83144 135.753952,1285.65221 111.04712,1211 L111.04712,1211 Z" id="Fill-252" fill="#000000"></path>
            <path d="M293.861289,1277 C290.728215,1270.90831 283.988059,1261.89938 280.854984,1255.80769 C265.732987,1232.616 236.460131,1164.46738 254.911742,1109.67723 C262.651938,1086.70185 281.762535,1058.24862 309.035311,1049 C310.480456,1061.42308 311.925601,1073.84615 313.370746,1086.26923 C301.271993,1120.12431 287.618263,1138.66246 320.954867,1194.20677 C326.521566,1203.47292 319.301621,1215.83169 316.133864,1226.31385 C311.243493,1242.47262 299.318157,1260.83538 293.861289,1277" id="Fill-253" fill="#BC1142"></path>
        </g>
    </g>
</svg>