<?xml version="1.0" encoding="UTF-8"?>
<svg width="175px" height="338px" viewBox="0 0 175 338" version="1.1" xmlns="http://www.w3.org/2000/svg" xmlns:xlink="http://www.w3.org/1999/xlink">
    <!-- Generator: Sketch 59.1 (86144) - https://sketch.com -->
    <title>mumma</title>
    <desc>Created with Sketch.</desc>
    <g id="Page-1" stroke="none" stroke-width="1" fill="none" fill-rule="evenodd">
        <g id="mumma" transform="translate(0.000000, -1.000000)" fill-rule="nonzero">
            <path d="M32.0180004,70.0470003 C25.8510004,68.2130003 19.6840004,66.3800003 13.5180004,64.5470003 C4.86100045,97.2660003 -12.2829996,224.66 46.5180004,223.047 C57.3510004,218.547 66.1840004,221.547 77.0170004,217.047 C68.4180004,175.799 33.9370004,112.527 32.0180004,70.0470003" id="Fill-162" fill="#2A2A2A"></path>
            <path d="M141.112,70.0470003 C147.279,68.2130003 153.946,65.8800003 160.112,64.0460003 C168.399,108.241 167.151,140.951 154.026,182.963 C148.867,199.474 131.827,211.617 124.112,219.547 C113.279,215.047 98.9460004,226.047 88.1120004,221.547 C96.7120004,180.299 139.193,112.527 141.112,70.0470003" id="Fill-163" fill="#2A2A2A"></path>
            <path d="M119.099,123.318 C121.049,134.158 123.076,146.41 120.135,158.863 C117.598,169.602 115.903,188.565 115.741,200.184 C149.903,210.382 174.483,238.793 174.483,272.247 C174.483,275.523 174.687,313.124 174.584,316.733 C174.281,327.284 171.336,337.552 152.905,337.552 L22.7360004,337.552 C4.35800045,337.552 1.41400045,327.265 1.11000045,316.722 C1.00500045,313.113 1.20900045,275.515 1.20900045,272.247 C1.20900045,238.867 25.6810004,210.51 59.7250004,200.254 C59.5170004,188.64 58.4580004,169.297 55.5570004,158.863 C52.1160004,146.492 54.6420004,134.158 56.5920004,123.318 L119.099,123.318" id="Fill-164" fill="#F5A479"></path>
            <path d="M126.281,202.881 C124.365,202.881 122.812,204.434 122.812,206.35 C122.812,208.265 124.365,209.819 126.281,209.819 C128.197,209.819 129.75,208.265 129.75,206.35 C129.75,204.434 128.197,202.881 126.281,202.881 Z M68.9970004,245.984 C70.9130004,245.984 72.4670004,247.538 72.4670004,249.453 C72.4670004,251.369 70.9130004,252.922 68.9970004,252.922 C67.0820004,252.922 65.5290004,251.369 65.5290004,249.453 C65.5290004,247.538 67.0820004,245.984 68.9970004,245.984 Z M61.8790004,235.759 C63.7940004,235.759 65.3470004,237.312 65.3470004,239.228 C65.3470004,241.144 63.7940004,242.697 61.8790004,242.697 C59.9630004,242.697 58.4100004,241.144 58.4100004,239.228 C58.4100004,237.312 59.9630004,235.759 61.8790004,235.759 Z M55.8720004,224.247 C57.7870004,224.247 59.3410004,225.8 59.3410004,227.716 C59.3410004,229.632 57.7870004,231.185 55.8720004,231.185 C53.9560004,231.185 52.4030004,229.632 52.4030004,227.716 C52.4030004,225.8 53.9560004,224.247 55.8720004,224.247 Z M51.5430004,213.407 C53.4590004,213.407 55.0120004,214.96 55.0120004,216.876 C55.0120004,218.792 53.4590004,220.345 51.5430004,220.345 C49.6270004,220.345 48.0740004,218.792 48.0740004,216.876 C48.0740004,214.96 49.6270004,213.407 51.5430004,213.407 Z M48.9120004,202.881 C50.8270004,202.881 52.3810004,204.434 52.3810004,206.35 C52.3810004,208.265 50.8270004,209.819 48.9120004,209.819 C46.9960004,209.819 45.4430004,208.265 45.4430004,206.35 C45.4430004,204.434 46.9960004,202.881 48.9120004,202.881 Z M106.196,245.984 C104.28,245.984 102.727,247.538 102.727,249.453 C102.727,251.369 104.28,252.922 106.196,252.922 C108.112,252.922 109.665,251.369 109.665,249.453 C109.665,247.538 108.112,245.984 106.196,245.984 Z M113.315,235.759 C111.399,235.759 109.846,237.312 109.846,239.228 C109.846,241.144 111.399,242.697 113.315,242.697 C115.231,242.697 116.783,241.144 116.783,239.228 C116.783,237.312 115.231,235.759 113.315,235.759 Z M119.321,224.247 C117.406,224.247 115.852,225.8 115.852,227.716 C115.852,229.632 117.406,231.185 119.321,231.185 C121.237,231.185 122.79,229.632 122.79,227.716 C122.79,225.8 121.237,224.247 119.321,224.247 Z M123.65,213.407 C121.734,213.407 120.181,214.96 120.181,216.876 C120.181,218.792 121.734,220.345 123.65,220.345 C125.566,220.345 127.119,218.792 127.119,216.876 C127.119,214.96 125.566,213.407 123.65,213.407 L123.65,213.407 Z" id="Fill-165" fill="#5F5F5F"></path>
            <path d="M153.56,222.657 C166.693,235.996 172.994,254.161 174.485,273.122 C174.75,276.493 174.437,313.999 174.333,317.609 C174.031,328.159 171.086,338.427 152.655,338.427 L22.4860004,338.427 C4.10800045,338.427 1.16400045,328.14 0.860000447,317.598 C0.755000447,313.988 0.959000447,276.39 0.959000447,273.122 C0.959000447,254.875 8.27200045,238.129 20.4640004,225.021 C28.9290004,252.765 55.0120004,273.003 86.5710004,273.003 C118.129,273.003 145.652,251.243 153.56,222.657" id="Fill-166" fill="#2A2A2A"></path>
            <path d="M36.9190004,252.454 C49.4600004,265.122 67.0690004,273.003 86.5710004,273.003 C107.431,273.003 126.123,263.985 138.765,249.738 C135.014,273.61 111.035,308.296 87.5960004,313.921 C66.4970004,309.296 41.7810004,276.35 36.9190004,252.454" id="Fill-167" fill="#3F3F3F"></path>
            <path d="M32.1050004,138.864 C22.6420004,136.557 13.7530004,122.691 11.5170004,105.928 C9.98300045,94.4330003 14.4310004,91.3010003 21.8010004,90.8810003 C22.7840004,108.41 26.4300004,124.739 32.1050004,138.864 Z M143.087,138.864 C152.55,136.557 161.439,122.691 163.675,105.928 C165.209,94.4330003 160.761,91.3010003 153.391,90.8810003 C152.408,108.41 148.762,124.739 143.087,138.864 L143.087,138.864 Z" id="Fill-168" fill="#F49A6A"></path>
            <path d="M174.485,273.122 C174.485,267.277 173.862,261.517 172.487,255.936 C169.636,244.362 163.606,233.61 155.607,224.827 C151.362,237.644 148.667,252.725 148.667,267.784 C148.667,269.902 148.626,305.934 148.594,338.427 L152.655,338.427 C171.086,338.427 174.031,328.159 174.333,317.609 C174.437,313.999 174.485,276.398 174.485,273.122 Z M19.9100004,225.627 C8.05300045,238.645 0.959000447,255.155 0.959000447,273.122 C0.959000447,276.39 0.755000447,313.988 0.860000447,317.598 C1.16400045,328.14 4.10800045,338.427 22.4860004,338.427 L26.5980004,338.427 C26.5670004,305.934 26.5260004,269.902 26.5260004,267.784 C26.5260004,252.725 24.1540004,238.444 19.9100004,225.627 L19.9100004,225.627 Z" id="Fill-169" fill="#4D4D4D"></path>
            <path d="M141.203,43.2530003 C142.884,52.6040003 156.535,65.8460003 156.535,76.0420003 C156.535,135.766 125.67,184.182 87.5960004,184.182 C58.6940004,184.182 33.9460004,156.282 23.7000004,116.716 C20.4480004,104.16 18.6570004,90.4290003 18.6570004,76.0420003 C18.6570004,60.1600003 24.9650004,45.0780003 28.8850004,31.4930003 C48.9660004,31.9960003 137.372,21.9410003 141.203,43.2530003" id="Fill-170" fill="#FBBB91"></path>
            <path d="M16.5810004,90.0670003 C16.6400004,89.9570003 20.8520004,89.7570003 23.6300004,86.3010003 C29.8160004,78.6050003 24.0290004,74.8840003 34.9560004,61.7250003 C46.1610004,48.2320003 73.4390004,49.5430003 87.0030004,37.8180003 C95.1210004,47.1920003 108.255,45.1850003 119.449,48.5370003 C131.826,52.2430003 141.531,64.5020003 144.615,68.5640003 C151.629,77.7970003 148.188,83.5440003 155.959,91.4170003 C160.591,78.7230003 161.653,78.1100003 160.27,64.4820003 C156.497,27.2960003 130.801,-6.29199968 85.7110004,2.35400032 C47.6560004,-4.76599968 29.5670004,18.3350003 18.4080004,50.9040003 C17.0480004,54.8750003 14.2440004,60.7900003 13.5230004,64.9640003 C10.8470004,80.4500003 14.4720004,70.5320003 16.5810004,90.0670003" id="Fill-171" fill="#2A2A2A"></path>
            <path d="M113.107,43.5510003 C109.976,24.1990003 102.988,8.36000032 87.8560004,7.67600032 C87.6650004,15.1930003 87.9110004,25.5860003 88.8790004,33.1030003 C89.8070004,40.3050003 106.76,41.6810003 113.107,43.5510003" id="Fill-172" fill="#3B3B3B"></path>
            <path d="M55.6690004,45.3020003 C58.0590004,45.5580003 67.4920004,44.1220003 74.4810004,41.1410003 C80.3570004,38.6350003 85.0150004,35.9020003 85.0500004,33.5730003 C85.1430004,27.2100003 86.1810004,17.1490003 85.2250004,10.9370003 C84.1810004,4.15600032 82.1770004,2.90300032 81.2880004,11.6740003 C80.3420004,21.0210003 76.5240004,30.1600003 65.0770004,37.1000003 C59.2620004,40.6250003 53.5880004,44.5800003 55.6690004,45.3020003" id="Fill-173" fill="#1F1F1F"></path>
            <path d="M28.8560004,213.426 C31.6930004,208.909 44.7030004,204.928 42.5810004,195.085 C37.4250004,171.168 11.5130004,134.194 8.23100045,120.426 C6.40100045,129.977 6.81600045,154.857 9.69300045,173.846 C11.3620004,184.866 14.1940004,191.913 17.0330004,198.012 C20.5940004,205.66 25.3880004,212.404 28.8560004,213.426" id="Fill-174" fill="#3B3B3B"></path>
            <path d="M30.8470004,67.3900003 C23.9870004,79.2420003 25.6600004,111.583 26.4730004,125.83 C20.6550004,117.541 17.1620004,78.8230003 19.4730004,68.4570003 C24.2040004,77.7680003 26.1160004,58.0790003 30.8470004,67.3900003" id="Fill-175" fill="#2A2A2A"></path>
            <path d="M87.5440004,242.74 C92.7600004,242.74 97.2890004,245.979 99.2520004,250.679 C100.799,254.384 100.754,260.24 98.1960004,262.895 C97.1110004,264.022 93.1830004,263.298 92.5150004,264.283 C92.0000004,265.041 92.6700004,269.037 92.0090004,269.641 C89.3680004,272.058 85.3730004,272.03 82.7160004,269.373 C81.9000004,268.557 82.9950004,265.369 82.4440004,264.343 C82.0420004,263.597 77.9420004,264.283 77.0140004,263.167 C74.5950004,260.258 74.4090004,254.615 75.6710004,251.109 C77.4600004,246.138 82.1630004,242.74 87.5440004,242.74 Z M80.2060004,254.14 C82.4690004,253.372 84.8560004,254.38 85.5390004,256.391 C86.2210004,258.401 84.9410004,260.654 82.6790004,261.422 C80.4170004,262.19 78.0290004,261.183 77.3460004,259.172 C76.6640004,257.161 77.9450004,254.908 80.2060004,254.14 Z M94.9870004,254.14 C92.7240004,253.372 90.3370004,254.38 89.6540004,256.391 C88.9710004,258.401 90.2520004,260.654 92.5140004,261.422 C94.7760004,262.19 97.1640004,261.183 97.8460004,259.172 C98.5290004,257.161 97.2480004,254.908 94.9870004,254.14 L94.9870004,254.14 Z" id="Fill-176" fill="#333333"></path>
            <path d="M60.4770004,95.4130003 C72.8270004,95.4130003 81.3960004,102.565 82.9080004,108.001 C76.0300004,106.477 65.4550004,101.852 57.1040004,103.281 C52.9710004,103.989 46.9930004,106.475 51.4610004,110.697 C51.8700004,111.083 52.3260004,111.429 52.8190004,111.74 C43.3200004,113.638 34.8520004,109.075 34.8520004,99.6330003 C37.8800004,101.305 42.7650004,98.1260003 47.0260004,97.1530003 C51.1870004,96.2020003 53.8600004,95.4130003 60.4770004,95.4130003 Z M114.714,95.4130003 C102.364,95.4130003 93.7960004,102.565 92.2830004,108.001 C99.1610004,106.477 109.737,101.852 118.088,103.281 C122.221,103.989 128.198,106.475 123.731,110.697 C123.208,111.191 122.608,111.62 121.952,111.99 C131.658,114.228 140.339,108.708 140.339,99.6330003 C137.312,101.305 132.427,98.1260003 128.166,97.1530003 C124.005,96.2020003 121.332,95.4130003 114.714,95.4130003 L114.714,95.4130003 Z" id="Fill-177" fill="#4D4D4D"></path>
        </g>
    </g>
</svg>