<?xml version="1.0" encoding="UTF-8"?>
<svg width="22px" height="26px" viewBox="0 0 22 26" version="1.1" xmlns="http://www.w3.org/2000/svg" xmlns:xlink="http://www.w3.org/1999/xlink">
    <!-- Generator: Sketch 60 (88103) - https://sketch.com -->
    <title>Raspberry pi</title>
    <desc>Created with Sketch.</desc>
    <g id="Page-1" stroke="none" stroke-width="1" fill="none" fill-rule="evenodd">
        <g id="Raspberry-pi" transform="translate(0.000000, -1.000000)" fill="#FFFFFF" fill-rule="nonzero">
            <path d="M19.398,12.8 L19.199,12.5 C19.199,10.102 18.102,9.2 16.899,8.5 C17.301,8.398 17.699,8.3 17.801,7.8 C18.5,7.602 18.601,7.3 18.699,7 C18.899,6.898 19.399,6.602 19.399,6 C19.699,5.8 19.899,5.5 19.801,5.102 C20.101,4.699 20.199,4.398 20.101,4.102 C20.5,3.602 20.301,3.301 20.199,3 C20.5,2.398 20.199,1.8 19.399,1.898 C19.102,1.398 18.301,1.5 18.199,1.5 C18.102,1.3 17.899,1.2 17.399,1.3 C16.899,1 16.5,1 16.102,1.2 C15.602,0.8 15.301,1.102 15,1.2 C14.398,1 14.3,1.3 14,1.398 C13.398,1.301 13.2,1.602 12.898,1.898 L12.602,1.898 C11.699,2.398 11.199,3.602 11,4.102 C10.8,3.5 10.398,2.398 9.398,1.898 L9.102,1.898 C8.801,1.602 8.602,1.301 8,1.398 C7.7,1.301 7.602,1 7,1.199 C6.8,1.102 6.602,1 6.3,1 C6.2,1 6.102,1.102 5.898,1.2 C5.5,1 5.102,1 4.801,1.3 C4.301,1.2 4.101,1.398 4,1.5 C3.898,1.5 3.102,1.398 2.8,1.898 C1.898,1.801 1.602,2.398 1.898,3 C1.699,3.3 1.602,3.5 2,4.102 C1.8,4.301 1.898,4.699 2.3,5 C2.2,5.398 2.3,5.7 2.7,6 C2.602,6.5 3.2,6.8 3.3,7 C3.398,7.3 3.5,7.602 4.2,7.8 C4.3,8.3 4.7,8.398 5.102,8.5 C3.801,9.2 2.801,10.2 2.801,12.5 L2.601,12.8 C1.199,13.7 -0.102,16.5 1.898,18.8 C2,19.5 2.199,20 2.398,20.602 C2.699,22.898 4.602,24 5.102,24.102 C5.801,24.699 6.602,25.199 7.699,25.602 C8.699,26.602 9.801,27 10.899,27 C12,27 13.102,26.602 14.102,25.602 C15.199,25.199 16,24.699 16.699,24.102 C17.199,24 19.102,22.898 19.399,20.602 C19.601,20 19.8,19.5 20,18.8 C22.2,16.499 20.898,13.698 19.398,12.8 Z M18.102,12.398 C18,13.398 13.199,9.102 14,9 C16.3,8.602 18.2,9.898 18.102,12.398 L18.102,12.398 Z M12.8,2.5 C12.8,2.7 12.897,2.8 12.897,2.898 C13.198,2.602 13.397,2.301 13.698,2 C13.698,2.2 13.601,2.3 13.8,2.5 C13.999,2.2 14.198,2 14.6,1.8 C14.397,2.102 14.6,2.2 14.698,2.3 C14.999,2.102 15.198,1.898 15.698,1.7 C15.601,1.898 15.398,2 15.601,2.2 C15.897,2 16.101,1.898 16.8,1.7 C16.698,1.898 16.397,2 16.499,2.2 C16.799,2.102 17.199,2 17.601,1.898 C17.397,2.102 17.198,2.199 17.397,2.301 C17.8,2.199 18.198,2 18.698,2.199 L18.398,2.5 L19.601,2.5 C19.397,2.8 19.198,3 19.101,3.398 L19.601,3.398 C19.397,4 18.999,4.102 18.897,4.301 C18.999,4.398 19.198,4.398 19.499,4.301 C19.299,4.699 18.999,4.898 18.699,5.199 C18.799,5.301 18.897,5.301 19.199,5.199 C18.897,5.5 18.601,5.699 18.299,6 C18.397,6.102 18.601,6.102 18.799,6.102 C18.499,6.398 17.999,6.602 17.601,6.801 C17.698,7 17.897,6.898 17.999,6.898 C17.699,7.102 17.199,7.301 16.799,7.398 C16.897,7.5 16.999,7.602 17.199,7.602 C16.699,7.898 15.999,7.699 15.799,7.898 C15.799,8 15.999,8.102 16.101,8.199 C15.3,8.199 13.198,8.199 12.8,6.602 C13.6,5.699 14.999,4.699 17.499,3.398 C15.601,4.102 13.799,4.898 12.397,6.102 C10.8,5.301 11.897,3.301 12.8,2.5 L12.8,2.5 Z M11,8.3 C12.2,8.3 13.7,9.2 13.7,10.102 C13.7,10.898 12.602,11.5 11,11.5 C9.398,11.5 8.3,10.7 8.3,10 C8.3,9.3 9.602,8.3 11,8.3 Z M4.898,7.7 C5.102,7.7 5.199,7.602 5.301,7.5 C4.801,7.3 4.301,7.2 4,6.898 C4.2,6.898 4.3,6.898 4.5,6.801 C4.102,6.601 3.7,6.398 3.3,6.101 C3.5,6.101 3.7,6.101 3.8,6 C3.5,5.8 3.2,5.5 2.898,5.3 L3.398,5.3 C3.102,4.898 2.801,4.7 2.602,4.3 C2.801,4.398 3,4.398 3.199,4.3 C3.102,4.102 2.602,4 2.399,3.5 L2.899,3.5 C2.801,3.102 2.602,2.8 2.5,2.602 L3.7,2.602 L3.398,2.199 C3.898,2.102 4.398,2.199 4.699,2.301 C4.899,2.199 4.699,2 4.5,1.898 C4.898,2 5.3,2.102 5.602,2.199 C5.801,2 5.5,1.899 5.301,1.699 C6,1.801 6.199,2 6.5,2.199 C6.7,2 6.5,1.899 6.398,1.699 C6.898,1.899 7.102,2.102 7.398,2.301 C7.5,2.199 7.602,2.101 7.5,1.801 C7.7,2 8,2.199 8.2,2.5 C8.398,2.398 8.3,2.2 8.3,2 C8.602,2.3 8.898,2.602 9.102,2.898 C9.199,2.898 9.199,2.699 9.199,2.5 C10,3.3 11.199,5.3 9.5,6.102 C8.102,4.898 6.3,4 4.398,3.398 C6.898,4.699 8.301,5.699 9.102,6.602 C8.699,8.199 6.602,8.301 5.801,8.199 C6,8.102 6.101,8 6.101,7.899 C6,7.801 5.398,7.899 4.898,7.699 L4.898,7.7 Z M7.699,8.898 C8.5,9 3.699,13.301 3.602,12.301 C3.5,9.898 5.398,8.5 7.699,8.898 L7.699,8.898 Z M2.602,18.398 C1.398,17.398 1,14.699 3.199,13.398 C4.5,13 3.699,18.801 2.602,18.398 L2.602,18.398 Z M7.199,23.398 C6.5,23.801 4.899,23.602 3.801,22 C3,20.602 3.101,19.2 3.699,18.8 C4.5,18.3 5.801,19 6.699,20.102 C7.5,21 7.899,22.801 7.199,23.398 Z M5.899,17.301 C4.699,16.5 4.5,14.699 5.399,13.199 C6.399,11.801 8.102,11.199 9.301,12 C10.5,12.8 10.699,14.602 9.801,16.102 C8.898,17.602 7.101,18.102 5.898,17.301 L5.899,17.301 Z M11,26.199 C9.5,26.301 8.102,25 8.102,24.602 C8.102,24 9.898,23.5 11.102,23.5 C12.301,23.398 13.898,23.898 13.898,24.5 C13.898,24.898 12.398,26.2 11,26.2 L11,26.199 Z M14,19.801 C14,21.301 12.7,22.5 11.102,22.5 C9.5,22.5 8.102,21.3 8.102,19.8 C8.102,18.3 9.398,17.102 11,17.102 C12.7,17.102 14,18.301 14,19.801 Z M12.2,16 C11.2,14.602 11.5,12.7 12.7,11.898 C13.898,11.102 15.7,11.602 16.602,13.102 C17.5,14.602 17.301,16.398 16.102,17.199 C14.898,17.899 13.102,17.399 12.199,16 L12.2,16 Z M18.2,22 C16.898,23.8 15.2,23.8 14.602,23.3 C13.898,22.7 14.398,20.7 15.398,19.602 C16.398,18.398 17.602,17.602 18.301,18.199 C18.801,18.899 19.101,20.801 18.199,22 L18.2,22 Z M19.102,18.3 C18,18.8 17.102,13 18.5,13.3 C20.7,14.5 20.3,17.3 19.102,18.3 Z" id="surface1"></path>
        </g>
    </g>
</svg>