<?xml version="1.0" encoding="UTF-8"?>
<svg width="512px" height="512px" viewBox="0 0 512 512" version="1.1" xmlns="http://www.w3.org/2000/svg" xmlns:xlink="http://www.w3.org/1999/xlink">
    <!-- Generator: Sketch 59.1 (86144) - https://sketch.com -->
    <title>Icon</title>
    <desc>Created with Sketch.</desc>
    <defs>
        <linearGradient x1="50%" y1="0%" x2="50%" y2="100%" id="linearGradient-1">
            <stop stop-color="#22939C" offset="0%"></stop>
            <stop stop-color="#126970" offset="100%"></stop>
        </linearGradient>
        <path d="M146.141456,-5.90428975e-15 L365.858544,5.90428975e-15 C416.675112,-3.43056238e-15 435.102427,5.29105984 453.680205,15.2265641 C472.257983,25.1620684 486.837932,39.7420171 496.773436,58.3197949 C506.70894,76.8975727 512,95.3248882 512,146.141456 L512,365.858544 C512,416.675112 506.70894,435.102427 496.773436,453.680205 C486.837932,472.257983 472.257983,486.837932 453.680205,496.773436 C435.102427,506.70894 416.675112,512 365.858544,512 L146.141456,512 C95.3248882,512 76.8975727,506.70894 58.3197949,496.773436 C39.7420171,486.837932 25.1620684,472.257983 15.2265641,453.680205 C5.29105984,435.102427 2.28704159e-15,416.675112 -3.93619317e-15,365.858544 L3.93619317e-15,146.141456 C-2.28704159e-15,95.3248882 5.29105984,76.8975727 15.2265641,58.3197949 C25.1620684,39.7420171 39.7420171,25.1620684 58.3197949,15.2265641 C76.8975727,5.29105984 95.3248882,3.43056238e-15 146.141456,-5.90428975e-15 Z" id="path-2"></path>
    </defs>
    <g id="Icon" stroke="none" stroke-width="1" fill="none" fill-rule="evenodd">
        <g id="Path">
            <use fill="#854D4D" xlink:href="#path-2"></use>
            <use fill="url(#linearGradient-1)" xlink:href="#path-2"></use>
        </g>
        <path d="M253.834582,111 C253.143709,111.453821 252.656034,111.697665 251.850016,112.225993 C200.407097,145.070416 140.389228,209.153955 134.239107,289.039935 C131.313058,327.038947 155.608746,353.346998 187.023132,353.92274 C207.078759,354.288506 223.205894,347.162845 231.943401,333.554999 C239.204337,322.229803 241.060211,304.781415 242.238759,312.848585 C246.472047,343.606788 233.589304,373.172864 226.619618,399 C234.388549,396.175474 244.155591,394.753052 253.936181,394.719184 L254.098739,394.719184 C263.872555,394.753052 273.612505,396.175474 281.381436,399 C274.41175,373.172864 261.5561,343.606788 265.782615,312.848585 C266.954389,304.781415 268.803489,322.229803 276.057652,333.554999 C284.788386,347.162845 300.915521,354.288506 320.971148,353.92274 C352.385534,353.346998 376.681222,327.038947 373.761947,289.039935 C367.598279,209.153955 307.587184,145.070416 256.184904,112.225993 C255.622723,111.80604 255.135048,111.555422 254.32903,111 L253.834582,111 Z" id="Fill-157" fill="#FFFFFF"></path>
    </g>
</svg>