<?xml version="1.0" encoding="UTF-8"?>
<svg width="192px" height="281px" viewBox="0 0 192 281" version="1.1" xmlns="http://www.w3.org/2000/svg" xmlns:xlink="http://www.w3.org/1999/xlink">
    <!-- Generator: Sketch 59.1 (86144) - https://sketch.com -->
    <title>Steve</title>
    <desc>Created with Sketch.</desc>
    <g id="Page-1" stroke="none" stroke-width="1" fill="none" fill-rule="evenodd">
        <g id="Steve" fill-rule="nonzero">
            <g id="hipster">
                <path d="M44.1257933,101.959781 C45.4087589,107.825763 46.1239543,114.335543 46.1239543,121.192171 C46.1239543,146.975718 36.0174025,167.875411 23.548391,167.875411 C11.0818163,167.875411 0.974046269,146.975718 0.974046269,121.192171 C0.974046269,90.959238 21.4052416,101.959781 44.1257933,101.959781 Z M97.6740692,230.417493 C122.403747,230.417493 142.449931,241.724721 142.449931,255.671642 C142.449931,269.617346 122.403747,280.923358 97.6740692,280.923358 C72.9456094,280.923358 52.8982071,269.617346 52.8982071,255.671642 C52.8982071,241.724721 72.9456094,230.417493 97.6740692,230.417493 Z M147.898575,101.959781 C146.615609,107.825763 145.900414,114.335543 145.900414,121.192171 C145.900414,146.975718 156.006966,167.875411 168.475977,167.875411 C180.942552,167.875411 191.050322,146.975718 191.050322,121.192171 C191.050322,90.959238 170.619126,101.959781 147.898575,101.959781 L147.898575,101.959781 Z" id="Fill-259" fill="#F49A6A"></path>
                <path d="M172.570989,43.1806896 C177.34708,59.7137542 180.006828,78.0686808 180.006828,97.3972146 C180.006828,111.718974 178.598368,125.506466 175.965425,138.412845 C171.188115,161.835396 165.82354,187.09563 154.081908,202.659956 C125.257218,240.861862 66.8037014,238.981584 38.4285979,201.439296 C26.9355175,186.232771 21.2614715,162.835777 16.4049658,140.064326 C13.5514945,126.684531 17.3480002,112.635382 17.3480002,97.7014668 C17.3480002,78.372933 14.678506,59.7137542 19.4545979,43.1806896 L172.570989,43.1806896" id="Fill-260" fill="#FAB385"></path>
                <path d="M93.3049198,120.542288 C92.4203681,119.876584 91.3433106,117.083549 90.2638163,116.634473 C88.5166439,115.909135 84.984529,116.100206 82.9193566,116.100206 C65.6182071,116.100206 48.3158393,116.100206 31.0146899,116.100206 C26.5261382,116.100206 24.0186899,117.457171 24.8082071,122.602683 C26.3823681,132.868152 27.9577474,143.133622 29.5319083,153.399091 C30.1910577,157.696349 32.1989658,158.659003 35.6689428,158.92066 C49.7352646,159.984326 63.8015865,159.878446 77.8679083,160.942111 C80.55446,161.145352 83.0862761,158.72107 84.4386899,155.01893 C86.9912186,148.032082 89.5437474,142.213563 92.0950577,135.226716 C93.6935865,130.852786 93.536414,129.371686 96.1717933,129.072302 C98.8035175,128.772918 98.6500002,130.852786 100.247311,135.226716 C102.799839,142.213563 105.352368,148.032082 107.904897,155.01893 C109.257311,158.72107 111.789127,161.145352 114.475678,160.942111 C128.542,159.878446 142.608322,159.984326 156.674644,158.92066 C160.144621,158.659003 162.152529,157.696349 162.811678,153.399091 C164.385839,143.133622 165.961218,132.868152 167.535379,122.602683 C168.324897,117.457171 165.817448,116.100206 161.328897,116.100206 C145.32046,116.100206 129.312023,116.106291 113.303586,116.100206 C112.733379,116.100206 109.359655,115.96025 106.392874,115.940778 C103.686828,115.922522 103.155609,116.449487 102.604897,116.967933 C101.681357,117.83566 100.798023,120.408417 98.8400692,121.114282 C97.7617933,121.503725 94.2126209,121.22503 93.3049198,120.542288" id="Fill-261" fill="#6E4229"></path>
                <path d="M55.9210347,118.626716 C65.18446,118.626716 76.3047129,118.242141 82.4222531,118.546393 C86.4673106,118.748417 86.8693796,119.209663 88.3180462,120.435191 C88.9991267,121.010836 88.9357704,122.596598 88.9698853,123.418079 C89.190414,128.71085 64.1902531,134.979663 46.0216094,134.979663 C27.8541842,134.979663 27.5934485,128.254472 27.5934485,122.961701 C27.5934485,120.784473 27.0366439,119.436027 30.3299543,118.872552 C35.0426899,118.066892 45.2515865,118.626716 55.9210347,118.626716 Z M118.648667,118.533006 C123.528322,118.533006 145.227862,118.333417 148.448069,118.490411 C150.576598,118.595074 150.793471,118.842127 151.553747,119.485924 C151.910736,119.786525 151.880276,120.628696 151.897916,121.057083 C152.009425,123.844032 119.806138,127.83217 110.235678,127.83217 C106.087058,127.83217 104.921058,127.41717 104.241196,126.291437 C103.572299,125.179091 102.596368,119.102566 105.168391,118.663226 C107.651472,118.23849 113.02823,118.533006 118.648667,118.533006 L118.648667,118.533006 Z" id="Fill-264" fill="#835B3E"></path>
                <path d="M9.79763243,67.4746193 C14.1619083,74.2326691 22.6114485,83.9748245 33.0177244,89.3162761 C63.6553796,105.042464 134.173402,77.1863495 161.387379,59.3036222 C162.777563,62.3400591 162.951793,85.5812761 177.265448,119.506613 C176.848759,123.511789 176.806115,133.36956 174.06108,145.359531 C169.342253,165.96349 156.322529,203.810029 139.518483,216.744399 C134.237977,220.809208 107.858598,223.597375 105.008782,213.600865 C103.642966,208.813152 90.3454485,208.813152 88.9796324,213.600865 C86.1298163,223.597375 59.750437,220.809208 54.4699313,216.744399 C37.6658853,203.810029 24.6449428,165.96349 19.9273336,145.359531 C16.6047819,130.847918 17.2420002,119.457933 16.3805979,117.789414 C14.5298623,114.201672 14.9026899,133.087214 17.1822991,148.331466 C20.474391,170.343504 28.6400462,201.789795 39.4520462,226.534018 C43.6286899,236.092405 49.49646,244.134399 53.7047819,251.015367 C56.0270347,254.811217 66.4832646,257.318255 79.3969887,258.424516 C85.1806899,258.918622 91.2543681,259.162042 97.09046,259.162042 C117.041609,259.153504 136.967172,256.437141 140.283632,251.015367 C144.490736,244.134399 150.359724,236.092405 154.536368,226.534018 C165.348368,201.789795 173.514023,170.343504 176.806115,148.331466 C178.921241,134.189824 180.76223,115.052361 181.573678,100.818226 C183.110069,73.8870386 180.874322,53.0116867 174.430253,40.6310562 C169.94292,4.67331428 93.2196324,-18.3086799 44.3511956,21.1710855 C39.2108048,25.3247366 38.1910117,25.5584022 31.0536784,25.0764668 C22.0582991,24.4691794 16.1308278,20.6903671 11.7592416,21.6992673 C8.87165542,22.3649712 6.76505771,24.4083289 5.33101174,27.8269066 C-0.356436489,41.3904697 2.12542558,55.5905283 9.79763243,67.4746193" id="Fill-265" fill="#412319"></path>
                <path d="M9.29565542,52.0259096 C12.2575635,66.0847952 27.3180922,80.7266281 43.3180002,84.5699418 C64.7141612,89.708153 80.5678623,84.5090914 101.345081,77.267889 C110.423311,74.1036662 133.234023,61.1157483 148.800184,49.9496926 C160.706299,41.4087248 169.080299,42.9105137 158.089195,32.6000151 C152.357885,27.2244873 136.735678,25.1458363 115.902414,27.600543 C96.3642991,29.9019066 75.4530577,42.12676 56.2975175,46.823197 C45.8875865,49.3752644 32.2647589,43.3389008 23.8395865,42.5661002 C9.5234945,41.2541647 6.25577036,37.6080064 9.29565542,52.0259096" id="Fill-266" fill="#522D21"></path>
                <path d="M80.4886669,253.700088 C68.8128278,242.747009 58.0495635,233.619443 46.3737244,222.666364 C48.6192186,233.202009 53.0821842,247.275499 64.3303681,250.551686 C70.0202531,252.208035 74.7975635,252.042522 80.4886669,253.700088" id="Fill-267" fill="#522D21"></path>
            </g>
        </g>
    </g>
</svg>