<svg xmlns="http://www.w3.org/2000/svg" xmlns:xlink="http://www.w3.org/1999/xlink" xmlns:serif="http://www.serif.com/" width="100%" height="100%" viewBox="0 0 108 108" version="1.1" xml:space="preserve" style="fill-rule:evenodd;clip-rule:evenodd;stroke-linejoin:round;stroke-miterlimit:1.41421;"><g style="transform-origin:center;transform:scale(calc(19/10))">
    <g transform="matrix(0.0804127,0,0,0.0804127,13.7942,24.6168)">
        <g id="Content">
            <g id="Flat">
                <g id="Silhouette">
                    <g id="Icon">
                        <path id="Icon1" serif:id="Icon" d="M474.816,155.14C489.118,155.14 500.721,143.546 500.721,129.235C500.721,114.925 489.121,103.33 474.821,103.33C460.511,103.33 448.921,114.924 448.921,129.235C448.921,143.545 460.521,155.141 474.831,155.141M543.701,105.341C560.221,105.341 573.621,91.951 573.621,75.431C573.621,58.911 560.231,45.531 543.711,45.531C527.191,45.531 513.801,58.921 513.801,75.441C513.801,91.961 527.201,105.351 543.711,105.351M582.561,579.431L417.261,579.431C398.771,579.431 387.891,558.681 398.401,543.471L482.951,421.111C492.181,407.751 512.011,407.951 520.951,421.511L601.701,543.881C611.771,559.131 600.831,579.451 582.571,579.451M683.151,547.991L565.651,353.921L565.651,245.521L568.511,245.521C585.511,245.521 599.291,231.731 599.291,214.731C599.291,197.731 585.501,183.951 568.501,183.951L431.52,183.951C414.52,183.951 400.736,197.741 400.736,214.741C400.736,231.741 414.52,245.541 431.52,245.541L434.37,245.541L434.37,353.9L316.874,547.96C296.284,589.304 326.36,637.87 372.546,637.87L627.436,637.87C673.626,637.87 703.696,589.304 683.116,547.96" style="fill:white;fill-rule:nonzero;"/>
                    </g>
                </g>
            </g>
        </g>
    </g>
</g><style>*{stroke:none!important;fill:#D5415C!important}</style></svg>
