<svg xmlns="http://www.w3.org/2000/svg" xmlns:xlink="http://www.w3.org/1999/xlink" width="22px" height="39px" viewBox="0 0 22 39" version="1.1"><g style="transform-origin:center;transform:scale(calc(19/10))">
    <!-- Generator: Sketch 60.1 (88133) - https://sketch.com -->
    <title>Punk</title>
    <desc>Created with Sketch.</desc>
    <g id="Page-1" stroke="none" stroke-width="1" fill="none" fill-rule="evenodd">
        <g id="Punk" fill="#FFFFFF" fill-rule="nonzero">
            <g id="PiNodeServerIcon">
                <path d="M5.61427429,7.72248593 C5.74690286,8.30797196 5.82057143,8.95797196 5.82057143,9.64235514 C5.82057143,12.2164766 4.77777143,14.3030374 3.49133714,14.3030374 C2.20490286,14.3030374 1.16197714,12.2164766 1.16197714,9.64235514 C1.16197714,6.62428967 3.27008,7.72248593 5.61427429,7.72248593 Z M16.3217371,7.72248593 C16.18936,8.30797196 16.1155657,8.95797196 16.1155657,9.64235514 C16.1155657,12.2164766 17.1583657,14.3030374 18.4449257,14.3030374 C19.73136,14.3030374 20.77416,12.2164766 20.77416,9.64235514 C20.77416,6.62428967 18.6660571,7.72248593 16.3217371,7.72248593 L16.3217371,7.72248593 Z" id="Fill-41"/>
                <path d="M21.8594514,31.030514 C21.8594514,25.9246729 16.9832457,21.7854486 10.9680686,21.7854486 C4.95289143,21.7854486 0.076559999,25.9246729 0.076559999,31.030514 C0.076559999,31.4275607 0.0509142847,35.9955421 0.0639885704,36.4341402 C0.102331428,37.7150654 0.472434284,38.9647664 2.78281143,38.9647664 L19.1469143,38.9647664 C21.4639543,38.9647664 21.8341829,37.7173738 21.8722743,36.4354766 C21.8852229,35.9968785 21.8594514,31.4286542 21.8594514,31.030514" id="Fill-43"/>
                <polyline id="Fill-44" points="15.2594514 38.9647664 4.52734857 28.5928318 6.05829714 27.1132617 18.3213486 38.9647664 15.2594514 38.9647664"/>
                <polyline id="Fill-45" points="16.1535314 38.9647664 6.08130286 29.2305607 6.71817143 28.6151869 17.4272686 38.9647664 16.1535314 38.9647664"/>
                <polyline id="Fill-46" points="6.61835429 38.9647664 17.3505829 28.5928318 15.8196343 27.1132617 3.55645714 38.9647664 6.61835429 38.9647664"/>
                <polyline id="Fill-47" points="5.72427429 38.9647664 15.7965029 29.2305607 15.15976 28.6151869 4.45053714 38.9647664 5.72427429 38.9647664"/>
                <polygon id="Fill-48" points="3.24908571 34.8949159 18.6870514 34.8949159 18.6870514 31.7095514 3.24908571 31.7095514"/>
                <polygon id="Fill-49" points="9.27205714 38.9647664 12.66408 38.9647664 12.66408 25.0101776 9.27205714 25.0101776"/>
                <polygon id="Fill-50" points="9.89949714 38.9647664 12.03664 38.9647664 12.03664 25.0101776 9.89949714 25.0101776"/>
                <path d="M15.3967314,12.2988505 C15.2511543,15.731215 15.1054514,19.1635794 14.9597486,22.5958224 C14.8953829,24.1143925 13.1400343,25.7565234 11.0643657,25.7306449 C9.03734857,25.7052523 7.03484571,24.0339626 6.97374857,22.5876822 C6.82905143,19.1579907 6.68422857,15.7285421 6.53940571,12.2988505 C9.49193143,12.2988505 12.4443314,12.2988505 15.3967314,12.2988505" id="Fill-51"/>
                <path d="M10.9680686,20.5506916 C8.67755429,20.5500841 6.37673143,19.5651215 4.88349714,17.6536355 C2.32646857,14.3800654 2.70851429,10.1868972 2.70851429,6.56840182 C2.70851429,2.02799995 6.81673143,-0.0329252822 10.9680686,0.0352335963 C15.1194057,-0.0329252822 19.2277486,2.02799995 19.2277486,6.56840182 C19.2277486,10.1868972 19.6097943,14.3800654 17.05264,17.6536355 C15.5595314,19.5651215 13.2587086,20.5500841 10.9680686,20.5506916" id="Fill-52"/>
                <polygon id="Fill-53" points="3.24908571 34.3349439 18.6870514 34.3349439 18.6870514 32.2695234 3.24908571 32.2695234"/>
                <path d="M6.94848,22.4356916 C2.92285714,23.7934019 0.076559999,27.1296636 0.076559999,31.030514 C0.076559999,31.4275607 0.0509142847,35.9955421 0.0639885704,36.4341402 C0.102331428,37.7150654 0.472434284,38.9647664 2.78281143,38.9647664 L6.02008,38.9647664 C7.02466286,36.8461308 8.98492571,35.3358224 8.26445714,32.7785888 C7.45410286,29.9020654 7.13265143,25.2808692 6.94848,22.4356916" id="Fill-54"/>
                <path d="M14.9876571,22.4356916 C19.0134057,23.7934019 21.8595771,27.1296636 21.8595771,31.030514 C21.8595771,31.4275607 21.8852229,35.9955421 21.8721486,36.4341402 C21.8339314,37.7150654 21.4638286,38.9647664 19.1534514,38.9647664 L15.1996114,38.9647664 C14.8945029,37.4697664 14.9730743,37.2079439 15.0598171,35.4624206 C15.1344914,33.9591589 15.3855429,32.4193271 15.3456914,30.8702617 C15.26888,27.8805047 14.8278743,24.9048411 14.9876571,22.4356916" id="Fill-55"/>
                <path d="M21.7801257,29.8371869 C20.80672,29.8946542 20.0427543,30.4497664 20.0427543,31.1260093 C20.0427543,31.824486 20.8571314,32.3934486 21.87592,32.4189626 C21.8727771,31.7108879 21.8701371,31.1574766 21.8701371,31.030514 C21.8701371,30.6261776 21.8394629,30.2277944 21.7801257,29.8371869" id="Fill-58"/>
                <path d="M6.94169143,21.8610187 C7.09657143,25.6781589 7.74236571,29.4797477 8.41870857,33.266757 C8.47427429,33.578028 8.53914286,33.799271 8.40890286,34.0218505 C7.58497143,32.4117944 4.84804571,29.7476449 3.41251429,28.1084299 C2.88137143,27.5018037 2.44916571,27.1425421 3.43514286,26.7848598 C4.10670857,26.5411402 5.18973714,26.2489439 5.37893714,26.1958505 C6.09588571,25.9947757 6.15182857,25.7036729 5.44544,25.323757 C4.91995429,25.0409159 4.15774857,24.685785 3.59253714,24.3507009 C3.02984,24.0170748 3.17830857,23.5465234 3.55846857,23.3673178 C4.72044571,22.8194953 5.41438857,22.3296262 6.94169143,21.8610187" id="Fill-59"/>
                <path d="M5.00770286,27.6677664 C5.34185143,27.6677664 5.61276571,27.9295888 5.61276571,28.2525234 C5.61276571,28.5753364 5.34185143,28.8371589 5.00770286,28.8371589 C4.67355429,28.8371589 4.40276571,28.5753364 4.40276571,28.2525234 C4.40276571,27.9295888 4.67355429,27.6677664 5.00770286,27.6677664" id="Fill-60"/>
                <path d="M6.31789714,28.7529626 C6.77499429,28.7529626 7.1456,29.1111308 7.1456,29.5528879 C7.1456,29.9946449 6.77499429,30.3528131 6.31789714,30.3528131 C5.86067429,30.3528131 5.49019429,29.9946449 5.49019429,29.5528879 C5.49019429,29.1111308 5.86067429,28.7529626 6.31789714,28.7529626" id="Fill-61"/>
                <path d="M14.9945714,21.8610187 C14.8395657,25.6781589 15.4570743,30.0264766 15.19584,33.7952617 C15.1740914,34.1101776 14.9434057,35.4759065 15.0736457,35.6986075 C15.8975771,34.1126075 17.6352,29.5021028 18.5047657,27.7257196 C18.7331886,27.2591776 18.9969371,26.6751495 18.5416,26.5319065 C18.0730629,26.3844112 16.8800343,26.0829813 16.6326286,26.0136075 C15.91568,25.8126542 15.8210171,25.7610187 16.4908229,25.323757 L18.3436,24.113785 C19.1916686,23.5598879 18.8040914,23.1350187 18.1170629,22.8668785 C16.98312,22.4243925 16.3588229,22.2795701 14.9945714,21.8610187" id="Fill-62"/>
                <path d="M16.68304,26.9692897 C17.1957029,26.9692897 17.6113143,27.3709533 17.6113143,27.8664112 C17.6113143,28.3618692 17.1957029,28.7635327 16.68304,28.7635327 C16.1703771,28.7635327 15.75464,28.3618692 15.75464,27.8664112 C15.75464,27.3709533 16.1703771,26.9692897 16.68304,26.9692897" id="Fill-63"/>
                <path d="M16.6991314,23.4336542 C17.03328,23.4336542 17.3041943,23.6954766 17.3041943,24.0184112 C17.3041943,24.3413458 17.03328,24.6030467 16.6991314,24.6030467 C16.3651086,24.6030467 16.0941943,24.3413458 16.0941943,24.0184112 C16.0941943,23.6954766 16.3651086,23.4336542 16.6991314,23.4336542" id="Fill-64"/>
            </g>
        </g>
    </g>
</g><style>*{stroke:none!important;fill:#336699!important}</style></svg>
