<?xml version="1.0" encoding="UTF-8" standalone="no"?>
<!DOCTYPE svg PUBLIC "-//W3C//DTD SVG 1.1//EN" "http://www.w3.org/Graphics/SVG/1.1/DTD/svg11.dtd">
<svg width="100%" height="100%" viewBox="0 0 108 108" version="1.1" xmlns="http://www.w3.org/2000/svg" xmlns:xlink="http://www.w3.org/1999/xlink" xml:space="preserve" xmlns:serif="http://www.serif.com/" style="fill-rule:evenodd;clip-rule:evenodd;stroke-linejoin:round;stroke-miterlimit:1.41421;">
    <g transform="matrix(0.760766,0,0,0.760766,13.06,13.1841)">
        <g id="Content">
            <g id="Flat">
                <g id="Foreground">
                    <g id="Icon">
                        <clipPath id="_clip1">
                            <path d="M58.401,19.571C64.281,19.794 68.372,28.551 62.456,32.864C62.456,32.864 69.018,36.316 67.773,41.714C67.37,43.46 66.306,45.019 64.847,46.083L64.786,51.932L75.23,69.183L75.422,69.538C78.43,75.707 73.913,84.311 66.296,84.499C58.208,84.565 50.121,84.5 42.033,84.5C35.046,84.442 29.072,76.276 32.844,69.356C32.877,69.297 32.912,69.239 32.946,69.18L43.39,51.93L43.39,46.127C42.842,45.747 42.773,45.66 42.508,45.407C39.003,42.063 39.84,35.224 44.867,33.169C44.867,33.169 44.522,30.537 45.686,28.513C46.801,26.572 48.886,25.25 51.124,25.051C51.124,25.051 51.451,23.918 51.953,23.092C53.306,20.864 55.43,19.533 58.401,19.571Z" clip-rule="nonzero"/>
                        </clipPath>
                        <g clip-path="url(#_clip1)">
                            <g id="Backing" transform="matrix(0.094424,0,0,0.094424,6.94145,19.7548)">
                                <path d="M545.689,-2.105C607.961,0.259 651.285,92.996 588.633,138.67C588.633,138.67 658.134,175.238 644.943,232.4C640.677,250.889 629.411,267.399 613.959,278.674C613.959,278.674 613.308,340.618 613.308,340.618L723.918,523.308L725.952,527.073C757.807,592.403 709.97,683.523 629.3,685.514C543.653,686.22 458,685.527 372.349,685.527C298.349,684.917 235.078,598.431 275.031,525.148C275.375,524.516 275.748,523.901 276.107,523.277L386.713,340.597L386.713,279.136C380.919,275.116 380.182,274.188 377.381,271.515C340.26,236.098 349.125,163.668 402.359,141.909C402.359,141.909 398.709,114.027 411.029,92.59C422.838,72.042 444.923,58.038 468.627,55.934C468.627,55.934 472.085,43.929 477.399,35.182C491.737,11.584 514.232,-2.504 545.689,-2.105Z" style="fill:rgb(238,252,246);fill-rule:nonzero;"/>
                            </g>
                            <g id="Top" transform="matrix(0.094424,0,0,0.094424,6.87464,19.7698)">
                                <path d="M474.816,155.14C489.118,155.14 500.721,143.546 500.721,129.235C500.721,114.925 489.121,103.33 474.821,103.33C460.511,103.33 448.921,114.924 448.921,129.235C448.921,143.545 460.521,155.141 474.831,155.141M543.701,105.341C560.221,105.341 573.621,91.951 573.621,75.431C573.621,58.911 560.231,45.531 543.711,45.531C527.191,45.531 513.801,58.921 513.801,75.441C513.801,91.961 527.201,105.351 543.711,105.351M582.561,579.431L417.261,579.431C398.771,579.431 387.891,558.681 398.401,543.471L482.951,421.111C492.181,407.751 512.011,407.951 520.951,421.511L601.701,543.881C611.771,559.131 600.831,579.451 582.571,579.451M683.151,547.991L565.651,353.921L565.651,245.521L568.511,245.521C585.511,245.521 599.291,231.731 599.291,214.731C599.291,197.731 585.501,183.951 568.501,183.951L431.52,183.951C414.52,183.951 400.736,197.741 400.736,214.741C400.736,231.741 414.52,245.541 431.52,245.541L434.37,245.541L434.37,353.9L316.874,547.96C296.284,589.304 326.36,637.87 372.546,637.87L627.436,637.87C673.626,637.87 703.696,589.304 683.116,547.96" style="fill:rgb(32,41,62);fill-rule:nonzero;"/>
                            </g>
                        </g>
                    </g>
                </g>
            </g>
        </g>
    </g>
</svg>
